/* XPM */
static char *df96810c30214ef9aa81da06aee55ef0J49towG6aVBNjoVQ[] = {
/* columns rows colors chars-per-pixel */
"42 42 199 2 ",
"   c #040505",
".  c #050609",
"X  c #0C080C",
"o  c #15060B",
"O  c #141118",
"+  c #23070D",
"@  c #25100D",
"#  c #340A11",
"$  c #24141B",
"%  c #34070E",
"&  c #0A1B25",
"*  c #0A2129",
"=  c #102C3A",
"-  c #0F2C3A",
";  c #292327",
":  c #2A292D",
">  c #252527",
",  c #282934",
"<  c #2B3034",
"1  c #3C3336",
"2  c #332932",
"3  c #5A0A1C",
"4  c #551017",
"5  c #6E121C",
"6  c #7A121F",
"7  c #6F0B1F",
"8  c #472C0F",
"9  c #4F3513",
"0  c #762A1C",
"q  c #7A172C",
"w  c #741F35",
"e  c #740A20",
"r  c #4C3B27",
"t  c #452D3B",
"y  c #492938",
"u  c #5A2739",
"i  c #4E2E34",
"p  c #662335",
"a  c #782136",
"s  c #74212B",
"d  c #5F4014",
"f  c #7E5D0E",
"g  c #755411",
"h  c #7D5414",
"j  c #744D12",
"k  c #654B30",
"l  c #76633B",
"z  c #0C3141",
"x  c #3B3D4E",
"c  c #43394B",
"v  c #463A49",
"b  c #433F50",
"n  c #552E43",
"m  c #124B5F",
"M  c #394659",
"N  c #374051",
"B  c #264758",
"V  c #164E67",
"C  c #1A5874",
"Z  c #3A4D63",
"A  c #39536D",
"S  c #325E7A",
"D  c #395A77",
"F  c #285670",
"G  c #34617E",
"H  c #28647E",
"J  c #4A4948",
"K  c #5B5656",
"L  c #63474C",
"P  c #795254",
"I  c #666050",
"U  c #7A685A",
"Y  c #6B6968",
"T  c #7C7778",
"R  c #83091E",
"E  c #BF151E",
"W  c #980A25",
"Q  c #891929",
"!  c #991428",
"~  c #861D36",
"^  c #981231",
"/  c #8A0820",
"(  c #AC0B26",
")  c #B50B2A",
"_  c #BE0B2A",
"`  c #AB1626",
"'  c #A61925",
"]  c #AB1827",
"[  c #A5142A",
"{  c #AD1529",
"}  c #A61828",
"|  c #AB182A",
" . c #A21027",
".. c #B4132C",
"X. c #BD112C",
"o. c #B41523",
"O. c #BB1231",
"+. c #AB1B3E",
"@. c #84213E",
"#. c #82323B",
"$. c #C4151D",
"%. c #C2181B",
"&. c #C70D2D",
"*. c #CC0E2F",
"=. c #D40C2E",
"-. c #D90B2F",
";. c #C61421",
":. c #CA1222",
">. c #C4112E",
",. c #C51A23",
"<. c #D01029",
"1. c #CD0C30",
"2. c #D60B31",
"3. c #D90B32",
"4. c #DD0D39",
"5. c #C0143C",
"6. c #D81537",
"7. c #D3203D",
"8. c #815813",
"9. c #8C6810",
"0. c #946B14",
"q. c #9C7517",
"w. c #B16F1B",
"e. c #B81740",
"r. c #C91744",
"t. c #D41443",
"y. c #DC1343",
"u. c #DF1449",
"i. c #E4144A",
"p. c #E21142",
"a. c #D62843",
"s. c #885D5C",
"d. c #91585E",
"f. c #9A605F",
"g. c #9D5F62",
"h. c #986260",
"j. c #B6756F",
"k. c #D87E76",
"l. c #B88913",
"z. c #C69217",
"x. c #EEAD1B",
"c. c #F6B71B",
"v. c #F8B71C",
"b. c #F7B81E",
"n. c #F9B81C",
"m. c #EA9521",
"M. c #F49D21",
"N. c #F89C21",
"B. c #988370",
"V. c #CC8D7E",
"C. c #1F6E91",
"Z. c #2B6986",
"A. c #386787",
"S. c #2A7798",
"D. c #36779F",
"F. c #317BA3",
"G. c #217AA4",
"H. c #2783AB",
"J. c #3186AF",
"K. c #2C8EBA",
"L. c #288AB6",
"P. c #2B93BE",
"I. c #2B8FC1",
"U. c #2E93C1",
"Y. c #2B9BCB",
"T. c #2695C3",
"R. c #2C9DD2",
"E. c #2CA1D5",
"W. c #2CA5DB",
"Q. c #2CAADE",
"!. c #30A9DE",
"~. c #2DAAE2",
"^. c #2CA7E2",
"/. c #30A9E2",
"(. c #848586",
"). c #9A9A9A",
"_. c #B79D84",
"`. c #BBA287",
"'. c #A6A5A5",
"]. c #B6B7B6",
"[. c #CB9885",
"{. c #D79687",
"}. c #D98982",
"|. c #CEA18C",
" X c #D2A48E",
".X c #CFB397",
"XX c #CFB698",
"oX c #D2B497",
"OX c #D2B498",
"+X c #DAB79C",
"@X c #D4AA94",
"#X c #DBBCA0",
"$X c #DFC2A5",
"%X c #E1C3A7",
"&X c #E1C1A8",
"*X c #CDCECF",
"=X c #D4D3D4",
"-X c #E7E7E8",
";X c #FEFFFE",
/* pixels */
"~.~.~.~.~.~.~.~.~.~.~.~.~.~.~.~.~.~./.~.~.Q.~.~.~.~.~.Q.~.~.~.~.~.~.~.~.~.~.~.~.~.~.",
"~.~.~.~.~.~.~.~.~.~.~.~.~.~.~.~.~.~.~.~.~.~.Q.^.~.Q.~.~.~.Q.~.Q.~.~.~.~.~.~.~.~.~.~.",
"~.~.~.~.~.~.~.~.~.~./.~.~.~.~.~.~.~.~.~.~.~.Q.Q.~.~.~.~.~.~.Q.~.~.~.~.~.~.~.~.~.~.~.",
"~.~.~.~.~.~.~.~.~././.~.~.~.~.~.~.~.~.~.~.~.L.D x M P.Q.~.~.~.Q.~.~.~.~.~.~.~.~.~.~.",
"/.~.~.~.~.~.~.~.~.~.~.~.~.~.~.~.~.~./.~.F.y e.t.i.t.p E./.~.Q.~.~.~.~.~.~.~.~.~.~.~.",
"~.~.~.~.~.~.~.~.~.~.~.~.~.~.~.~.~.^.W.b e.i.p.3.2.3.a U.~.~.Q.~.~.~.~.~.~.~.~.~.~.~.",
"~.~.~.~./.~.~.~.~.~.~.~.~.~.~.~.~.R.n i.i.4.3.3.3.&.2 H.K.Q.~.~.~.~.~.~.~.~.~.~.~.~.",
"~.~.~.~./.~.~.~.~.~.~.~.~.~.~.~.~.b i.i.3.3.3.1.Q q q ~ w y M R.~.~.~.~.~.~.~.~.~.~.",
"~.~.~.~.~.~.~.~.~.~.~./.~.~.Q.W.S r.i.3.2.*.) [ *.2.3.3.3.3.) 1 Q.~.~.~.~.~.~.~.~.~.",
"~.~.~.~.Q.~.~.~.~.~.~.Q.~.R.Z ~ r.p.4.2.3.3.2.3.3.=.3.3.3.3.3.p U.Q.~.~.~.~.~.Q.~.~.",
"~.~.~.~.~.~.Q.~.~.Q.~.Q.S a y.y.3.2.3.2.2.2.3.3.-.3.( ! q p y Z ~.~.Q.~.~.~.Q.~.~.~.",
"~.~.~.~.~.~.~.~.Q.~.U.t t.y.3.3.3.2.3.3.2.3.2.3.2.3.4.2.^ c ^.~.Q.~.~.~.Q.Q.~.~.~.~.",
"~.~.Q.~.~.~.~.~.~.F.p u.4.3.=.3.3.3.3.3.3.2.3.=.3.3.3.2.-.! G Q.~.~.~.Q.~.~.^.~.~.~.",
"~.~.~.~.~.~.~.~.F.a i.4.2.-.3.2.=.3.3.3.3.3.3.3.2.3.2.3.3.=.Q K.~.~.Q.~.~.~.~.~.~.~.",
"^.~.~.~.~.Q.~.K.p u.3.3.3.3.=.3.2.2.3.-.) 3.=.3.2.3.3.2.3.3.%.t Q.~.~.~.Q.~.~.~.~.~.",
"~.~.~.~.~.~.Q.t ^ 2.3.3.3.3.3.3.3.2.*.4 X ( 2.3.3.-.3.3.3.3.:.] G Q.~.~.~.Q.~.~.~.~.",
"Q.~.Q.~././.D ^ . % _ 3.-.-.3.-.2.( + .   o 2.3.3.3.-.2.3.3.2.$.i R./.~.~.~.~.~.~.~.",
"~./.~.~././.u 3 . X X / 3.3.3.1.3 . X . .   W 3.3.3.3.2.3.3.-.:.` S ~.~.~.~.~.~.~.~.",
"~.Q.~.~.~.A.5.W %   . . % W 6 o . .   ; 4 ) 3.3.-.2.3.2.-.2.3.<.$.t ~.~.~.~.Q.~.~.~.",
"~.Q.~.~.~.b 4.3.6.i '.J X .     ; (.=X;XP 2.3.=.=.3.3.2.2.-.-.=.E Q K.~.V Y.~.~.~.~.",
"/.~.~./.!.u p.=. .'.;X;XY T K *X-Xv '.;X).' 2.-.3.3.3.3.2.3.2.2.$.X.D C   - Q.~.Q.~.",
"~.~.~.~.Y.@.3.2.! (.;X;X).*XY ;X-XK ].;XT ' &.3.3.3.2.-.3.3.3.3.$.;.,   * G.L.G.~.~.",
"~.~.Q.~.L.~ 2.&.} 5 K Y I q.z.l '.=X].Y 6 ' ..3.3.3.3.2.3.3.2.2.$.%.O - m &   * ~.~.",
"Q.~.~./.H.~ 2.*.' } 5 g x.c.n.c.q.@ 6 ' ' ' ..-.1.{ *.3.3.3.3.3.;.%.$       .   Y.~.",
"~.~.~.Q.H.p =.*.' 4 q.n.n.n.n.n.b.l.4 ' | ' ..=.{ ' X.3.=.3.-.3.$.$.$ - C L.L.T.~.~.",
"~.Q.~.~.K.y -.-.6 0.n.n.b.n.n.n.n.b.f Q ] { =.*.} ' X.3.3.3.3.=.$.E c C.. V ~.~.~.~.",
"Q.~.~.~.Y.; =.3.8 b.b.n.n.n.n.n.n.v.z.e *.2.-.&.} ' *.2.3.2.3.2.%.E Z ~.C.E.^.~.~.~.",
"~.~.Q.Q.~.<  .) 9.b.z.0.8.g j h 8.h 8 #.a.2.=.>.} { 3.&.{ &.=.=.E o.F.Q.Q.~.Q.~././.",
"Q.^.~.Q.~.S y ( g 0 Q 9 m.N.M.M.M.N.d `.OX X}.7...2.-.{ ] ` 3.:.%.w E.~.~.~.~.~.~.~.",
"~.~.~.Q.~.Y.> ^ W a. X_.r q.M.M.w.k `.OXOXOX&X&Xk.=.3...} ..=.$.$.x ~.~.~.~.~.~.~.~.",
"~.~.Q.~.Q.^.H ; O.{..XOX@XU 8 r B.oXOXOXOXOX+X%X%X@X6.-.>.-.;.$.s I.Q.~.~.~.~.~.~.~.",
"~.~.Q.~.^.Q.Q.B 1  XOXOX.XoX.XOXOXoXOXOXOXOX+X%X%X&X+X6.3.;.$.] A Q.~.~.Q.~.~.~.~.~.",
"~.~.~.~.~.~.~.^.V 1 [.XX.XOXOXOXoXoXoXoXoXoXoXOX+X&X%X{.;.$.o.x ~.~.~.~.~.~.~.~.~.~.",
"~.~.~.~.~.~.~.~.Q.S.: s.|..XOXOXOXoXoXOXoXOXoXoXOXOXoXoX,.Q Z Q.~.~.~.~.~.~.~.~.~.~.",
"~.~.~.~.~.~./.~.Q.~.R.Z.< L j.[.oXoX.X.XOXOXOX.XOX.XV.f.v J.~.~.~.~.~.~.~.~.~.~.~./.",
"~.~.~.~.~.~./.~.!.~.~.~.~.U.Z.N v L P f.f.h.d.s.L v A K.Q.~.Q.~.~.~.~.~.~.~.~.~.~.~.",
"~.~.~.~.~.~.~.~.~.~.~.~.~.~.~.Q.~.~.W.Y.U.P.Y.W.^.^.Q.~.Q.~.~.~.~.~.~.~.~.~.~.~.~.~.",
"~.~.~.~.~.~.~.~.~.~.~.~.Q.Q.~.~.~.!./.~.~.~./.~.Q.~.~.~.~.~.~.Q.~.~.~.~.~.~.~.~.~.~.",
"~.~.~.~.~.~.~.~.~.~.~.Q.~.~.~.~.~.~.~.~.~.~.~.~.~.Q.~.^.Q.Q.~.~.~.~.~.~.~.~.~.~.~.~.",
"~.~.~.~.~.~.~./.~.~.~.~.~.~.Q.~.Q.~.~.Q.~.~.~.~.~.~.~.~.~.~.~.~.~.~.~.~.~.~.~.~.~.~.",
"~.~.~.~.~.~.~.~.~.~.~.~.~.~.~.~.~.~.~.~.~.~.~.~.~.~.~.~.~.~.~.~.~.~.~.~.~.~.~.~.~.~.",
"~.~.~.~.~.~.~.~.~.~.~.~.~.~.~.~.~.~.~.~.~.~.~.~.~.~.~.~.~.~.~.~.~.~.~.~.~.~.~.~.~.~."
};
