/* XPM */
static char *YmlyZCtjb3B5KyUyODElMjk_[] = {
/* columns rows colors chars-per-pixel */
"42 42 201 2 ",
"   c #040505",
".  c #050609",
"X  c #09080A",
"o  c #14060B",
"O  c #131017",
"+  c #23070D",
"@  c #25100D",
"#  c #340A11",
"$  c #24141A",
"%  c #34070E",
"&  c #0A1B25",
"*  c #0A2129",
"=  c #0F2C3A",
"-  c #292A2D",
";  c #272427",
":  c #282934",
">  c #2B3034",
",  c #3C3437",
"<  c #342832",
"1  c #5A0A1C",
"2  c #541017",
"3  c #7A0F1F",
"4  c #6E121C",
"5  c #7A121E",
"6  c #64081D",
"7  c #472C0F",
"8  c #4F3512",
"9  c #762A1C",
"0  c #79172C",
"q  c #741E35",
"w  c #740A20",
"e  c #4C3B27",
"r  c #442C3A",
"t  c #492A39",
"y  c #5A2739",
"u  c #4F2E34",
"i  c #642334",
"p  c #692436",
"a  c #782136",
"s  c #74212B",
"d  c #5D4014",
"f  c #7E5D0E",
"g  c #755411",
"h  c #7D5414",
"j  c #744D12",
"k  c #654B30",
"l  c #76633B",
"z  c #0C3141",
"x  c #3A3D4D",
"c  c #43394B",
"v  c #463A49",
"b  c #433F50",
"n  c #552E43",
"m  c #124B5F",
"M  c #384357",
"N  c #264758",
"B  c #154D66",
"V  c #1A5874",
"C  c #3A4D63",
"Z  c #39526D",
"A  c #2D5E79",
"S  c #385B78",
"D  c #284E65",
"F  c #33617D",
"G  c #28647E",
"H  c #494948",
"J  c #5A5656",
"K  c #63474C",
"L  c #795254",
"P  c #666052",
"I  c #7A685A",
"U  c #6B6968",
"Y  c #7C7778",
"T  c #810A1E",
"R  c #980A25",
"E  c #8F122B",
"W  c #881A2A",
"Q  c #9A1526",
"!  c #861D36",
"~  c #981232",
"^  c #8A0820",
"/  c #A80C26",
"(  c #B50B2A",
")  c #BE0A2A",
"_  c #AB1625",
"`  c #A61925",
"'  c #AB1827",
"]  c #A5132B",
"[  c #AD152A",
"{  c #A61828",
"}  c #AC182A",
"|  c #A41727",
" . c #B4132C",
".. c #BD112B",
"X. c #B41523",
"o. c #BB1231",
"O. c #AB1B3E",
"+. c #84213E",
"@. c #82323B",
"#. c #C4151D",
"$. c #C2181B",
"%. c #C70D2D",
"&. c #CC0D2F",
"*. c #D40C2E",
"=. c #D90B2F",
"-. c #C61422",
";. c #CA1222",
":. c #C4102D",
">. c #C51A23",
",. c #D01027",
"<. c #CD0C30",
"1. c #D60B31",
"2. c #D90B32",
"3. c #DD0E3A",
"4. c #D71435",
"5. c #C2133C",
"6. c #D3203D",
"7. c #815813",
"8. c #936B14",
"9. c #9C7517",
"0. c #8C6810",
"q. c #B16F1A",
"w. c #B81740",
"e. c #C91644",
"r. c #D31443",
"t. c #DC1443",
"y. c #DF1449",
"u. c #E30F41",
"i. c #E4144A",
"p. c #E21243",
"a. c #D72743",
"s. c #885D5C",
"d. c #92575D",
"f. c #9A605F",
"g. c #9D5F62",
"h. c #986260",
"j. c #B6756F",
"k. c #DA7D76",
"l. c #B88913",
"z. c #C69217",
"x. c #EEAE19",
"c. c #F7B717",
"v. c #F6B71D",
"b. c #F8B71C",
"n. c #F7B81E",
"m. c #F9B81D",
"M. c #EA9521",
"N. c #F49D21",
"B. c #F89C21",
"V. c #988370",
"C. c #CB8C7D",
"Z. c #1E6D91",
"A. c #386787",
"S. c #2A7698",
"D. c #2F6D8E",
"F. c #1F7BA4",
"G. c #317AA2",
"H. c #2783AC",
"J. c #3186AF",
"K. c #2C8DBA",
"L. c #278AB6",
"P. c #2B93BE",
"I. c #2B8FC1",
"U. c #2E93C1",
"Y. c #2A9BCC",
"T. c #2695C2",
"R. c #2E9DD4",
"E. c #2CA1D5",
"W. c #2DA5DB",
"Q. c #2CAADE",
"!. c #30A9DE",
"~. c #2DAAE2",
"^. c #2CA7E1",
"/. c #30A9E1",
"(. c #30A9E4",
"). c #30A9E3",
"_. c #848586",
"`. c #9A9A9A",
"'. c #B79D84",
"]. c #BBA288",
"[. c #A7A5A5",
"{. c #B1B1AF",
"}. c gray73",
"|. c #CB9884",
" X c #D79586",
".X c #D98982",
"XX c #CEA18C",
"oX c #D3A58E",
"OX c #CFB397",
"+X c #D2B497",
"@X c #D3B499",
"#X c #DAB79C",
"$X c #D3AA94",
"%X c #DBBCA0",
"&X c #DEC2A5",
"*X c #E1C3A6",
"=X c #E1C1A8",
"-X c #CDCECF",
";X c #D3D3D4",
":X c #E7E7E8",
">X c #FDFEFE",
/* pixels */
"~.~.~.~.~.~.~.~.~.~.~.~.~.~.!.~.~.Q.~.~.Q.~.~.~.~.Q.~.~.~.^.~.~.~.~.~.~.~.~.~.~.~.~.",
"~.~.~.~.~.~.~.~.~.~.Q.~.Q.~.~./.~.~.~.~.~.~.~.~.~.~.~.~.~.~.~.~.~.~.~.~.~.~.~.~.~.~.",
"~.~.~.~.~.~.~.~.~.~.~.~.~.~.Q.~.~.^.Q.Q.~.~./.~.~.~.Q.~.~.~.~.~.~.~.~.~.~.~.~.~.~.~.",
"~.~.~.~.~.~.~.~.~.~.Q.~.~.Q./.P.M x S L.~.~.~.~.~.~.~.~.~.~.~.~.~.~.~.~.~.~.~.~.~.~.",
"~.~.~.~.~.~.~.~.~.~.~.Q.~.~.R.p t.t.t.O.t G.W.~.~.~.~.~.~.~.~.~.~.~.~.~.~.~.~.~.(.~.",
"~.~.~.~.~.~.~.~.~.~.^.~.~.~.U.q 2.2.2.u.i.w.b E.~.~.~.~.~.~.~.~.~.~.~.~.~.~.~.~.~.~.",
"~.~.(.~.~.~.~.~.~.~.~.~.Q.I.H.< %.1.1.*.3.i.i.n W.Q.~.~.~.~.~.~.~.~.~.~.~.~.~.~.~.~.",
"~.~.~.~.~.~.~.~.~.~.R.M t q ! 0 0 E &.2.2.2.i.i.v ~.~.~.~.~.~.(.~.~.~.~.~.~.~.~.~.~.",
"~.~./.~.~.~.Q.~.~.Q.,  .1.2.2.2.1.<.] ( %.1.3.i.e.A E.~.~.~./.~.~.~.~.~.~.(.~.~.~.~.",
"~.~.~.~.~.~.~.~.Q.U.p 1.1.1.2.2.<.1.2.2.2.1.*.2.p.r.+.C Y.~.Q.~.~.~.~.~.~.~.~.~.Q.~.",
"~.~.~.Q.~.~.~.~.~.~.C r i W Q  .1.2.2.2.2.2.=.2.2.2.t.t.+.A ~.~.Q.~.Q.~.~.~.~.~.Q.~.",
"~.~.~.~.Q.Q./.~.~.Q.~.^.v ~ 2.2.2.1.2.1.2.2.2.2.1.2.2.2.t.r.r U.~.Q.~.~./.~.~.~.Q.~.",
"~./.~.~.~.~.Q./.~.~.~.A.Q *.1.=.2.2.1.2.2.2.2.1.2.2.2.*.2.3.i.i G.~.~.~.~.~.(.Q.~.~.",
"~.~.~.~.~.~./.~.~.~.K.W *.*.1.1.1.2.2.2.2.2.2.2.2.*.1.2.2.2.2.i.q G.~.~.~.~.~.Q.~.~.",
"~.~.(.~.~.~.~.Q.~.W.r -.*.2.2.2.2.1.2.2.2.( *.1.2.2.=.1.2.2.1.2.i.i K.~.Q.~.~.~.~.~.",
"~.~.~.~.Q.~.Q.~.Q.F _ ;.2.=.2.1.1.2.2.1./ . 2 *.2.1.2.2.2.2.2.2.3.E t Q.~.^.~.~.~.~.",
"~.~.^.~.~.~.~.^.E.u #.*.2.2.2.*.2.1.1.<.o X . + / 2.=.2.=.1.2.) % . ~ F /.~.~.~.~.~.",
"~.~.^.~.Q.~.~.~.S [ -.=.2.2.1.2.2.2.=.R       X   6 &.=.2.2.^ o X . 1 i Q.~.~.Q./.~.",
"~.~.~.Q.~.~.~.~.r #.,.2.*.2.1.1.2.2.2.2.) 1 ;   . . o ^ Q # . . . # R 5.A.~.Q.(.Q.~.",
"~.~.^.~.Y.B ~.K.W #.*.2.=.2.1.2.2.*.1.2.&.L >X;X_.;     . X H [.u 1.2.3.b /.Q.~.Q.Q.",
"~.~.~.Q.=   V S X.#.=.2.2.2.2.2.2.=.=.1._ `.>X[.M :X-XJ Y U >X>X[.Q *.3.n Q./.~.~.~.",
"~.~.F.L.H.* . : -.#.2.2.2.2.2.1.2.2.2.%.| Y >X{.P :X>XU ;X`.>X>X_.Q 1.2.! Y./.~.~.~.",
"Q.Q.*   & m = O #.#.1.=.1.2.1.1.2.2.2. ._ 5 U }.-X[.l z.9.P U J 4 | %.2.! K.~.Q.~.~.",
"~.Y.        X $ #.-.2.2.1.2.1.&.[ <.2.( ` { Q 3 @ 9.v.n.v.x.j 4 | ` &.2.! J.~.~.~.~.",
"~.W.T.L.L.V z O #.#.2.=.2.1.*.%.` ' =...` ' { 2 l.c.m.b.b.m.m.9.2 ` *.2.i H.Q.~.~.~.",
"Q.~.~.~.B . Z.c $.#.1.2.1.2.=...` { &.&.} ' W f m.c.b.b.c.n.c.m.8.3 2.=.t J.~.Q.~.~.",
"~.~.~.^.W.Z.~.Z $.$.=.=.2.1.1.&.` { :.*.1.&.w z.b.b.b.b.m.v.m.m.v.7 *.&.; Y.~.Q.~.~.",
"~.~.~.~.Q.~.~.S.X.$.*.=.%._ %.2.} { :.=.2.a.@.7 h 7.h j g 7.8.z.b.0.( / : ~.Q.Q.~.~.",
"~.~.~.~.~.~.~.E.a #.;.=.[ _ [ 2.1. .6..XoX@X].d N.B.N.N.B.M.8 W 9 g  .r A ~.Q.~.~.~.",
"~.~.Q.Q.Q.~.~.~.x #.#.*. .`  .2.1.k.&X=X@X@X@X].k q.N.N.q.e '.oXa.R ~ ; Y.~.~.~.~.~.",
"~.~.~.~.~.~.(.Q.I.s #.#.*.&.*.4.#X*X*X#X@X@X@X@X@XV.e 7 I OX@X@X Xo.; G ~.Q.~.~.~.~.",
"~.~.~.Q.~.Q.~.~.Q.Z } #.-.2.4.#X=X*X&X@X@X@X@X@XOX@XOX$X@XOX@X@XXX, N Q.Q.~.~.~.~.~.",
"~.~.~.~.~.~.~.~.~.~.x X.$.#. X*X%X#X#X@X+X@X+X@X+X@X+X+X+XOX@X|., D Q.Q.(.~.~.~.~.~.",
"~.~.~.~.~.~.~.~.(.~.Q.C W >.+X+XOX+X@X+X@X+X+X+X@X@X@X+XOXXXI - S.Q.~.~.~.~.~.~.~.~.",
"~.~.~.~.~.~.~.~.~.~.~.~.J.v f.C.OX+X+X+X+X#X+X+X@X+X|.j.K > D.Q.~.~.~.~.~.~.~.~.~.~.",
"~.~.(.~.~.~.~.~.~.~.~.~.(.Q.K.Z v K L d.h.h.d.L K r M D.P.Q.Q.~.~.W.~.~.^.~.~.~.~.~.",
"~.~.~.~.~.~.~.~.~.~.~.~.~.~.(.Q.~.~.E.Y.P.P.Y.Q.~.~.~.~.~.~.~.~.~.~.~.~.~.~.~.~.~.~.",
"~.~.~.~.~.~.~.~.~.~.~.~.~.~.~.~.~.~.~.~.Q.~.~.~.(.~.~.~.Q.Q.~.~.~.~.~.~.~.~.~.~.~.~.",
"~.~.~.~.~.~.~.(.~.~.~.~.Q.Q.~.~.Q././.~.~.Q.~.(.~.Q.Q.~.~.~.Q.~.~.~.~.~.~.~.~.~.~.~.",
"~.~.~.~.~.~.~.~.~.~.~.~.Q.~.~.~.~.~.~.Q.~.~.~.~.~.~.~.Q.~.~.~.~.Q.~.~.~.~.~.~.~.~.~.",
"~.~.~.~.~.~.~.~.~.~.~.~.~.~.~.~.~.~.(.~.~.~.~.~.~.~.~.~.~.~.~.~.(.~.~.~.~.~.~.~.~.~.",
"~.~.~.~.~.~.~.~.~.~.~.~.~.~.~.~.~.~.~.~.~.~.~.~.~.~.~.~.~.~.~.~.~.~.~.~.~.~.~.~.~.~."
};
