/* XPM */
static char *_12115992b204948cc049791ec8e3c78IxdlPyMP0Oy1xlY1[] = {
/* columns rows colors chars-per-pixel */
"42 42 170 2 ",
"   c #170D0C",
".  c #021511",
"X  c #04241D",
"o  c #073D32",
"O  c #3E2E25",
"+  c #541416",
"@  c #471B1B",
"#  c #7B0201",
"$  c #7D0E00",
"%  c #770202",
"&  c #7F1900",
"*  c #7D1D21",
"=  c #402E26",
"-  c #413327",
";  c #46342B",
":  c #6F3532",
">  c #7A3E3C",
",  c #084134",
"<  c #064638",
"1  c #074B3D",
"2  c #254334",
"3  c #005C47",
"4  c #035E4B",
"5  c #095F4C",
"6  c #045241",
"7  c #155D4B",
"8  c #1C5D4D",
"9  c #1E5245",
"0  c #2E5748",
"q  c #235B4C",
"w  c #2D5A4C",
"e  c #335A4C",
"r  c #3A594D",
"t  c #3A5547",
"y  c #295F51",
"u  c #335E51",
"i  c #3A5E51",
"p  c #05604D",
"a  c #0A624E",
"s  c #11624E",
"d  c #1B604F",
"f  c #076350",
"g  c #0C6451",
"h  c #116552",
"j  c #1B6252",
"k  c #146955",
"l  c #246251",
"z  c #296453",
"x  c #21655E",
"c  c #524C43",
"v  c #5D4B43",
"b  c #44574B",
"n  c #44594E",
"m  c #4B584D",
"M  c #4B564D",
"N  c #565147",
"B  c #5E5045",
"V  c #54554D",
"C  c #5F514A",
"Z  c #4B5C50",
"A  c #6A4B45",
"S  c #644E4A",
"D  c #6C4F4B",
"F  c #614F45",
"G  c #7B4643",
"H  c #744A43",
"J  c #7A4841",
"K  c #724D49",
"L  c #7C4D4A",
"P  c #764642",
"I  c #62524C",
"U  c #6C514C",
"Y  c #635652",
"T  c #627052",
"R  c #881208",
"E  c #981113",
"W  c #A5191B",
"Q  c #802100",
"!  c #831E22",
"~  c #993C39",
"^  c #B52125",
"/  c #BF292C",
"(  c #B6282C",
")  c #A53F3F",
"_  c #AF3938",
"`  c #AC3237",
"'  c #B03135",
"]  c #B03935",
"[  c #B63339",
"{  c #BB3339",
"}  c #BC3A3C",
"|  c #B43B3B",
" . c #C32A2E",
".. c #C92D31",
"X. c #C43339",
"o. c #CC343A",
"O. c #C43C3C",
"+. c #CC3A3E",
"@. c #D53137",
"#. c #D53339",
"$. c #D9343B",
"%. c #D6393F",
"&. c #DA3B3B",
"*. c #8C463F",
"=. c #AA443F",
"-. c #B1453F",
";. c #AE543C",
":. c #CF483F",
">. c #DE423D",
",. c #E44D3F",
"<. c #E1473D",
"1. c #983D40",
"2. c #AE3F44",
"3. c #B53D43",
"4. c #BB3C43",
"5. c #CB3740",
"6. c #C43940",
"7. c #DA3F43",
"8. c #844543",
"9. c #8C4545",
"0. c #824A49",
"q. c #8C4948",
"w. c #934544",
"e. c #9C4345",
"r. c #914948",
"t. c #9C4548",
"y. c #A34345",
"u. c #AC4044",
"i. c #A54F40",
"p. c #B14F43",
"a. c #AB5B4B",
"s. c #B25E4E",
"d. c #A17F49",
"f. c #B06551",
"g. c #A26A61",
"h. c #D9444A",
"j. c #DF4D49",
"k. c #DD4745",
"l. c #C25853",
"z. c #DC5358",
"x. c #E54E40",
"c. c #E1504A",
"v. c #E25D59",
"b. c #DE5E63",
"n. c #C6696B",
"m. c #E46864",
"M. c #E87069",
"N. c #E67A79",
"B. c #B7885A",
"V. c #BC8D63",
"C. c #BAA56D",
"Z. c #C29D80",
"A. c #E68286",
"S. c #EA989B",
"D. c #D0BE91",
"F. c #D2B09E",
"G. c #ECA4A6",
"H. c #EBAAA8",
"J. c #F5B6AE",
"K. c #F1B9BA",
"L. c #C7CB8C",
"P. c #D5C1AA",
"I. c #D4DDA8",
"U. c #DFD4C1",
"Y. c #E6CDC0",
"T. c #F5D7D6",
"R. c #F8D4D2",
"E. c #E5EBC9",
"W. c #ECF4DB",
"Q. c #FCE9E7",
/* pixels */
"a a p g p 1 p a p 5 6 . . f 5 5 5 f f f 4 4 4 4 5 4 4 4 4 4 4 4 4 4 4 4 4 4 4 4 4 4 ",
"g g g g < . X < o X   @ 9 f f 4 f f f f 4 4 5 4 4 4 4 4 4 4 4 4 3 4 4 4 4 p p p f 4 ",
"p g g k s : ! + + * ( #.1.a f f f 4 f f 4 4 f f 4 5 5 5 4 4 4 4 4 4 4 4 4 4 4 4 p p ",
"p a g g P #.u.a.f.Y L } s.i 7 f 4 4 4 f 4 4 f g f f f 5 4 4 4 4 4 4 4 4 f 4 4 4 p p ",
"p a g z ;.~ x T d.D 1._ F.n.*.e 5 4 p f 4 4 f g f f f 4 4 4 4 4 4 3 4 4 p p 3 p p p ",
"a a w g.V.` 1.i.C.p.` a.Y.z.<.:.P 5 p f p 4 f g x f 4 4 4 f 4 4 4 4 4 4 p p 3 p a p ",
"h b | z.D.;.] B.W.P.Z.U.G.#.#.&.#.G 5 p f 4 4 f f f 4 4 4 f 4 4 3 4 4 p 4 3 p p p p ",
"q =.&.>.H.I.L.E.H.K.T.G.h.@.&.&.$.o.v 4 f p 4 f f 4 4 4 f 4 f 4 4 3 p p p 4 a a a a ",
"H >.&.#.k.S.K.A.%.%.h.@.#.#.,.>.$.5.4.9 4 f f 4 f f 4 4 f f f 4 p 3 p p 3 3 p a g f ",
"=.&.&.#.@.@.#.#.#.#.@.#.@.#.&.#.$.7.7.c 4 f f 4 4 f f 4 4 f 4 4 3 p p p a p a s g g ",
"} #.#.#.@.@.#.#.#.@.@.@.@.@.@.&.$.7.$.G 4 f 4 f f f 4 4 4 f f 4 p p a a p 5 a a g f ",
":.&.>.>.&.#.#.#.>.>.k.A.N.b.b.c.$.$.5.> 4 f 4 f f 4 4 4 4 4 4 f p p 4 p 3 p a a g h ",
"=.&.&.&.>.&.#.>.&.#.j.J.R.Q.Q.M.$.x.$.H f 4 4 4 f 4 4 4 4 4 f f f 4 4 5 5 5 a a s g ",
"P #.#.#.#.>.<.>.#.#.#.&.v.N.m.&.>.x.+.b f 4 4 4 4 4 4 f f 4 f f g p 4 f 5 a a a g a ",
"0 } @.#.@.@.#.#.#.#.#.#.#.@.&.@.@.$.8.8 f f f f 4 4 4 4 4 4 4 f g p 5 g 5 5 a f h h ",
"p N o.#.#.#.#.#.@.#.#.#.#.&.,.&.#.) 8 3 f f f f f f f 4 4 4 f 4 p 5 5 5 4 5 f g h h ",
"3 s B { @.&.&.$.$.&.#.#.#.#.@.@.~ q 4 4 p p p f g p 3 3 3 3 3 a 5 5 5 f g a a g s s ",
"a a a 0 *.o.&.$.&.&.&.#.#.@...W ; a p 4 p a g f f p p p p 3 3 p g g f h h g g f g f ",
"a a a p s 0 F *./  . ./ ^ E R R - 4 a f a a p 4 f p a p a 3 p a s g g g a a 5 5 a f ",
"g a a a 3 5 a 2 # # # # # % & & - f 5 f 5 4 4 a a f p p a p a h g g j q g g g g f g ",
"a a a p 4 6 a 2 % # # # # $ & $ = 4 a f a 4 a g a a p p p 3 a s 8 G 3.4.q.u g k h g ",
"a a p p 4 4 p 2 % # # # # # $ $ = 5 a g g g a a a a p p p a a d 2.$.@.5.7.2.y h g k ",
"a p p 1 4 4 4 c ^ ^ ^ ^ ^ ^ ^ ^ > g 5 5 a a a f a a p p a a a B $.@.5.@.@.5.L k g g ",
"p a p p f 5 a D $.#.$.#.#.$.$.$.e.5 5 f a g a 5 a a a a a a a q.$.@.$.@.@.@.y.s h k ",
"a a 3 3 g f a m 5.$.$.@.@.@.@.$.G 4 a k a h h a a a g a s h a q.$.o.{ { X.o.3.7 a s ",
"a g a p a a a z 4.#.$.$.@.$.o.#.K 5 4 5 a a 5 g h h a a h k h V $.o.o.#.#.#.5.8.d a ",
"g a f a p a s u 5.X.o.o.o.X.{ o.2.7 5 5 f 5 4 a k h h a a k a d w.@.#.#.#.#.#.#.U h ",
"g f a a p p a b @.o.{ { [ { o.@.7.1.y a a a 5 g h h h g a a a h i 5.#.#.#.#.#.#.4.h ",
"g a a a p p a t 5.$.@.5.#.$.@.@.X.@.2.y 4 g g h a h h s s a a s M #.$.o.@.$.#.@.$.s ",
"a a a a s a h d 2.$.@.@.@.5.@.o.{ @.7.t.G S w f g g h k h a p s M o.X.{ [ { #.$.7.s ",
"g a p p h h h h M 5.@.#.#.#.o.[ X.5.@.o.#.$.O.F d q d h h h a s K $.o.o.X.{ X.$.4.h ",
"a g a a h g a h a M 3.o.{ [ [ { @.@.@.{ o.#.#.%.4.O.-.0.i N A L +.@.$.#.#.+.{ #.S h ",
"a h h a h a a a a h n +.@.o.o.@.#.#.#.{ X.@.#.@.o.@.#.#.+.$.#.$.o.{ o.#.#.#.@.y.h h ",
"a a p p s a a s h k j e.#.#.#.@.#.@.o.[ o.$.#.#.{ o.#.#.X.o.#.#.@.o.{ o.#.#.#.e.s h ",
"a a p a h h a s a a a e 3.$.#.#.#.o.[ { @.#.#.#.{ o.#.#.o.{ @.#.#.#.{ X.#.#.@.e.a s ",
"a a a a a a a s a h h a q K y.u.+.X.X.#.#.#.@.o.[ o.#.#.o.{ o.#.#.@.{ X.#.#.#.U s h ",
"p s s g a a p a g h h g g 5 7 7 F $.#.#.@.#.o.{ X.@.#.#.o.{ @.#.#.#.X.o.#.#.2.z s s ",
"a a a s a a p a a g h s g 5 a a s L %.#.#.@.o.#.#.@.#.@.X.{ #.#.@.#.o.5.5.e.e h s a ",
"p a 5 3 a a a a g g h g h s s a h s n 0.r.0.u.$.#.#.#.@.X.o.#.#.#.$.r.V r 8 5 5 a s ",
"p a a 5 p a a a a a a a h s a s h h h k h h r r.6.+.6.2.5.$.#.$.$.w.l h h h h s s k ",
"g a h a a a a a a a a a h k h s s s s h k k s j i n e d Z r.u.y.C d a s k h s h h s ",
"a a a a a 5 4 5 a g a h k k k k k h h h k k s s h h h s k h a h h s s s k h s h h s "
};
