/* XPM */
static char *_5f5ae4b6c1d494f9fcced67b1761c4doL8YatswHhjzaIy1[] = {
/* columns rows colors chars-per-pixel */
"42 42 221 2 ",
"   c #393E2A",
".  c #5A3302",
"X  c #683802",
"o  c #783A02",
"O  c #514B01",
"+  c #6C4300",
"@  c #6A4704",
"#  c #764501",
"$  c #7D4601",
"%  c #754901",
"&  c #7C4C01",
"*  c #7C4A0A",
"=  c #7F5202",
"-  c #76500A",
";  c #6B5A1A",
":  c #675516",
">  c #6D4D15",
",  c #554523",
"<  c #525232",
"1  c #654926",
"2  c #765724",
"3  c #745632",
"4  c #5F6027",
"5  c #656238",
"6  c #6F6B31",
"7  c #38595C",
"8  c #2B4651",
"9  c #3E757F",
"0  c #316773",
"q  c #45555A",
"w  c #7C5F51",
"e  c #586745",
"r  c #53765A",
"t  c #526651",
"y  c #797843",
"u  c #786B55",
"i  c #635F70",
"p  c #446369",
"a  c #577B63",
"s  c #5C6C77",
"d  c #477577",
"f  c #546E73",
"g  c #6D7678",
"h  c #6D737C",
"j  c #834B01",
"k  c #8C4D01",
"l  c #834600",
"z  c #934E00",
"x  c #8B5402",
"c  c #84550C",
"v  c #895705",
"b  c #945302",
"n  c #945B01",
"m  c #9C5C01",
"M  c #925B09",
"N  c #9D5F0A",
"B  c #995912",
"V  c #875017",
"C  c #A25E01",
"Z  c #A85F00",
"A  c #956201",
"S  c #9B6301",
"D  c #99630C",
"F  c #9C6B16",
"G  c #A36201",
"H  c #AA6101",
"J  c #AA6B03",
"K  c #A1630B",
"L  c #A56C0B",
"P  c #A76A08",
"I  c #AB710D",
"U  c #AD6E15",
"Y  c #A56C1A",
"T  c #A36814",
"R  c #B76F13",
"E  c #AF731A",
"W  c #A67119",
"Q  c #B37415",
"!  c #BB7A15",
"~  c #B5791B",
"^  c #BC7B1B",
"/  c #B67618",
"(  c #B97208",
")  c #865930",
"_  c #8A652F",
"`  c #A56924",
"'  c #AB7626",
"]  c #B97A24",
"[  c #B46C20",
"{  c #C47819",
"}  c #C1790D",
"|  c #C27F26",
" . c #937355",
".. c #937D70",
"X. c #469516",
"o. c #2BE40C",
"O. c #42FF26",
"+. c #668B45",
"@. c #57847F",
"#. c #748C6A",
"$. c #77D67C",
"%. c #74CD59",
"&. c #BC831B",
"*. c #BF8321",
"=. c #C2801B",
"-. c #CB851B",
";. c #D48E1F",
":. c #C38322",
">. c #CC8D24",
",. c #CC8B2B",
"<. c #C68626",
"1. c #D38C25",
"2. c #D38D2B",
"3. c #D78927",
"4. c #CE912F",
"5. c #D5932A",
"6. c #DD952D",
"7. c #DB9A2B",
"8. c #D79628",
"9. c #CA8D33",
"0. c #D39331",
"q. c #DC9432",
"w. c #DD9A34",
"e. c #D89637",
"r. c #CF9239",
"t. c #E2992B",
"y. c #E5972C",
"u. c #E39C34",
"i. c #EB9C33",
"p. c #E49D3B",
"a. c #E5983A",
"s. c #D6A13B",
"d. c #EAA12B",
"f. c #E4A134",
"g. c #E3A33A",
"h. c #EBA538",
"j. c #F2A534",
"k. c #F7A93C",
"l. c #F6A12C",
"z. c #878455",
"x. c #998C4B",
"c. c #A0875F",
"v. c #96836F",
"b. c #A38261",
"n. c #D59941",
"m. c #DDA552",
"M. c #EAAB43",
"N. c #F3AD47",
"B. c #F7B446",
"V. c #F6B253",
"C. c #FFC45A",
"Z. c #1E728A",
"A. c #277585",
"S. c #35768B",
"D. c #4D7989",
"F. c #547D8F",
"G. c #677C83",
"H. c #757B8D",
"J. c #827F90",
"K. c #32859B",
"L. c #3B8695",
"P. c #2A8BA8",
"I. c #3291AF",
"U. c #2E90BF",
"Y. c #3597B8",
"T. c #448896",
"R. c #538A91",
"E. c #7E868B",
"W. c #758C9A",
"Q. c #4591A6",
"!. c #2B9CC7",
"~. c #2EA2CC",
"^. c #36A4CB",
"/. c #36A4C8",
"(. c #2DA4D6",
"). c #2EA7DB",
"_. c #2DAADE",
"`. c #2EA8D7",
"'. c #32A5D3",
"]. c #30A9DC",
"[. c #31A6DA",
"{. c #2DAAE2",
"}. c #2FA7E4",
"|. c #30A9E1",
" X c #868689",
".X c #908E99",
"XX c #89989B",
"oX c #98979E",
"OX c #A8958B",
"+X c #AFAC9D",
"@X c #9697A9",
"#X c #8C96A4",
"$X c #9AA2A4",
"%X c #A5A3AB",
"&X c #A9A4AA",
"*X c #AAADB6",
"=X c #B5B4BC",
"-X c #BBB2B7",
";X c #B7ACB4",
":X c #C3B4B9",
">X c #8AE089",
",X c #B9B9C3",
"<X c #C5BFCD",
"1X c #BBC4C3",
"2X c #C9C8C8",
"3X c #D3D3CE",
"4X c #CAD5D9",
"5X c #D4D6D6",
"6X c #CFD3C3",
"7X c #E1DCDA",
"8X c #E0C8D5",
"9X c #DCE1DD",
"0X c #E0E1DC",
"qX c #E2DBE4",
"wX c #E6E9E6",
"eX c #E8E6F4",
"rX c #F5EDFD",
"tX c #EDF4FA",
"yX c #F5FDFC",
"uX c #FDFEFE",
"iX c #D6D4E9",
/* pixels */
"{.{.{.{.{.{.{.{.{.{.{.{.{.{.{.{.{.{.{.{.{.{.{.{.{.{.{.{.{.{.{.{.{.{.{.{.{.{.{.{.{.{.",
"{.{.{.{.{.{.{.{.{.{.{.{.{.{.{.{.{._.{.{.{.{.{.{.{.{.{._.{.{.{.{._.{.{.{.{.{.{.{.{.{.",
"{.{.{.{.{.{.{.{.{.{.{.{.{.{.{.{.{.{.{.{.{.{.{.{.{.{.{.{.{.{.{.{.{.{.{.{.{.{.{._.{.{.",
"{.{.{.{.{.{.{.{.{.{.{.{.{.{.{.{.{.{.{.{.{.{.{.{.{.{.{.{.{.{.{.{.{.{.{._.{.{.{.^.K.!.",
"{.{.{.{.{.{.{.{.{.{._.{.{.{.{.{.{.{.{.{.{.{.{.{.{.{.{.{.{.{.{.{.{.{.{.{._.~.A.G.q !.",
"{.{.{.{.{.{.{.{.{.{.{.{.{.{.{.{.{.{.{.{.{.{.{.{.{.{.{.{.{.{.{.{.{.{._./.9 p @X%Xp ).",
"{.{.{.{.{.{.{.{.{.{.{.{.{.{.{.{.{.{.{.{.{._.{.{.{.{._.{.{.{.{.{.{._.U.0 R.-X8Xi A.{.",
"{.{.{.{.{.{.{._.{.{.{.{.{.{.{.{.{.{.{.{.{.{.{.{.{.{.{.{.{.{.{.{.`.A.s -XwX=Xh 8 ).{.",
"{.{.{.{.{.{.{.{.|.{.{.{._.{.{.{.{.{.{.{.{.|.].)._.{._._._.{._.I.d @X5XqX&X X7 !.{.{.",
"{.{.{.{.{.{.{.{.{.{.{.{.{.{.{.{.{._.(.T.u z.x.x.x.#.#.r #.e   XX4X3X2XoX Xg 0 {.{.{.",
"{.{.{.{.{.{.{.{.{.{.{._._.{._._._.d z.m.V.V.N.k.l.j.g.g.B.t.B  .2X4X.XH. Xp ).}.{.{.",
"_.{.{.{.{._.{.{.{.{.}.{.{.{._.`.5 n.C.B.6.8.3.2.6.3.3.i.f.h.t.o  .*XH..X#.Z.}.{.{.{.",
"{.{.{.{.{.{.{.{.{.{.{.{.{.{.]. .V.N.~ b I 8.i.p.p.g.R l W 6.i.( X < #X@Xq ).{.{.{.{.",
"{.{.{.{.{.{.{.{.{.{.{.{.{._.6 N.h.>.K n &.f.9.] E | a.] z R j.t.G + w s P.|.{.{.{.{.",
"{.{.{.{.{.{.{.{.{.{.{.}.{.e i.t.8.w.0.7.g.:.c # % X B e.6.3.q.5.! S * < {.{.{.{.{.{.",
"{.{.{.{.{.{.{.{.{.{.{.{.d ' j.a.<.,.w.e.9.v & % # . X 9.g.w.D x M n b 4 {.{.|.{.{.{.",
"{.{.{.{.{.{.{.{.{.{._._.2 p.f.F j x <.s.4.M + @ = & W e.>.:.# % & n v r {.{.{.{.{.{.",
"}.{.{.{.{.{.{.{.{.{.{.!.[ k./ = - @ D 8.w.4.F D W ^ 2.R w.9.& @ & P = @.{.|.{.{.{.{.",
"{.{.{.{.{.{.{.{.{.{._.e Q ^ v k + @ P -.q.w.5.{ ! ^ / ,.&.W T T ] I & a {.{.{.{.{.{.",
"{.{.{._._.|.).{.{.T._ s.7.Q l # % M Q -.p.u.i.t.-.{ p.0.j $ &.k.w.G x 4 {.{.{.{.{.{.",
"{.{.{.]././.^.Y.S., e.B.d.>.x X - W { y.3.B ` [ t.j.7.,./ Q 1.u.,.S m ; {.{.{.{.{.{.",
"{.{._.Y.0 7 f H.E.2 &.t.8.w./ D W ~ q.U - b.OXb.c =.f.5.w.u.5.w.:.n m ; {.{.{.{.{.{.",
"{.{.U.F.oX*X*X,X,X_ / u.5.e.g.q.<.6.U 3 2XuXyXyX+X2 ,.8.0.u.w.p.L n S 4 {._.{.{.{.{.",
"{.{._.~.R.#X@X,XiXv.Y d.6.<.D &.g.,.@ :XuXrX9XwXuXOXM h.4.Y T ~ L n n e {.{.{.{.{.{.",
"{.{.{._._.].Y.T.R.t _ l.h.{ $ T h.K _ rXeX9XwX7XyX3XV >.Y $ j x / J j R.(.{.{.{.{.{.",
"{.{.{.{.{.{.{.{._._.a c ! f.<.2.p.C ) 5X>X%.qXeXuX2Xc &.D j & x ^ } : ^._.{.{.{.{.{.",
"{.{.{.{.{.{.{._.{.{.{.~.: e.h.5.w.{ o +.O.o.6XuXuX..# 5.E j $ M 2.K < ].{.{.{.{.{.{.",
"{.{.{.{.{.{.{.{.{.{.{.{.L.F k.y.a.3.k O X.$.rXeXOX. I t.] ' ' r.^ b ; /.{.{.{.{.{.{.",
"{.{.{.{.{.{.{.{.{.{._.{._.t U y.w.w.! v V  ...w X m 6.f./ T ] E M H * R.{.{.{.{.{.{.",
"{.{.{.{.{.{.{.{.{.{.{.{.{.)., b R ~ -.P m z l z S L U K m n n n C k , I.{.{.{.{.{.{.",
"{.{.{.{.{.{.{.{.{.{.{.{._.{.'., k m G S S G G m A A x b C A A J j 3 =XR.`.{.{.{.{.{.",
"{.{.{.{.{.{.{.{._.{.{.{.{.{.}.^.e - n H H H H G m G G G n G J j X &XtXW.`.|.{.{.{.{.",
"{.{.{.{.{.{.{.{.{.{.{.{.{.{.{.{.{.Y.5 c x x n v v v v ; : x j 1  X@X<X,Xd _.{.{.{.{.",
"{.{.{.{.{.{.{.{.{.{.{.{.{.{.{.{.{.{.].^.R.t 5 5 e d I.].].I.L.9 G.J..X7XXXK._.{.{.{.",
"{.{.{.{.{._.{.{.{.{.{.{.{.{.{.{.{.{.{.{._.{.).{.{.{.].{.{.{.{.{./.S.h ;X2X9 ^.].{.{.",
"{.{.{.{.{.{.{.{.{.{.{.{.{._.{.{.{.{.{.{._.{.{.{.{.{.{.|.{.{.{.{.{.}.S.q *X@XQ._.{.{.",
"{.{.{.{.{.{.{.{.{.{.{.{.{.{.{.{.{.{.{.{.{.{.{.{.{.{.{.{.{.{.{.{.{.{._.!.f J.T._.{.{.",
"{.{.{.{.{.{.{.{.{.{.{.{.{.{.{.{.{.{.{.{.{.{.{.{.{.{.{.{.{.{.{.{.{.{.{.{.^.I.Z.|.{.{.",
"{.{.{.{.{.{.{.{.{.{.{.{.{.{.{.{.{.{.{.{.{.{.{.{.{.{.{.{.{.{.{.{.}.{.{.{.{._._.{.{.{.",
"{.{.{.{.{.{.{.{.{.{.{.{.{.{.{.{.{.{.|.|.{.{.{.{._.{.{.|.{.{.{.{.{.{.{.|.{.{.{.{.{.{.",
"{.{.{.{.{.{.{.{.{._.{.{.{.{.{.{.{.{.{.{.{.{.{.{.{.{.{.{.{.{.{.{.{.{.{.{.{.{.{.{.{.{.",
"{.{.{.{.{.{.{.{.{.{.{.{.{.{.{.{.{.{.{.{.{.{.{.{.{.{.{.{._.{.{.{.{.{.{.{.{.{.{.{.{.{."
};
