/* XPM */
static char *bc4352407a984b23d7f7f1bbf3a8866fJSC2Q1sy3UoNe1Zt[] = {
/* columns rows colors chars-per-pixel */
"42 42 212 2 ",
"   c #16373E",
".  c #593506",
"X  c #613B02",
"o  c #693A01",
"O  c #6B3809",
"+  c #763A02",
"@  c #6B3C16",
"#  c #54421A",
"$  c #6C4301",
"%  c #6B4A07",
"&  c #744402",
"*  c #784702",
"=  c #734B02",
"-  c #7B4B00",
";  c #7E4D09",
":  c #785307",
">  c #704211",
",  c #685316",
"<  c #6B4E1C",
"1  c #55562A",
"2  c #595A33",
"3  c #50502F",
"4  c #70482F",
"5  c #645426",
"6  c #77572B",
"7  c #654931",
"8  c #76653F",
"9  c #6E6F3B",
"0  c #2D494C",
"q  c #3D5958",
"w  c #29574C",
"e  c #305B62",
"r  c #3C6E6F",
"t  c #3D7C7B",
"y  c #24696E",
"u  c #4E5D40",
"i  c #445658",
"p  c #57684C",
"a  c #4B6A56",
"s  c #5D6B52",
"d  c #4E745F",
"f  c #557257",
"g  c #636447",
"h  c #776A4B",
"j  c #767040",
"k  c #7D7C50",
"l  c #6D7459",
"z  c #555B62",
"x  c #487D78",
"c  c #517878",
"v  c #4F6B69",
"b  c #62686B",
"n  c #767779",
"m  c #844A01",
"M  c #894D00",
"N  c #844B09",
"B  c #8A5402",
"V  c #8B5901",
"C  c #875608",
"Z  c #935401",
"A  c #9A5501",
"S  c #935A00",
"D  c #9B5B02",
"F  c #945A0B",
"G  c #84551B",
"H  c #8D4F16",
"J  c #A15E00",
"K  c #A15D0A",
"L  c #8F610C",
"P  c #936402",
"I  c #9C6201",
"U  c #9B640A",
"Y  c #9A6709",
"T  c #986515",
"R  c #9A7212",
"E  c #A36301",
"W  c #AB6301",
"Q  c #AA6903",
"!  c #A46D0C",
"~  c #AC6C0B",
"^  c #A4670B",
"/  c #B36D0E",
"(  c #A46E15",
")  c #A56D1B",
"_  c #AC6D1A",
"`  c #AA6914",
"'  c #AB7519",
"]  c #B4731B",
"[  c #B67C1B",
"{  c #BB7B1D",
"}  c #B87514",
"|  c #AE7111",
" . c #885238",
".. c #9C6923",
"X. c #9E7F3E",
"o. c #B77922",
"O. c #A16825",
"+. c #C37D1B",
"@. c #C07716",
"#. c #C77F24",
"$. c #836148",
"%. c #897B63",
"&. c #558E23",
"*. c #3DDA27",
"=. c #2FFC23",
"-. c #778458",
";. c #6FD361",
":. c #7ECD64",
">. c #BB8222",
",. c #BA8328",
"<. c #A5873F",
"1. c #C28219",
"2. c #CD8D1F",
"3. c #D3891D",
"4. c #C48423",
"5. c #CB8729",
"6. c #C98926",
"7. c #D28B24",
"8. c #DA8D23",
"9. c #D38D2B",
"0. c #D08423",
"q. c #CD922C",
"w. c #D59225",
"e. c #D4922C",
"r. c #DA962D",
"t. c #C58B32",
"y. c #D98F32",
"u. c #CC9638",
"i. c #D49437",
"p. c #DB9534",
"a. c #DC9B33",
"s. c #D99538",
"d. c #D79837",
"f. c #E6952B",
"g. c #E59B2A",
"h. c #F29D29",
"j. c #E39B34",
"k. c #E99E3B",
"l. c #E79D37",
"z. c #F29E3C",
"x. c #DFA13C",
"c. c #E8A32A",
"v. c #E3A333",
"b. c #E4A23A",
"n. c #ECA935",
"m. c #F3A23B",
"M. c #F4A93B",
"N. c #8F844E",
"B. c #A78542",
"V. c #988479",
"C. c #A1957F",
"Z. c #A6876A",
"A. c #85A66D",
"S. c #C99448",
"D. c #E79D43",
"F. c #D3A44C",
"G. c #E2AA4A",
"H. c #F3A944",
"J. c #F8B446",
"K. c #FFC054",
"L. c #367B8A",
"P. c #497E86",
"I. c #3B8596",
"U. c #3E878E",
"Y. c #3994A9",
"T. c #3999BB",
"R. c #328EAE",
"E. c #458C97",
"W. c #528496",
"Q. c #6C8A88",
"!. c #5E95A9",
"~. c #78A2B2",
"^. c #2F9FCC",
"/. c #329CC3",
"(. c #2D9FD1",
"). c #33A0C7",
"_. c #34A3CF",
"`. c #2DA4D5",
"'. c #2EA6DB",
"]. c #2DA9DE",
"[. c #30A9DD",
"{. c #32A5D6",
"}. c #2DAAE2",
"|. c #2FA7E4",
" X c #30A9E2",
".X c #409DC6",
"XX c #67ADCB",
"oX c #8F8D9B",
"OX c #918D96",
"+X c #A29393",
"@X c #AFA089",
"#X c #B1AB9B",
"$X c #AF9DA5",
"%X c #9EA1B2",
"&X c #BAB6B9",
"*X c #AAABB0",
"=X c #95CB8D",
"-X c #CAC4CA",
";X c #D3CFCE",
":X c #CFD6DE",
">X c #D8D7D6",
",X c #D2CCDA",
"<X c #ECDCDC",
"1X c #E0E1D9",
"2X c #DBD7E3",
"3X c #DCE9E4",
"4X c #E8E8EB",
"5X c #E9ECF9",
"6X c #F2EFFF",
"7X c #E9F5F7",
"8X c #FEFEFF",
"9X c #F4F6FF",
/* pixels */
"}.}.}.}.}.}.}.}.}.}.}.}.}.}.}.}.}.}.}.}.}.}.}.}.}.}.}.}.}.}.}.}.}.}.}.}.}.}.}.}.}.}.",
"}.}.}.}.}.}.}.}.}.}.}.}.}.}.}.}.}.}.}.}.}.}.}.}.}.}.}.}.}.}.}.}.}.}.}.}.}.}.}.|.}.}.",
"}.}.}.}.}.}.}.}.}.}.}.}.}.}.}.}.}.}.}.}.}.}.}.}.}.}.}.}.}.}.}.}.}.}.].}.}.}.}.}.}.}.",
"}.}.}.}.}.}.}.}.}.].}.}.}.}.}.}.}.}.}.}.}.}.}.}.}.}.}.}.}.}.}.}.}.}.}.|.}.}.}.}.}.}.",
"}.].}.}.}.}.}.}.}.}.}.}.}.}.}.}.}.}.}.}.}.}.}.}.}.}.}.}.}.}.}.}.|.}.}.}.}.].}.}.}.}.",
"}.}.}.}.}.}.}.}.}.}.}.}.}.}.}.}.}.}.}.}.}.}.}.}.}.}.}.}.}.}.].}.}.].|.}.}.(.L.}.}.}.",
"}.}.}.}.}.}.}.}.}.}.}.}.}.}.}.}.}.}.}.}.}.}.}.].}.}.}.}.}.}.}.}.}.}.|.}.}.x 0 '.}.}.",
"}.}.}.}.}.}.}.}.}.}.}.}.}.}.}.}.].}.}.}.}.].].}.}.}.}.}.}.}.}.}.}.}.].`.!.oXq }.}.}.",
"}.}.}.}. X}.}.}.].}.}.}.].}.}.}.}.}.}.].]./.r E.I.'. X}.|. X X X|.(.P.%X:Xb y }.}.}.",
"}.}.}.}.}.}.}.}.|.}.}.}.}.}.}.}.}.].{.E.l N.<.<.<.<.9 f -.9 c )./.%X:X-Xn w '.}.}.}.",
"}.}.}.}.}.}.}.}.}.}.}.}.}.}.}.].}.Y.-.F.M.J.H.M.n.M.D.G.J.c.P # -X6X$X+Xq }.|.}.}.}.",
"}.}.}.}.}.}.}.}.}.}.|.}.}.}.}.].p S.K.J.v.2.3.3.8.8.3.j.c.c.c.F $.$XoXP.T.|.}.}.}.}.",
"}.}.}.}.}.}.}.}.}.].}.}.}.}.'.h G.J.{ S ! e.j.b.k.m.} m ! 9.k.} + 7 OXL.}.}.}.}.}.}.",
"}.}.}.}.}.}.}.}.}.}.}.}.}.].8 H.v.7.^ D >.v.i.o.] >.a.+.Z | H.k.~ - # (.}.}.}.}.}.}.",
"}.}.}.}.}.}.}.}.}.}.}.}.}.c s.h.w.i.y.f.v.t.C & * o C j.p.5.i.y.{ I = Y.}.].}.}.}.}.",
"}.}.}.}.}.}.}.].}.}.}.}.^.R m.f.3.7.j.g.q.S - * = . . 6.j.j.` C F D I 2 }.}.}.}.}.}.",
"}.}.}.].}.}.}.}.}.}.}. Xg f.j._ M V 6.j.i.L = $ = * ` s.7.6.- = - S F p ].].}.}.}.}.",
"}.}.}.}.}.|.}.}.}.}.}.Y.O.M.{ C = X U p.G.u.R L T { 5.} p.q.m $ * ^ M E.|.}.}.}.}.}.",
"}.}.].}.}.}.}.}.}.}.[.2 / +.V C % % U 5.s.r.w.4.#.{ | 6.4.( ( ( [ ~ V L.}.}.].}.}.}.",
"}.}.}.}.}.}.}.}.}.[.9 u.j.@.m $ * F ! 1.a.g.g.j.3.#.D.i.M & [ M.l.Q V u }.}.}.}.}.}.",
"}.}.}.}.|. X|.'.`.i t.J.D.i.V . & ) } g.w.R T ' f.m.p.e.] ] 9.l.e.I V 5 '.}.}.}.}.}.",
"}.}.}.}.|..Xr v b 2 { f.9.d.,.T ..' r.4.H Z.@XZ.G } j.9.j.j.r.j.6.D D 5 `.}.}.}.}.}.",
"}.}.}.}.  z +X&X,X%.E c.q.u.x.s.t.e.o.% A.4X8X8X&X< 1.j.a.s.p.v.| Z D 2 ].}.}.}.}.}.",
"}.}.}.}./.{.{..XXXl Q c.a.t.^ [ k.j.N &.=.;.>X5X8X#XG l.r.( T o.| J V d }.}.}.}.}.}.",
"}.}.}.}.}.}.}.}.}.I.T h.n.6.M ^ n./  .=X*.:.1X3X7X3X8 0./ * ; N o.] M E.'.}.}.}.}.}.",
"}.}.}.}.}.}.}.}.}.}.s : ' g.0.5.j.^ 4 2X4X<X4X2X9X>X6 @.K * = - _ #.* {.}.}.}.}.}.}.",
"}.}.}.}.}.}.}.}.}.}.}.`.2 5.m.y.j.@.o V.8X8X4X9X8X+X$ 9.o.m m C q.` < [.}.}.].}.}.}.",
"}.}.}.}.}.}.}.}.}.}.}.}.`.T m.j.a.2.V X +X4X7X5X$X+ Q j.#._ ] q.>.A ; _.|.}.|.}.}.}.",
"}.}.}.}.}.}.}.}.}.}.}.}.].a ^ f.r.x.1.V > h %.h @ Z w.x.] ^ o.] A J B /.}.].].}.}.}.",
"}.}.}.}.}.}.}.}.}.}.}.|.}.].1 B | 1.7.| D M m m V ! ! Y U D Z Z W M 1  X}.}.|.}.}.}.",
"}.}.}.}.}.}.}.}.}.}.}.}.}.}.[.3 M J D I P I E J I P V V I D D Q M 6 P.}.}.}.}.}.}.}.",
"}.}.}.}.}.}.}.}.}.}.].}.}.}.|.].f , V E Q J E E I Q Q I D W W A < *XXX].}.}.}.].}.}.",
"}.}.}.}.}.}.}.}.}.}.}.}.}.}.}.}.}./.2 : V S S D V V V : , : F . b %X>XW.|.].}.}.}.}.",
"}.}.}.}.}.}.}.}.}.].}.}.}.}.}.}.}.}. X}.Y.x s g p d x ].}.`.Y.].I.z $X&X^.}.}.}.}.}.",
"}.}.}.}.}.}.}.}.}.}.}.}.}.}.}.}.}.}.}.}.].}.].[.[.}.}.}.}.}.}.}.}.].e OXQ.}.}.}.}.}.",
"}.}.}.}.}.}.}.}.}.}.}.}.}.}.}.}.}.}.}.}.|.|.}.}.}.}.].}.}.}.}.}.].}.}.x w '.}.}.}.}.",
"].}.}.}.}.}.}.}.}.}.}.}.}.}.}.}.}.}.}.}.}.}.}.}.}.|.}.}.}.}.}.}.}.}.}.}.].`.}.}.}.}.",
"}.}.}.}.}.}.}.}.}.}.}.}.}.}.}.}.}.}.}.}.}.}.}.|.}.}.}.}.}.}.}.}.}.}.}.}.}.}.}.}.}.}.",
"}.}.}.}.}.}.}.}.}.}.}.}.}.}.}.}.}.}.}.}.}.}.}.}.}.}.].}.}.}.}.}.}.}.}.}.}.}.}.|.}.}.",
"}.}.}.}.}.}.}.}.}.}.}.}.}.].|.}.}.}.}.|.}.}.}.}.}.}.}.}.}.}.}.}.}. X}.}.}.}.}.}.}.}.",
"}.|.}.}.}.}.}.}.}.}.}.}.}.}.}.}.}.}.}.}.}.}.}.}.}.}.].}.}.}.}.}.}.}.}.}.}.}.}.}.}.}.",
"}.}.}.}.}.}.}.}.}.}.}.}.}.}.].}.}.}.}.}.}.}.}.}.}.}.}.}.}.}.}.}.}.}.}.}.}.}.}.}.}.}."
};
