/* XPM */
static char *_471b3b60df24b7687c6ad2b62f897edteTrwwWq7P3v1JfE[] = {
/* columns rows colors chars-per-pixel */
"42 42 214 2 ",
"   c #27383F",
".  c #5C2B00",
"X  c #5D3E06",
"o  c #6C3C02",
"O  c #653A02",
"+  c #733D01",
"@  c #663C14",
"#  c #6D4502",
"$  c #64440A",
"%  c #744402",
"&  c #794402",
"*  c #754C02",
"=  c #7C4B02",
"-  c #79530A",
";  c #684715",
":  c #6E5C1B",
">  c #6D5211",
",  c #495338",
"<  c #625629",
"1  c #675625",
"2  c #75512D",
"3  c #765D3B",
"4  c #6E4527",
"5  c #4F643B",
"6  c #2D3C43",
"7  c #1E5155",
"8  c #214C52",
"9  c #226264",
"0  c #3D6964",
"q  c #48545A",
"w  c #5A664A",
"e  c #476659",
"r  c #506C55",
"t  c #4B735B",
"y  c #63684A",
"u  c #7B6E42",
"i  c #74784A",
"p  c #6D7154",
"a  c #425F63",
"s  c #48766B",
"d  c #567869",
"f  c #487A78",
"g  c #536E67",
"h  c #6B7471",
"j  c #854700",
"k  c #844D02",
"l  c #8A4E02",
"z  c #844F09",
"x  c #855403",
"c  c #8C5501",
"v  c #8C5A01",
"b  c #895809",
"n  c #925601",
"m  c #9A5301",
"M  c #945B02",
"N  c #9B5C01",
"B  c #945609",
"V  c #9A5A0C",
"C  c #8B5E1D",
"Z  c #975F1A",
"A  c #A55D00",
"S  c #A65B05",
"D  c #8F6207",
"F  c #9D6101",
"G  c #99640A",
"H  c #9C6514",
"J  c #986A1A",
"K  c #85601A",
"L  c #A56103",
"P  c #AC6202",
"I  c #A4650D",
"U  c #A46F0C",
"Y  c #AA6D0B",
"T  c #A96D03",
"R  c #B16801",
"E  c #B5760E",
"W  c #AD6D12",
"Q  c #A26C1C",
"!  c #A66916",
"~  c #AD741B",
"^  c #AA7516",
"/  c #B37413",
"(  c #BB7513",
")  c #B3741C",
"_  c #B57D1A",
"`  c #BA7C19",
"'  c #B97817",
"]  c #A5740B",
"[  c #875D23",
"{  c #816323",
"}  c #8B773C",
"|  c #AE7122",
" . c #AD712B",
".. c #B77B24",
"X. c #B97724",
"o. c #A87C31",
"O. c #C77C1A",
"+. c #C87925",
"@. c #A44B45",
"#. c #987D4D",
"$. c #877762",
"%. c #9D6C72",
"&. c #817372",
"*. c #40D41E",
"=. c #55FF3E",
"-. c #7D8053",
";. c #7EAF5E",
":. c #49807D",
">. c #558A7B",
",. c #7BB96C",
"<. c #6CD74B",
"1. c #BC811C",
"2. c #BE881C",
"3. c #BA8021",
"4. c #BF8C2E",
"5. c #C4811C",
"6. c #C98519",
"7. c #D68C1E",
"8. c #CB8524",
"9. c #C58A24",
"0. c #CD8A25",
"q. c #CB8D2A",
"w. c #C78626",
"e. c #DC8B24",
"r. c #D38C2D",
"t. c #D68A28",
"y. c #D4942B",
"u. c #DD952C",
"i. c #DB9A2B",
"p. c #D89424",
"a. c #CB8E35",
"s. c #D48C35",
"d. c #C4943A",
"f. c #D39532",
"g. c #DC9332",
"h. c #D59B32",
"j. c #DB9D32",
"k. c #DC9A39",
"l. c #DA9538",
"z. c #E3992E",
"x. c #E9992C",
"c. c #E59531",
"v. c #E39B34",
"b. c #EA9A33",
"n. c #E49B3A",
"m. c #E6993B",
"M. c #F69F2B",
"N. c #DEA237",
"B. c #D9A12A",
"V. c #E3A12B",
"C. c #EFA32B",
"Z. c #EBA133",
"A. c #E4A239",
"S. c #E6A535",
"D. c #F3A134",
"F. c #FBA73C",
"G. c #F1A73C",
"H. c #FBA52C",
"J. c #9A854C",
"K. c #A88B48",
"L. c #968170",
"P. c #A7917A",
"I. c #C99655",
"U. c #D5A948",
"Y. c #E9A142",
"T. c #F4AA47",
"R. c #FEB74A",
"E. c #FEBE52",
"W. c #3C7F92",
"Q. c #308196",
"!. c #3A8185",
"~. c #3597B6",
"^. c #389AB9",
"/. c #338EAD",
"(. c #3DA1B8",
"). c #478586",
"_. c #418391",
"`. c #538E8A",
"'. c #708A90",
"]. c #4493B5",
"[. c #5498AF",
"{. c #2C99C6",
"}. c #379CC6",
"|. c #31A0CB",
" X c #2FA4D6",
".X c #2EA6DA",
"XX c #2DAADE",
"oX c #32A9DB",
"OX c #33A7D6",
"+X c #2DAAE2",
"@X c #30A9E1",
"#X c #999391",
"$X c #8E9A9A",
"%X c #B69F96",
"&X c #8F90A6",
"*X c #ADAFA4",
"=X c #ACAAAE",
"-X c #BBEAB4",
";X c #B7D0B3",
":X c #C6C2BF",
">X c #C4EBBF",
",X c #CECECE",
"<X c #D6C2CE",
"1X c #D4C7D8",
"2X c #D4E3CF",
"3X c #F2DEEA",
"4X c #E8E7E5",
"5X c #FAE7F9",
"6X c #E6F4F6",
"7X c #F5F6FB",
"8X c #F6FFFC",
"9X c #FEFEFE",
"0X c #FFF1FF",
"qX c #F0E7E8",
/* pixels */
"+X+X+X+X+X+X+X+X+X+X+X+X+X+X+X+X+X+X+X+X+X+X+X+X+X+X+X+X+X@X+X+X+X+X+X+X+X+X+X+X+X+X",
"+X+X+X+X+X+X+X+X+X+X+X+X+X+X+X+X+X+X+X+X+X+X+X+X+X+X+X+X+X+X+X+X+X+X+X+X+X+X+X+X+X+X",
"+X+X+X+X+X+X+X+X+X+X+X+X+X+X+X+X+X+X+X+X+X+X+X+X+X+X+X+X+X+X+X+X+X+X+X+X+X+X+X+X+X+X",
"+X+X+X+X+X+X+X+X+X+X+X+X+X+X+X+X+X+X+X+X+X+X+X+X+X+X+X+X+X+X+X+X+X+X+X+X+X+X+X+X+X+X",
"+X+X+X+X+X+X+X+X+X+X+X+X+X+X+X+X+X+X+X+X+X+X+X+X+X+X+X+X+X+X+X+X+X+X+X+X+X+X+X+X+X+X",
"+X+X+X+X+X+X+X+X+X+X+X+X+X+X+X+X+X+X+X+X+X+X+X+X+X+X+X+X+X+X+X+X+X+X+X+X+X+X+X+X+X+X",
"+X+X+X+X+X+X+XXX+X+X+X+X+X+X+X+X+X+X+X+X+X+X+X+X+X+X+X+X+X+X+X+X+X+X+X+X+X+X+X+X+X+X",
"+X+X+X+X+X+X+X+X+X+X+X+X+X+X+X+X+X+X+X+X+X.X+X+X+X+X+XXX+X+X+X+X+X+X+XW.9 +X+X+X+X+X",
"+X+X+X+X+X+X+X+X+X+X+X+X+X+X+X+X+X+X@X@X+XXX X X.XXX@X@XoXXX+X+X.X@X].6 7 +X+X+X+X+X",
"+X+X+X+X+X+X+X+X+X+X@X+X+X+X+X+X+X}.g r i J.K.K.#.i t i } f +XXX{.`.#Xq .X+X+X+X+X+X",
"+X+X+XXX+X+X+X+X+X+X+X+X+X+X+X+X^.u I.T.T.T.T.F.D.Y.m.R.T.) 0 !.=X1Xh  X+X+X+X+X+X+X",
"+X+X+X+X+X+X+XXX+X+XXX+X+X+X+X).d.E.R.D.e.t.t.e.e.7.v.m.u.G.l 2 <X&X{.XX+X+X+X+X+X+X",
"@X+X+X+X+X+X+X+X+X+X+X+X+X.Xy U.E.r.m L y.z.b.j.G.6.k H 0.v.5.j 4 a XX+X+X+X+X+X+X+X",
"+X+X+X+X+X+X+X+X+X+X+X+XXXy A.G.t.W B ) A.l.1./ _ h.5.M Y j.S.E % , +X+X+X+X+X@X+X+X",
"+X+X+X+X+X+X+X+X+X+X+X+Xs a.H.u.j.f.i.n.r.b # * # z u.z.q.f.y.` T x _.+X+X+X+X+X+X+X",
"+X+X+X+X+X+X+X+X@X+X+X+XJ D.c.0.q.h.j.l.V = * * O . ` m.k.| n M N L < .X+X+X+X+X+X+X",
"XX+X+X+X+X+X+XXX+X+X+Xf 7.F...= = 3.B.j.! % % = = H a.r.s.z % & M N r +X+X+X+X+X+X+X",
"+X+X+X+X+X+X+X+X+X+X.XC F.8.z - X b 0.S.h.W M H Q a.X.l.n.B o & I v 5 OX+X+X+X+X+X+X",
"+X+X+X+X+X+X+X+X+X+Xt L O.B k * # D 1.h.p.p.O.) 1.E 9.q.^ U Q ..W v s OX@X+X+X+X+X+X",
"+X+X+X+X+X+X+X+X X>.d.m.O.z % & x W 1.j.V.x.z.8.1.i.j.n % ~ T.S.Y c t .X+X+X+X+X+X+X",
"+X+X+X@X+X+X+X+X/. .R.Y.v.M o + ! ) p.y.Y J  .m.D.i.r.X.~ s.n.g.I m : >.+X+X+X+X+X+X",
"+X+X+XXX+X^.}.].q ) b.s.u.+.J Q ) y.3.* #.%XP.[ ( b.g.k.v.g.z.r.N N 1 >.XX+X+X+X+X+X",
"+X+X+X@X+X8 6 &X&.H b.r.y.n.k.q.r.w.; *X9X7X-X,.> O.c.y.N.u.Z.` n N < `.+X+X+X+X+X+X",
"+X+X+X+X+X+X.X@X0 Q M.c.r.I ~ B.V.k P.9X0X;X*.=.;.@.g.i.| ! ..W M F w (.+X+X+X+X+X+X",
"+X+X+X+X+X+X+X+XXX{ x.D.r.l n Z.6.; ,X7X3X2X<.<.>X%.+./ & x = ~ ( n 5 +X+X+X+X+X+X+X",
"+X+X+X+X+X+X+X+X+X).- ! i.7.q.m.E o :X8X2X4X3X5XqX3 ) I & % * U 6.= ^.XX+X+X+X+X+X+X",
"+X+X+X+XXX+X+X+X+X+X+X!.2.C.u.j.5.+ $.9X8XqX0X9X%Xo 9.3.z % = 4./ $ OX+X+X+X+X+X+X+X",
"+X+X+X+X+X+X+X+X+X+X+X+XC V.V.i.f.D $ %.4X6X6X*X; m u.1.) ) d.q.N v ^.@X+X@X+X+X+X+X",
"+X+X+X+X@X+X+X+X+XXX+X+Xf H p.y.A.9.M # 3 $.p ; x 0.N.` V ) _ N P m /.+X+X+X+X+X+X+X",
"+X+X+X+X+X+X+X+X+X+X+X+XoXe j T ` w.E M x & j M ] ] G D F v M L n 1 OXXX+X+X+X+X+X+X",
"+X+X+X+X+X+X+X+X@X+X+X+X+X+Xt j S A N F F F F N F n c F F F T F X W.+X+X+X+X+X+X+X+X",
"+X+X+X+X+X+X+X+X+X+X+X+X+X+XXX:.; x N L L F F F P P L N S R c $ #X[.+X+X+X+X+X+X+X+X",
"+X+X+XXX+X+X+X+X+X+X+X+X+X+X@X+XOXg : x c M n n c c : < > v < a '.$X).+X+X+X+X+X+X+X",
"+X+X+X+X+X+X+X+X+X+X+XXX+X+X+X+X+X+XoX~.f w y w s ^.XX+XXX|.+X+X@X_.~.+X+X+X+X+X+X+X",
"+X+X+X+X+X+X+X+X+X+X+X+X+X+X+X+X+X+X@X+X@X@XOXoX+X+X+X+X+X+X+X+X+X+X|.+X+X+X+X+X+X+X",
"+X+X+X+X+X+X+X+X+X+X+X+X+X+X+X+X+X+X+X+X@X+X+X+X+X+X+XoX+X+X+X+XXX+X+X+X+XXX+X+X+X+X",
"+X+X+X+X+X+X+X+X+X+X+X+X+X+X+X+X+X+X+X+X@X+X+X+X+X+X+X+X+X+X+X+X+X+X+X+X+X+X+X+X+X+X",
"+X+X@X+X+X+X+X+X+X+X+X+X+X+X+X+X+X+X+X+X+X+X+X+X+X+X+X+X+X+X+X+X+X+X+X+X+X+X+X+X+X+X",
"+X+X+X+X+X+X+XXX+X+XXX+X+X+X+X+X+X+X@X+X+X+X+X+X+X+X+X+X+X+X+X+X+X+X+X+X+X+X+X+X+X+X",
"+X+X+X+X+X+X+X+X+X+X+X+X+X+X+X+X+X+X+X+X+X+X+X+XXX+X+X+X+X+X+X+X+X+X+X+X+X+X+X+X+X+X",
"+X+X+XXX+X+X+X@X+X+X+X+X+X+X+X+X+X+X+X+X+XXX+X+X+X+X+X+X+X+X+X+X+X+X+X+X+X+X+X+X+X+X",
"+X+X+X+X+X+X+X+X+X+X+X+X+X+X+X+X+X+X+X+X+X+X+X+X+X+X+X+X+X+X+X+X+X+X+X+X+X+X+X+X+X+X"
};
