/* XPM */
static char *c11e4c2554664b10854591a416a448a7pchb7keqmw1MfyA6[] = {
/* columns rows colors chars-per-pixel */
"42 42 207 2 ",
"   c #592D00",
".  c #533B15",
"X  c #643904",
"o  c #6C3D00",
"O  c #753B04",
"+  c #574A1E",
"@  c #6C4202",
"#  c #744402",
"$  c #7A4500",
"%  c #744C03",
"&  c #7C4B01",
"*  c #734C0B",
"=  c #7F4E0B",
"-  c #7C5203",
";  c #74520B",
":  c #7D540C",
">  c #745407",
",  c #694615",
"<  c #6B561C",
"1  c #75591B",
"2  c #734217",
"3  c #4E5C35",
"4  c #5C5D39",
"5  c #514826",
"6  c #7E4F21",
"7  c #6E5F34",
"8  c #725B33",
"9  c #655823",
"0  c #48643B",
"q  c #766729",
"w  c #616034",
"e  c #7B633D",
"r  c #183E41",
"t  c #35585C",
"y  c #2D5D6B",
"u  c #306269",
"i  c #3D7678",
"p  c #4B5E48",
"a  c #4A6A49",
"s  c #5A694F",
"d  c #54694B",
"f  c #4B704F",
"g  c #546952",
"h  c #467258",
"j  c #4C6A52",
"k  c #616641",
"l  c #70704C",
"z  c #716F45",
"x  c #416B61",
"c  c #4D7A6D",
"v  c #497C75",
"b  c #824C01",
"n  c #8D4B01",
"m  c #844704",
"M  c #944D00",
"N  c #855501",
"B  c #8B5501",
"V  c #8D5903",
"C  c #89580A",
"Z  c #925500",
"A  c #995702",
"S  c #935B02",
"D  c #9C5C02",
"F  c #9B5F0D",
"G  c #925C0D",
"H  c #885417",
"J  c #A45C01",
"K  c #AA5F02",
"L  c #966200",
"P  c #9C6303",
"I  c #94610E",
"U  c #9D630A",
"Y  c #9F680D",
"T  c #9A6615",
"R  c #8D631B",
"E  c #A46202",
"W  c #AA6200",
"Q  c #A46D0D",
"!  c #AD6B0C",
"~  c #A56705",
"^  c #B16503",
"/  c #A36712",
"(  c #A36B11",
")  c #AD6D15",
"_  c #AA6F1D",
"`  c #B16F1D",
"'  c #B76E15",
"]  c #AD7414",
"[  c #AB731B",
"{  c #AC771B",
"}  c #BD7413",
"|  c #B47D1D",
" . c #BD7B1B",
".. c #B97915",
"X. c #B6770E",
"o. c #95742F",
"O. c #91793D",
"+. c #8E7030",
"@. c #B47C21",
"#. c #BE7E23",
"$. c #B67728",
"%. c #A56F23",
"&. c #C67A1A",
"*. c #CA7D23",
"=. c #897A49",
"-. c #947E42",
";. c #827A55",
":. c #8D6860",
">. c #9E7973",
",. c #22EC1C",
"<. c #3BD72B",
"1. c #4FCE3F",
"2. c #688267",
"3. c #75E46C",
"4. c #BD811B",
"5. c #A3843F",
"6. c #BB8326",
"7. c #C9861C",
"8. c #D3881C",
"9. c #C38322",
"0. c #CB8A23",
"q. c #C5862C",
"w. c #CB8D2B",
"e. c #CA8725",
"r. c #D48D24",
"t. c #D38C2C",
"y. c #D98F2A",
"u. c #D69025",
"i. c #DB9424",
"p. c #D4952C",
"a. c #DB942D",
"s. c #DE9B2B",
"d. c #CC8D34",
"f. c #D59531",
"g. c #DB9632",
"h. c #DC9B33",
"j. c #D59A3B",
"k. c #DA9839",
"l. c #CB983C",
"z. c #E49D25",
"x. c #E5962C",
"c. c #E39C2C",
"v. c #EA9629",
"b. c #E29D34",
"n. c #EB9B36",
"m. c #E59D3B",
"M. c #E49837",
"N. c #F69E30",
"B. c #DAA13A",
"V. c #E8A12C",
"C. c #E4A231",
"Z. c #ECA532",
"A. c #E9A23B",
"S. c #E3A23A",
"D. c #F6AA3D",
"F. c #F6A639",
"G. c #F6B43A",
"H. c #9A805F",
"J. c #878747",
"K. c #A18345",
"L. c #9D9276",
"P. c #A68C7B",
"I. c #E99C40",
"U. c #D7A44C",
"Y. c #E6A442",
"T. c #F7A842",
"R. c #F4B145",
"E. c #F0B750",
"W. c #FFC652",
"Q. c #1D7B97",
"!. c #2F7D8E",
"~. c #487F84",
"^. c #3E8489",
"/. c #3B8998",
"(. c #37939D",
"). c #388FA0",
"_. c #3693A7",
"`. c #3897B3",
"'. c #40828D",
"]. c #4D8582",
"[. c #468B94",
"{. c #4294A2",
"}. c #33A2CB",
"|. c #2DAADE",
" X c #2EA5D6",
".X c #31A9DC",
"XX c #32A6D5",
"oX c #2DAAE2",
"OX c #30A9E2",
"+X c #B49F9E",
"@X c #ABA197",
"#X c #ADA2A0",
"$X c #BEA3AC",
"%X c #A6D2A1",
"&X c #B3D2A8",
"*X c #C5C2BB",
"=X c #CBBCC1",
"-X c #DFE2D9",
";X c #C4E9C7",
":X c #E5DEE5",
">X c #E9E4E8",
",X c #E9E7F1",
"<X c #FDE3F5",
"1X c #FCFDFE",
"2X c #F6F8FC",
"3X c #F1E2E9",
"4X c #D1D3D0",
/* pixels */
"oXoXoXoXoXoXoXoXoXoXoXoXoXoXoXoXoXoXoXoXoXoXoXoXoXoXoXoXoXoXoXoXoXoXoXoXoXoXoXoXoXoX",
"oXoXoXoXoXoXoXoXoXoXoXoXoXoXoXoXoXoXoXoXoXoXoX|.oXoXoXoXoXoXoXoXoXoXoXoXoXoXoXoXoXoX",
"oXoXoXoXoXoXoXoXOXOXoXoXoXoXoXoXoXoXoXoXoXoXoXoXoXoXoXoXoXoXoXoXoXoXoXoXoXoXoXoXoXoX",
"oXoXoXoXoXoXoXoXoXoXoXoXoXoXoXoXoXoXoXoXoXoXoXoXoXoXoXoXoXoXoXoXoXoXoXoXoXoXoXoXoXoX",
"oXoX|.oXoXoXoXoXoXoXoXoXoXoXoXoXoXoXoXoXoXoXoXoXoXoXoXoXoXoXoXoXoXoXoXoXoXoXoXoXoXoX",
"oXoXoXoXoXoXoXoXoXoXoXoXoXoXoXoXoXoXoXoXoXoXoXoXoXoXoXoXoXoXoXoXoXoXoXoXoXoXoXoXoXoX",
"oXoXoXoXoXoXoXoXoXoXoXoXoXoXoXoXoXoXoXoXoXoXoXoXoXoXoXoXoXoXoXoXoXoXoXoXoXoXoXoXoXoX",
"oXoXoXoXoXoXoXoXoXoXoXoXoXoXoXoXoXoXoXoXoXoXoXoXoXoXoXoXoXoX|.oXoXoXoXoXoXoXoXoXoX|.",
"oXoXoXoXoXoXoXoXoXoXoXoXoXoXoXoXoXoXoXoX/.v i i _.oXoX`.(.|.oXoX.XoXoXoXoXoXoXoXoXoX",
"oXoXoXoXoXoXoXoXOXoXoXoXoXoXoXoXoX|.2.l -.5.5.5.O.l 2.J.q [.oXoX.X[.^..XoXoXoXoXoXoX",
"oXoXoXoXoXoXoXoXoXoXoXoX|.OXOX Xp 2.U.T.T.D.D.D.A.m.k.R.x.R f oX!.r !.XXoXoXoXoXoXoX",
"oXoXoXoXoXoXoXoXoXoXoXoXOXOX!.+.B.W.G.x.r.r.r.y.y.r.C.z.c.a.& j t y XXoXoXoXoXoXoXoX",
"oXoXoXoXoXoXoXoXOXoXoXoXoXj o.E.R.{ V ] M.M.m.m.m.) & { g.M.! b 3 `.OXOXoXoXOXoXoXoX",
"oXoXoXoXoXoXoXoXoXoX|.|.u +.R.b.9.U D 0.Y.d.$.` q.k...Z | Y.i.W * ].OXoX|.oXoXoXoXoX",
"oXoXoXoX|.oXoXoXOXoXoX|.8 C.z.i.k.u.v.b.@.- o & o / m.p.w.f.r.' J * v oXoXoXoXoXoXoX",
"oXoXoXoXoXoXoXoXoXoXoXj ..Z.i.8.a.h.b.q.N > & *   O p.m.g.F V G E V 0 oXoXoXoXoXoXoX",
"oXoXoXoXoXoXoXoXOXoX|.q Z.x.( b A e.h.d.C # # N b $.0.r.&.O # b J - h oXoXoXoXoXoXoX",
"oXoXoXoXoXoXoXoXoXOXd $.T.` : % o ( f.m.w.T I ( 6.q.&.m.q.$ # N ~ :  X|.oXoXoXoXoXoX",
"oXoXoXoXoX|.oXoXoXoX9 } &.M : @ # Q w.h.s.u.7.} ..} 0.#._ [ [ | ~ - ^.|.oXoXoXoXoXoX",
"oXoXoXoXoXoXoXoX|.O.j.a.` # % # I ] 0.b.s.z.i.7.e.I.d.b $ 9.R.p.E N g |.oXoXoXoXoXoX",
"oXoXoXoXoXoXoXoXa p.G.A.w.> X : [ &.z.*.%.%.{ v.n.k.w.{ | y.b.7.E N s oXoXoXoXoXoXoX",
"oXoXoX|.oX|.oX(.3 7.v.a.B.{ I %. .h./ 6 P.@XH.H 0.z.p.h.h.i.s.7.S B s |.oXoXoXoXoXoX",
"oXoXoXoXoXoXoXQ.5 p.c.w.p.C.p.7.i./ 8 4X2X2X2X#X: u.s.j.B.h.s.U D B g oXoXoXoXoXoXoX",
"oXoXoXoXoXoXoXoX_.7.V.p.9.Y 4.n.w., *X1X>X:X,X1XL.G C.w.T T 4.( D B /.oXoXoXoXoXoXoX",
"oXoXoXoXoXoXoXoX X( F.F.&.# ) A.J z ,X3X3X<X<X1X*X1 8.Y % - B #.W :  XoXoXoXoXoXoXoX",
"oXoXoXoXoXoXoXoXoXk C *.m.*.f.M.D 8 >X2X3X&X%X2X=XH &.S % % N  ..., OXOXoXoXoXoXoXoX",
"oXoXoXoXoXoXoXoXoXoX}.< n.b.k.M.! X +X1X-X<.,.;X>.m g.%.& $ T d.D 7 oXoXoXOXoXoXoXoX",
"oXoXoXoXoXoXoXoXoXoXoX^.) F.x.h.e.b , $X,X3.1.;.O  .x.#.[ @.l.{ Z < |.oXoXoXoXoXoXoX",
"oXoXoXoXoXoXoXoXoXoXoXoX4 ] i.h.b...N 2 :.=.1 # U s.b.) / @.( V E > |.oXoXoXoXoXoXoX",
"oXoXoXoXoXoXoXoXoXoXoXoXoX+ S X.&.7.Q S n n Z P Q ] P P S N V W N c |.oXoXoXoXoXoXoX",
"oXoXoXoXoXoXoXoXoXoXoXoXoX.X+ M J D E L J W E P S V S D L L W M d |.oXoXoXoX|.oXoXoX",
"oXoXoXoXoXoXoXoXoXoXoXoXoXoX Xd ; B E E W K J J E W J A E ~ B . y oXoXoXoXoXoXoXoXoX",
"oXoXoXoXoXoX|.oXoXoXoXoXoXoXoXoX}.w - B V C V B B N * < - - ].{./.oXoXoXoXoXoXoXoXoX",
"oXoXoXoXoXoXoXoXoXoXoXoXoXoXoXoXoXOXXXh d s [.[.d `.oX|.).c oXoX|.oXoXoXoXoXoXoXoXoX",
"oXoXoXoXoXoXoXoXoXoXoXoXoXoXoXoXoXoXoXoXoXoXoXoXoXoXOXoXoXoXoXoXoXoXoXoXoXoXoXoXoXoX",
"oXoXoXoXoXoXoXoXoXoXoXoXoXoXoXoXoXoXoXoXoXoXoXoXoXoXoXoXoXoXoXoXoXoXoX|.oXoXoXoXoXoX",
"oXoXoXoXoXoXoXoXoXoXoXoXoXoXoXoXoXoXoXoXoXoXoXoXoXOXoXoXoXoXoXoXoXoXoXoXoXoXoXoXoXoX",
"oXoXoXoXoXoXoXoXoXoXoXoXoXoXoXoXoXoXoXoXoX|.oXoXoXoXoXoXoXoXoXoXoXoXoXoXoXoXoXoXoXoX",
"oXoXoXoXoXoXoXoXoXoXoXoXoXoXoX|.oXOXoXoXoXoXoXoXoXoXoXoXoXoXoXoXoXoXoXoXoXoXoXoXoXoX",
"oXoXoXoXoXoXoXoXoXoXoXoXoXoXoXoXoXoXoX|.oXoXoXoXoXoXoXoXoXoXoXoXoXoXoXoXoXoXoXoXoXoX",
"oXoXoXoXoXoXoXoXoXoXoXoXoXoXoXoXoXoXoXoXoXoXoXoXoXoXoXoXoXoXoXoXoXoXoXoXoXoXoXoXoXoX",
"oXoXoXoX|.oXoXoXoXoXoXoXoXoXoXoXoXoXoXoXoXoXoXoXoXoXoXoXoXoXoXoXoXoXoXoXoXoXoXoXoXoX"
};
