/* XPM */
static char *c1ccf1111572454685b7e7aa2560049eiswWs67KqGDrAmMl[] = {
/* columns rows colors chars-per-pixel */
"42 42 206 2 ",
"   c #2C373D",
".  c #5B3201",
"X  c #5E3E01",
"o  c #6C3101",
"O  c #683701",
"+  c #733D00",
"@  c #613F12",
"#  c #59531B",
"$  c #6B4102",
"%  c #6E4B00",
"&  c #744301",
"*  c #7E4400",
"=  c #744D01",
"-  c #7B4B01",
";  c #754F08",
":  c #6A540C",
">  c #7B5204",
",  c #74550B",
"<  c #795209",
"1  c #6E4916",
"2  c #754C17",
"3  c #695517",
"4  c #555832",
"5  c #66542D",
"6  c #62613A",
"7  c #7F793F",
"8  c #7E6836",
"9  c #173E43",
"0  c #353B47",
"q  c #1F4F5D",
"w  c #325D66",
"e  c #3C6070",
"r  c #2D6B7D",
"t  c #455D4C",
"y  c #59694E",
"u  c #486756",
"i  c #596D59",
"p  c #577058",
"a  c #457055",
"s  c #7A604F",
"d  c #70724D",
"f  c #677853",
"g  c #6C6F44",
"h  c #415465",
"j  c #497A76",
"k  c #55726C",
"l  c #823E00",
"z  c #844400",
"x  c #844D03",
"c  c #894E07",
"v  c #845202",
"b  c #8C5402",
"n  c #8A5807",
"m  c #935400",
"M  c #9A5501",
"N  c #945A02",
"B  c #9B5B02",
"V  c #965B09",
"C  c #96580E",
"Z  c #8C500F",
"A  c #A35D01",
"S  c #A75E05",
"D  c #8A6809",
"F  c #976002",
"G  c #9C6104",
"H  c #99630C",
"J  c #89651C",
"K  c #926610",
"L  c #9A6B1A",
"P  c #A46302",
"I  c #A4650B",
"U  c #AB6B0B",
"Y  c #A76607",
"T  c #B66A04",
"R  c #B2720B",
"E  c #AC6C12",
"W  c #A46B1C",
"Q  c #AB6E1B",
"!  c #A56A14",
"~  c #AC7314",
"^  c #A7711A",
"/  c #AC731E",
"(  c #B27314",
")  c #B5791C",
"_  c #BB7A1B",
"`  c #B77918",
"'  c #B26B11",
"]  c #8A5A25",
"[  c #905C20",
"{  c #86622C",
"}  c #9F6E22",
"|  c #987821",
" . c #AE6E24",
".. c #AA7A23",
"X. c #B37C23",
"o. c #BC7C24",
"O. c #B97E2E",
"+. c #C57C19",
"@. c #C37924",
"#. c #8A7253",
"$. c #87684C",
"%. c #688D02",
"&. c #20DD00",
"*. c #3CFB1A",
"=. c #7D854C",
"-. c #6C8565",
";. c #78DA5F",
":. c #BF841E",
">. c #96963E",
",. c #BB8326",
"<. c #BA8B3B",
"1. c #C7841D",
"2. c #D28C1F",
"3. c #C38424",
"4. c #C78C21",
"5. c #CA8924",
"6. c #C5832C",
"7. c #C48A29",
"8. c #CB8B2A",
"9. c #CB8528",
"0. c #D48B24",
"q. c #D58E2B",
"w. c #D68827",
"e. c #CF992F",
"r. c #D5932C",
"t. c #DC942C",
"y. c #DC992A",
"u. c #D99626",
"i. c #CA8934",
"p. c #C99538",
"a. c #D49333",
"s. c #DC9533",
"d. c #DC9A33",
"f. c #DD9D3B",
"g. c #D59A3D",
"h. c #D68B30",
"j. c #E99D2F",
"k. c #E49929",
"l. c #E39632",
"z. c #E29B33",
"x. c #E49E3C",
"c. c #EA9C35",
"v. c #DEA238",
"b. c #F4A42F",
"n. c #E4A234",
"m. c #E3A23B",
"M. c #EAA33D",
"N. c #EBA135",
"B. c #F2A332",
"V. c #F2A73A",
"C. c #F4AA3B",
"Z. c #9C8C50",
"A. c #908A46",
"S. c #B78747",
"D. c #A59650",
"F. c #CE9A4F",
"G. c #DA9F45",
"H. c #E69D41",
"J. c #F4AD44",
"K. c #F9B645",
"L. c #F7B048",
"P. c #EBB150",
"I. c #E4AC4D",
"U. c #89ED7B",
"Y. c #FFC056",
"T. c #3A6F81",
"R. c #317E8E",
"E. c #477B88",
"W. c #3B858A",
"Q. c #3E8694",
"!. c #2A8BA5",
"~. c #3F8FA6",
"^. c #3799B9",
"/. c #3DA0BD",
"(. c #478985",
"). c #468994",
"_. c #60899F",
"`. c #7F8A9E",
"'. c #6F949D",
"]. c #76808C",
"[. c #4597A6",
"{. c #5A97AC",
"}. c #788DA0",
"|. c #359FC9",
" X c #2EA3CE",
".X c #36A4CB",
"XX c #2EA6DB",
"oX c #2DAADE",
"OX c #2EA1D0",
"+X c #34A6D4",
"@X c #30A8DD",
"#X c #2DAAE2",
"$X c #30A9E1",
"%X c #69ACC9",
"&X c #889399",
"*X c #8E91A4",
"=X c #A998A2",
"-X c #C9AD90",
";X c #99D887",
":X c #ABEAA3",
">X c #92C0DA",
",X c #D6CECD",
"<X c #E5DBD9",
"1X c #ECE9E8",
"2X c #FEFDFF",
"3X c #FCF7FE",
/* pixels */
"#X#X#X#X#X#X#X#X#X#X#X#X#X#X#XoX#X#X#X#X#X#X#X#X#X#X#X#X#X#X#X#X#X#X#X#X#X#X#X#X#X#X",
"#X#X#X#X#X#X#X#X#X#X#X#X#X#X#X#X#X#X#X#X#X#X#X#X#X#X#X#X#X#X#X#X#X#X#X#X#X#X#X#X#X#X",
"#X#X#X#X#X#X#X#X#X#X#X#X#X#X#X#X#X#X#X#X#X#X#X#X#X#X#X#X#X#X#X#X#X#X#X#X#X#X#X#X#X#X",
"#X#X#X#X#X#X#X#X#X#X#X#X#X#X#X#X#X#X#X#X#X#X#X#XoX#X#X#X#X#X#X#X#X#X#X#X#X#X#X#X#X#X",
"#X#X#X#X#X#X#X#X#X#XoX#X#X#X#X#X#X#X#X#X#X#X#X#X#X#X#X#X#X#X#X#X#X#X#X#X#X#X#X#X#X#X",
"#X#X#X#X#X#X#X#X#X#X#X#X#X#X#X#X#X#X#X#X#XoX#X#X#X#X#X#X#X#X#X#X#X#X#X#X#X#X#X#X#X#X",
"#X#X#X#X#X#X#X#X#X#X#X#X#X#X#X#X#X#X#X#X#X#X#X#X#X#X#X#X#X#XoX#X#X#X#X#X#X#X#X#X#X#X",
"#X#X#X#X#X#X#XoX#X#X#X#X#X#X#X#X#X#X#X#X#X#X#X#X#X#X#X#X#X#X#X#X#X#X#X$X!.!.#X#X#X#X",
"#X#X#X#X#X#X#X#X#X#X#X#X#X#X#X#X#X#X#X#X#X#X$XoX@XoX#X#X#X$X$X$X$X$X$XE.0 q #X#X#X#X",
"#X#X#X#X#X#X#X#X#X#X#X#X#X#X#X#X#X#XoX).p A.A.Z.Z.A.d i -.d Q.oX$X|.{.*Xr #X#X#X#X#X",
"#XoX#X#X#X#X#X#X#X#X#X#X#XoXoX#X#XW.d F.L.J.J.C.J.V.V.x.L.b...t |.%X,Xh +X#X#X#X#X#X",
"#X#X#X#X$X#X#XoX#X#X#X#X#X#X#X#Xp <.Y.K.c.q.w.w.0.2.w.c.n.j.B.x $.>XE.T.$X#X$X#X#X#X",
"#X#X#X#X#X#X#X#X#X#X#X#X#X#X#Xg m.K.1.m U w.c.l.f.M.+.b I h.l.+.z 5 e #X#X#X#X#X#X#X",
"#X#X#X#X#X#X#X#X#X#X#XoX#X#Xf M.C.u.U N o.c.t.o./ o.f.@.m U v.n.T * u #XoX#X#X#X#X#X",
"#X#X#X#X#X#X#X#X#X#X#X#X#Xj r.B.r.d.s.d.x.5.V & - + C a.d.8.e.e.+.A 2 (.#X#X#X#X#X#X",
"#X#X#X#X#X#X#X#X$X#X#X#Xj } B.y.7.8.z.f.a.N * > % . . 3.n.d.^ v n N B : oX#XoX#X#X#X",
"#X#X#X#X#X#X#X#X#X#X#X#X5 s.m./ v x o.z.t.I & & < ; L p.0.5.x & = B V y #X#X#X#X#X#X",
"#X#X#X#X#X#X#X#X#X#XoXXXK C.,.x < X V r.j.t./ K L ) i.` r.y.v $ - Y c i #XoX#X#X#X#X",
"#X#X#X#X#X#X#X#XoX#XoXa ! +.V v % O D 3.l.s.d.,.) ` ( 8.7.E ! ^ ,.~ b 6 #X#X#X#X#X#X",
"#X#X#X#X#X#X#X#X#X.X8 p.z.` > = * C Q ,.f.f.m.g.4.1.z.s.b & ~ M.v.U m 3 #X#X#X#X#X#X",
"#X#X#X#X#X#X#XoX$Xa @.K.c.a.b O * Q ..s.G.O. .,.v.n.s.a.( ( q.z.r.H M , (.#X#X#X#X#X",
"#X#X#X#X#X+X).(.Q.4 _ k.0.H.6.C  .Q a.8.c l z z b 8.m.r.d.z.y.u.4.N B = (.#X#X#X#X#X",
"#X#X#X$X#X.X9 0 *X$.I n.q.G.I.G.6.q.6.o o A S M o O 8.z.u.v.u.n.~ m A < /.oXoX#X#X#X",
"#X#X#X#X#X#XoX`.).u  .B.k.7.} <.v.t.c #.-XD.%.>.-X#.Z k.t.~ H :.~ N A 3 #XoX#X#X#X#X",
"#X#X#X#X#X#X#X#X#X.X8 k.b.2.- C P.~ 1 1X2X:X*.U.2X1X[ +.E - - c ) ( v k oX#X#X#X#X#X",
"#X#X#X#X#X#X#X#X#X#XW., R k.2.:.g.,.2 ,X3X;X&.;.2X<X] ) K = = - Q 1.1 .X#XoX#X#X#X#X",
"#X#X#X#X#X#X#X#X#X#X#X X3 @.B.y.e.o.[ ] S./ D | S.{ x 8.) - - b i.' # #X#X#X#X#X#X#X",
"#X#X#X#X#X#X#X#X#X#X#X#X^.J B.c.d.0.H + + N I b + o E z.3.^ X.i.@.M , |.#XoX#X#X#X#X",
"#X#X#X#X#X#X#X#X#X#X#X#X#XT.! t.y.y.:.F x - > = - V q.M.` G ) ( M P v ~.#X#X#X#X#X#X",
"#X#X#X#X#X#X#X#X#X#X#X#X#X#Xt > R :.7.~ N N b N B I E H G N N b A Z 6 #X#X#X#XoX#X#X",
"#X#X#X#X#X#X#X#X#X#X#XoX#X#XoX4 * A A P A P P G F N m M A G F Y S @ -.#X#X#X#X#X#XoX",
"#X$X#X#X#X#X#X#X#X#X#X#X#X#XoX@Xj : m A P P A G G P P A M P T v 1 =X[.#X#X#X#X#X#X#X",
"#X#X#X#X#X#X#X#X#X#X#X#X#X#X#X#X#X@X6 < v m n F N n > : 3 > b 5 r &X}.~.oX#X#X#X#X#X",
"#X#X#X#X#X#X#X#X#X#X#X#X#X$X#X#X#X#X#X@X-.y p u p j a /.$X.X^.#X.XQ.e h ~.#X#X#X#X#X",
"#X#X#X#X#X#X#X#X#X#X#X#X#X#X#X#X#X#X#X#X#X#X#X#X#X#X$X#X#X#X#X#X#X#X#Xq Q.#X#X#X#X#X",
"#X#X#X#X#X#X#X#X#X#X#X#X#X#X#X#X#X#X#X#X#X#X#X#X#X$X#X#X#X#X#X#X#X#X#X#X#X#X#X#X#X#X",
"#X#X#X#X#X#X#X#X#X#X#X#X#X#X#X#X#X#X#X#X#X#X#X#X#X#X#X#X#X#X#X#X#X#X#X#X#X#X#X#X#X#X",
"#X#X#X#X#X#X#X#X#X#X#X#X#X#X#X#X#X#X#X#X#X#X#X#X#X#XoX#X#X#X#X#X#X#X#X#X#X#XoX#X#X#X",
"#X#X#X#X#X#X#X#X#X#X#XoX#X#X#X#X#X#X#X#X#X#X#X#X#X#X#X#X#X#X#X#X#X#X#X#X#X#X#X#X#X#X",
"#X#X#X#X#X#X#X#X#X#X#X#X#X#X#X#X#X#X#X#X#X#XoX#X#X#X#X#X#X$X#X#X#X#X#X#X#X#X#X#X#X#X",
"#X#X#X#XoX#X#X#X#X#X#X#X#X#X#X#X#X#X#X#X#X#X#XoX#X#X#X#X#X#X#X#X#X#X#X#X#X#X#X#X#X#X",
"#X#X#X#X#X#X#X#X#X#X#X#X#X#X#X#X#X#X#X#X#X#X#X#X#X#X#X#X#X#X$X#X#X#X#X#X#X#X#X#X#X#X"
};
