/* XPM */
static char *f2fe914cbf4840a8f0ad398a3c82b173QN2rQI0Lyb3p5W8N[] = {
/* columns rows colors chars-per-pixel */
"42 42 207 2 ",
"   c #12393E",
".  c #502F02",
"X  c #573602",
"o  c #5C3C01",
"O  c #543705",
"+  c #442600",
"@  c #623B00",
"#  c #693B01",
"$  c #603701",
"%  c #783C06",
"&  c #594301",
"*  c #654303",
"=  c #6B4202",
"-  c #6C4905",
";  c #644800",
":  c #734201",
">  c #7B4502",
",  c #734A01",
"<  c #7B4A01",
"1  c #7B510A",
"2  c #785200",
"3  c #6C5919",
"4  c #755317",
"5  c #674818",
"6  c #7F621C",
"7  c #5A5722",
"8  c #655928",
"9  c #635F3C",
"0  c #5E6031",
"q  c #64653A",
"w  c #2D3F41",
"e  c #3B4F4D",
"r  c #35524D",
"t  c #3F5A63",
"y  c #356467",
"u  c #38706D",
"i  c #2C6A77",
"p  c #306C73",
"a  c #4E4A41",
"s  c #5D5B47",
"d  c #4D6A4C",
"f  c #5D6744",
"g  c #4C6C5C",
"h  c #4B6951",
"j  c #556C58",
"k  c #666A4B",
"l  c #606F5A",
"z  c #617552",
"x  c #4C5F69",
"c  c #44756A",
"v  c #44787A",
"b  c #4F6F6F",
"n  c #646E6D",
"m  c #6D6E70",
"M  c #79777C",
"N  c #844C01",
"B  c #8A4D00",
"V  c #924F01",
"C  c #835304",
"Z  c #8C5401",
"A  c #8B5A03",
"S  c #88580B",
"D  c #935502",
"F  c #945D03",
"G  c #9D5D02",
"H  c #935C0B",
"J  c #9A5503",
"K  c #865B1C",
"L  c #A45D01",
"P  c #A95F02",
"I  c #9B6303",
"U  c #98630B",
"Y  c #9D6C15",
"T  c #986616",
"R  c #A46202",
"E  c #AC6300",
"W  c #A4660C",
"Q  c #AC6809",
"!  c #BA770D",
"~  c #A36C14",
"^  c #AB6C14",
"/  c #A76916",
"(  c #A97114",
")  c #AC731A",
"_  c #A47219",
"`  c #B97915",
"'  c #B5751D",
"]  c #B47A1D",
"[  c #BA7A1E",
"{  c #B57613",
"}  c #B46C06",
"|  c #8D783F",
" . c #B86F20",
".. c #A67527",
"X. c #B67F23",
"o. c #BA7F22",
"O. c #BA7A25",
"+. c #C37C14",
"@. c #C37F1C",
"#. c #C87F21",
"$. c #896E5B",
"%. c #758153",
"&. c #528171",
"*. c #BB811D",
"=. c #AC8122",
"-. c #BC8122",
";. c #B7862A",
":. c #BF8B3F",
">. c #AC863F",
",. c #C5821A",
"<. c #CF881B",
"1. c #D38C1F",
"2. c #D3841D",
"3. c #C58423",
"4. c #CA8624",
"5. c #CD8B25",
"6. c #CB8C2A",
"7. c #C58729",
"8. c #D28B23",
"9. c #D28D2B",
"0. c #D88925",
"q. c #CD912C",
"w. c #D5932D",
"e. c #DC932B",
"r. c #DA9727",
"t. c #C38A3A",
"y. c #D38D32",
"u. c #C99434",
"i. c #D59333",
"p. c #DC9533",
"a. c #DD9B34",
"s. c #D8983A",
"d. c #E3962A",
"f. c #E49B2F",
"g. c #E79829",
"h. c #E49735",
"j. c #E29B34",
"k. c #E39D3A",
"l. c #EA9F39",
"z. c #EA9B36",
"x. c #F19F32",
"c. c #FB9F38",
"v. c #E28E2B",
"b. c #E9A434",
"n. c #EBA23A",
"m. c #E3A83C",
"M. c #E3A23B",
"N. c #F1A53C",
"B. c #F6AA38",
"V. c #9F8B4E",
"C. c #8C8952",
"Z. c #A08845",
"A. c #B38F41",
"S. c #8A8478",
"D. c #E49C41",
"F. c #EAAA46",
"G. c #F4AE44",
"H. c #FFAA43",
"J. c #F9B548",
"K. c #FCB050",
"L. c #FBC144",
"P. c #257795",
"I. c #3C7B93",
"U. c #31758C",
"Y. c #6A7689",
"T. c #817780",
"R. c #3C8897",
"E. c #378DA4",
"W. c #3C90A9",
"Q. c #2F92B9",
"!. c #3699B7",
"~. c #369FBB",
"^. c #3695B1",
"/. c #4F8C91",
"(. c #548998",
"). c #46898F",
"_. c #6B8A91",
"`. c #7E9290",
"'. c #7A8891",
"]. c #409CB5",
"[. c #419AA8",
"{. c #6E9FAD",
"}. c #359CC5",
"|. c #2F99C3",
" X c #35A5CB",
".X c #2EA4D6",
"XX c #2DA6D9",
"oX c #2DA9DE",
"OX c #32A4D3",
"+X c #31A9DD",
"@X c #30A5DA",
"#X c #2EA5CD",
"$X c #2DAAE2",
"%X c #30A9E2",
"&X c #828085",
"*X c #858C92",
"=X c #8B929B",
"-X c #97969A",
";X c #AEAA9F",
":X c #9498B3",
">X c #A7A8AA",
",X c #ADA7B5",
"<X c #BEC3C6",
"1X c #C8CAD6",
"2X c #D5D7D8",
"3X c #D1D0D3",
"4X c #F4F2FF",
/* pixels */
"$X$X$X$X$X$X$X$X$X$X$X$X$X$X$X$X$X$X$X$X$X$X$X$X$X$X$X$X$X$X$X$X$X$X$X$X$X$X$X$X$X$X",
"$X$X$X$X$X$X$X$X$X$X$X$X$X$X$X$X$X$X$X$X$X$X$X$X$X$X$X$X$X$X$X$X$X$X$X$X$X$X$X$X$X$X",
"$X$X$X$X$X$X$X$X$X$X$X$X$X$X$X$X$X$X$X$X$X$X$X$XoX$X$X$X$X$X$X$X$X$X$X$X$X$X$X$X$X$X",
"$X$X$X$X$X$X$X$X$X$X$X$X$X$X$X$X$X$X$X$X$X$X$X$X$X$X$X$X$X$X$X$X$X$X$X$X$X$X$X$X$X$X",
"$X$X$X$X$X$X$X$X$X$X$X$X$X$X$X$X$X$X$X$X$X$X$X$X$X$X$X$X$X$X$X$X$X$X$X$X$X$X$X$X$X$X",
"$X$X$X$X$X$X$X$X$X$X$X$X$X$X$X$X$X$X$X$X$X$X$X$X$X$X$X$X$X$X$X$X$X$X$X$X$X@Xi |.$X$X",
"$X$X$X$X$X$X$X$X$X$X$X$X$X$X$X$X$X$X$X$X$X$X$X$X$X$X$X$X$X$X$X$X$X$X$X$XW.x   XX$X$X",
"$X$XoX$X$X$X$X$X$X$X$X$X$X$X$X$X$X$X$X$X$X$X$X$X$X$X$XoX$X$X$X$X$X$X.X).>Xm Q.$X$X$X",
"$X$X$X$X$X$X$X$X%X$X$X$X$X$X$X$X$XoX$XoXoXXX.X.XoX$X$X$XoX$XoX$XXXI.*X3X-Xy $X$X$X$X",
"$X$X$X$X$X$X$X$XoX$X$X$X$X$X$X$X$XoXR.&.%.C.V.V.Z.| q z C.k v I._.<X2X>Xe .X$X$X$X$X",
"$X$X$X$X$X$X$X$X$X$X$X$X$X$X$X$X^.q >.F.G.G.G.B.b.n.k.F.G.3.o S.4X1X=Xn i $X$X$X$X$X",
"$X$X$X$X$X$X$X$X$X$XoX$X$X$X$Xa =.J.L.m.r.1.8.5.1.1.r.x.g.B.! 5 -X:X*Xt }.$X$X$X$X$X",
"$X$XoX$X$X$X$X$X$X$X$X$X$X$Xh t.J.d.R A #.h.l.h.l.e.D V 3.j.0.Z O T.Y.P.$X$XoX$X$X$X",
"$X$X$X$X$X$X$X$X$X$X$X$X$Xg t.H.r.` J ^ s.D.7. .' y.e.W L 9.F.<.Z 5 e %X$X$X$X$XoX$X",
"$X$X$X$X$X$X$X$X$X$X$X$Xu _ B.v.a.i.w.k.s.^ N , , : 7.z.0.9.i.7.} Z 7 oX$X$X$X$X$X$X",
"$X$X$X$X$X$X$X$X$X$X$X+X8 d.x.i.7.s.z.j.) > < < @ + K h.x.4.S H I E A W.$X$X$X$X$X$X",
"$X$X$X%X$X$X$X$X$X$X$Xv  .B.4.H Z / s.k.] < : , 1 1 :.q.r.U = , C I 1 OX$X$X$X$X$X$X",
"$X$X$X$X$X$X$X$X$X$XoX0 f.j.F < = , ;.a.j.o.U T ) ;.-.*.F.~ = - A U 8 $X$X$X$X$X$X$X",
"$X$X$X$X$X$X$X$X$X$XR.4 ,.W Z < $ 1 ) h.h.e.5.[ [ { { 6.{ ( ~ ] [ G 4 XX$X$XoX$X$X$X",
"$X$X$X$X$X$X$X%X$Xz >.D.0.U # > N Y ] i.h.z.f.8.,.6.m._ - I a.B.,.G N c $XoX$X$X$X$X",
"$X$X$X$X%X$X$X%Xy T K.D.n.' = o H ) 5.n.y.7.7.p.b.j.p.-._ -.r.b.` F B d  X$X$X$X$X$X",
"$X$X$X$X].I.y b s U d.d.p.8.Y T ) @.p.' > # # C *.l.r.e.j.a.r.f.Q J D f  X$X$X$X$X$X",
"$X$X$XP.w T.,X1X>XS 0.g.r.h.D.y.4.p.Y X X o o . @ o.a.i.j.r.M.5.J P V ).$X$X$X$X$X$X",
"$X$X$X$XXX/./.{.*XK d.g.s.' / 6.n.+.: & @ = # = X > 9.M.-.T ) ] P P < ~.$X$XoX$X$X$X",
"$X$X$X$X$X$X%X#X X9 3.B.l.U N 8.a.L # & * = = = & * ,.6.Z N < T +.L 3 .X$X$X$X$X$X$X",
"$X$X$X$X$X$X$XoX$XOX7 H y.p.,.h.w.G - & ; = = & & # *.[ N < 1 H 5.H g $X$X$X$X$X$X$X",
"$X$X$X$X$X$X$X%X$X$X$Xu ..F.e.s.9.W 2 X * * = * o < ` 6.U < < X.6.- E.$X$X$X$X$X$X$X",
"$X$X%X$X$X$X$X$X$XoX$X$Xh 4.x.v.j.^ D : o o @ @ - F 1.r.] ) =.:.Q C b %X$X$X$X$X$X$X",
"$X$X$X$X$X$X$X$X$X$X$X$XoX3 2.g.j.q.Q G C > < C H { M.5.U ( X.U J R f $X$X$X$X$X$X$X",
"$X$X$X$X$X$X$X$X$X$X$X$X$X!.- E ! 3.o.I R R R I I ^ / I I F A I L $ R.$X$X$X$X$X$X$X",
"$X$X$X$X$X$X$X$X$X$X$X$X$X$X^.@ J L U H I I I I I Z Z F I F G L < k |.$X$X$X$X$X$X$X",
"$X$X$X$X$X$X$X$X$X$X$X$X$X%X%X~.7 1 G R R I I R R R E G L E P % $.3X(.$X$X$X$X$X$X$X",
"$X$X$X$X$X$X$X$X$X$XoX$X$X$X$X$XoXl 4 C Z A F A A Z C 8 3 A - a '.1X>Xp $X$X$X$X$X$X",
"$X$X$X$X$X$X$X$X$X$X$X$X$X$X$X$X%X$XoX Xv f 9 f j v  XoX$X XXXXXU.M 3X_.$X$X$X$X$X$X",
"$X$X$X$X$X$X$X$X$X$X$X$X$X$X$X$X$X$X$X$XXXoX+X+XoX$X$X$X$X$X$X$XoXp Y.=X(.$X$X$X$X$X",
"$X$X$X$X$X$X$X$X$X$X$X$X$X$X$X$X$X$X$X$X$X$X$X$X$X$X$X$X$X$X$X$X$X$XOXx r [.$X$X$X$X",
"$X$X$X$X$X$X$X$XoX$X$X$X$X$X$X$X$X$X$X$X$X$X$X$X$X$X$X$X$X$X$X$X$X$X$X!.i ~.$X$X$X$X",
"$X$X$X$X$X$X$X$X$X$X$X$X$X$X$X$X$XoX$X$X$X$XoX$X$X$X$X%X$X$X$X$X$X$X$X$X$XoX$X$X$X$X",
"$X$X$X$X$X$X$X$X$X$X$X$X$X$X$X$X$X$X$X$X$X$X$X$X$XoX$X$X$X$X$X$X$X$X$X$X$X$X$X$X$X$X",
"$X$X$X$X$X$X$X$X$X$X$X$X$X$X$X$X$X$X$X$X$X$X$X%X$X$X$X$X$X$X$X$X$X$X$X$X$X$X$X$X$X$X",
"$X$X$X$X$X$X$X$X$X$X$X$X$X$X$X$X$X$X$X$X$X$X$X$X$X$X$X$X$X$X$X$X$X$X$X$X$X$X$X$X$X$X",
"$X$X$X$X$X$X%X$X$X$X$X$X$X$X$X$X$X$X$X$X$X$X$X$X$X$X$XoX$X$X$X$X$X$X$X$X$X$X$X$X$X$X"
};
