/* XPM */
static char *_56c4dfe193b49d7ae905f972afdbca73oHuqQwFYpIzg4G6[] = {
/* columns rows colors chars-per-pixel */
"42 42 210 2 ",
"   c #543101",
".  c #612F00",
"X  c #6A3A01",
"o  c #683707",
"O  c #753B01",
"+  c #6B4503",
"@  c #734401",
"#  c #7B4301",
"$  c #734C01",
"%  c #7C4C02",
"&  c #724C0B",
"*  c #7D5405",
"=  c #7B5307",
"-  c #744D16",
";  c #6D5418",
":  c #78551B",
">  c #694918",
",  c #4F4D3E",
"<  c #555D3A",
"1  c #545C2D",
"2  c #6A4E38",
"3  c #775B3C",
"4  c #675529",
"5  c #6A6639",
"6  c #184A55",
"7  c #375558",
"8  c #3D6855",
"9  c #385E6B",
"0  c #2D6369",
"q  c #3A6E7B",
"w  c #3A7779",
"e  c #326F74",
"r  c #405D41",
"t  c #605C51",
"y  c #6A5B48",
"u  c #4B634A",
"i  c #5B6544",
"p  c #586C53",
"a  c #587657",
"s  c #486850",
"d  c #6F6E4E",
"f  c #5F5F69",
"g  c #576867",
"h  c #47766B",
"j  c #537A67",
"k  c #496875",
"l  c #497D74",
"z  c #536D73",
"x  c #677779",
"c  c #6C696A",
"v  c #824401",
"b  c #834B01",
"n  c #8A4E03",
"m  c #954D01",
"M  c #845203",
"N  c #8C5302",
"B  c #8D5A02",
"V  c #865908",
"C  c #945300",
"Z  c #9B5200",
"A  c #935C01",
"S  c #9C5C01",
"D  c #9A5C0C",
"F  c #855416",
"G  c #A45D01",
"H  c #A35A05",
"J  c #946503",
"K  c #9B6402",
"L  c #9C610C",
"P  c #9B6B09",
"I  c #9A6618",
"U  c #8D6614",
"Y  c #A36201",
"T  c #AC6303",
"R  c #A5650D",
"E  c #A86B0A",
"W  c #A36D14",
"Q  c #AB6C16",
"!  c #A87519",
"~  c #B47313",
"^  c #BD7D1B",
"/  c #B67818",
"(  c #B3700E",
")  c #814E21",
"_  c #855C26",
"`  c #946F2C",
"'  c #A87627",
"]  c #BC7C22",
"[  c #B37824",
"{  c #A4742F",
"}  c #C47D19",
"|  c #C07D23",
" . c #977759",
".. c #8E724E",
"X. c #A37F43",
"o. c #8C7861",
"O. c #877571",
"+. c #13CE01",
"@. c #31DE08",
"#. c #3A817B",
"$. c #568072",
"%. c #638260",
"&. c #5DCE40",
"*. c #6ED34F",
"=. c #BE881E",
"-. c #B88129",
";. c #C3851C",
":. c #CC891C",
">. c #D2891F",
",. c #C38324",
"<. c #CA8323",
"1. c #CD8C2B",
"2. c #C98929",
"3. c #D28D25",
"4. c #D38D2C",
"5. c #D88A25",
"6. c #CC9129",
"7. c #DB942C",
"8. c #DC9A2C",
"9. c #D99527",
"0. c #CD8E34",
"q. c #D88E32",
"w. c #CF9537",
"e. c #DC9C32",
"r. c #DB9C3A",
"t. c #D99535",
"y. c #E29B2B",
"u. c #E69828",
"i. c #E39D33",
"p. c #E39D3A",
"a. c #E79B34",
"s. c #DBA338",
"d. c #ECA53C",
"f. c #E5A438",
"g. c #F1A233",
"h. c #F9A538",
"j. c #F7AA32",
"k. c #948B4B",
"l. c #A38645",
"z. c #98847D",
"x. c #AD917C",
"c. c #E7A744",
"v. c #F3AE43",
"b. c #FAB44B",
"n. c #F7B142",
"m. c #FFC152",
"M. c #2D7786",
"N. c #317781",
"B. c #297F98",
"V. c #417580",
"C. c #767C86",
"Z. c #787B92",
"A. c #837D87",
"S. c #37868D",
"D. c #2A93B7",
"F. c #3496BB",
"G. c #4B8487",
"H. c #468B9A",
"J. c #4F8E99",
"K. c #628080",
"L. c #788F92",
"P. c #4298B3",
"I. c #4992AA",
"U. c #349DC4",
"Y. c #2D9DC5",
"T. c #33A2CD",
"R. c #2DA3D6",
"E. c #2EA5DC",
"W. c #2DAADE",
"Q. c #2FA8D7",
"!. c #32A5D4",
"~. c #31AADD",
"^. c #31A7DA",
"/. c #29A0CB",
"(. c #2FA7E3",
"). c #2DAAE2",
"_. c #30A9E2",
"`. c #30A7E1",
"'. c #888797",
"]. c #978D9B",
"[. c #96999E",
"{. c #8F8C91",
"}. c #B09C93",
"|. c #B9AD9F",
" X c #8C95A3",
".X c #9497A3",
"XX c #9DAAB3",
"oX c #A4A6A6",
"OX c #A5B2B3",
"+X c #B3B4B8",
"@X c #B8AEAF",
"#X c #C6BBBD",
"$X c #C0B7A6",
"%X c #9FD391",
"&X c #A9CD9C",
"*X c #C3DCBA",
"=X c #B8BAC5",
"-X c #C2B7C7",
";X c #BFC7D2",
":X c #C3C6C7",
">X c #D4D6DA",
",X c #C6C2D0",
"<X c #E2DEDF",
"1X c #DFE6D4",
"2X c #DBDDE0",
"3X c #E3DDE8",
"4X c #DEEFE9",
"5X c #E9EDF4",
"6X c #FEFEFE",
"7X c #F8F6FC",
/* pixels */
").).).).).).).).).).).).).).).).).).).).).).).).).).).).W.).).).).).).).).).).).).).",
").).).).).).).).).).).).).).).).).).).).).).).).).).).).).).).).).).).).).).W.).).).",
").).).).).).).).).).).).).).).).).).).).).).).).).).).).).).).).).).).).).).).).).).",
").).).).).).).).).).).).).).).).).).).).).).).).).).).).).).).)._.).).).).).).^.0 R.",
").).).).).).).).).).).).).).).).).).).).).).).W.).).).).).).).).).).).).).).M.x 7 `.",
").).).).).).).).).).).).).).).).).).).).).).).).).).).).).).).).W.).).)./.h oX[.q ).",
").).).).).).W.).).).).).).).).).).).).).).).).).).).).).).).).).)._.W.e L.:X#X7 ).).",
").).).).).).).).).).).).).).).).).).).).).).).).).).W.).).).).).R.M.x #X<XOXf D.W.(.",
").).).).).).).).).).W.).).).).).).).).).W.S.#.w w ).~.~.).).W.e z OX<X>X.XZ.0 ).).).",
").).).).).).).)._.).).).).).).).).).h j %.k.l.l.-...a j k.5 7 XX>X>X,X X'.c R.).).).",
").).).W.).).).).).).).).).).).W.e < l.c.j.v.v.v.v.c.f.c.b.4.: z.>X;X].A.'.9 ~.).).).",
").).).).).).).).).).).).).).).w _ d.m.j.8.6.>.3.6.6.3.f.8.d.3.  O.XXC.].g B.).).).).",
").).).).).).).).).).).).).).8 { b.d.( Z ~ 9.y.f.f.d.Y v ~ 8.y.G . t .X].7 ).).).).).",
").).).).).).).).).).).).).s { b.g.<.L H 2.s.6./ / 2.t.~ C ^ c.7.H X c g D._.).).).).",
").).).).).).).).).).).).l U h.u.i.t.q.p.p./ % + $ o W p.4.w.w.6.~ S O w ).).).).).).",
").).).).).).).W.).W.).E.i <.j.9.| 4.p.p.,.n % $ +   & w.i.6.U V A T Z h ).).).).).).",
").).).).).).).).).).).l U d.8.L v D 1.a.1.n O % * $ [ 0.3./ O $ M L V H.~.).).).).).",
").).).).(.).(.).).).).r -.d.W b @ + Q 8.e.,.L L W -.2.^ d.^ @ + V K - F.).).).).).).",
").).).).).).).).).).U.1 / / n % + & W 9.8.8.3.-.] / ~ 4.=.E W ' / T V I.).).).).).).",
").).).).).).).(.).j { s.9.T # $ $ U ! 0.p.i.i.8.<.>.g.] @ n 1.v.3.G m j ).).).).).).",
").).).).).T.V.k k - p.h.c.| # o F W ;.g.} W I [ i.g.7.2.! ^ 7.i.;.K m l ).).).(.).).",
").).~.W.0 7 f L.C.F :.8.t.t.Q L I =.8.S ) x.}. .F q.i.7.e.e.7.8./ S Z l ).).).).).).",
").e 7 x [.@X@X=XoX_ ;.u.5.i.d.7.<.7.L y 3X6X6X7X{.F t.u.e.8.r.e.Y A A j ).).).).).).",
").D.N.J.L..XoX=X>X .] g.7.^ R <.d.;.- 3X6X*X%X4X6X .H g.2.I I -.E G C G.).).).).).).",
").).).).W.Q.T.T.I.t { j.f.! # / f.C ..6X3X*.@.&X6X$Xn q.D % % V / E M P.W.~.).).).).",
").).).).).).).).).Q.j * -.s.,.3.y.m ..6X5X&.+.&X6X|.N | N % M V -.P u ~.).W.).).).).",
").).).).).).).).).).).S.: c.a.7.i.T o =X6X1X*X6X7X3 n 7.R % @ I 0.M u ~.).).).).).).",
").).).).).).).).).).).).l ' h.7.a.;.v > @X7X6X3X .. } 9.^ ! [ w.~ N i W.).).).).).).",
").).).).).).).).).).).).).< } 9.y.f.( v > d o.3 O R f.8.R R -.E S Y 4 T.).).).).).).",
").).).).).).).).).).).).).R.1 Y ( >.=.P A n n m H E W K A B A G G # , T.).).).).).).",
").).).).).).).).).).).).).).W.< C G J J K S K K K C N B J J A T O o.=XU.W.).).).).W.",
").).).).).).).).).).).).).)._.E.u = A Y T Y K Y Y G T S A T T v 2 ;X5XH.).).).).).).",
").).).).).).).).).).).).).).).).).G.4 = V B S C N N V ; ; = $ 2 ]..X2XXXw W.).).).).",
").).).).).).).).).).).).).).).).).).).U.H.h p i p h U.).W.!.S.k Z.A..X>XC.).).).).).",
").).).).).).).).).).).).).).).).).).).).~.~.~.~.).).).W.).).).).q z x -X+Xw ).).).).",
").).).).).).).).).).).).).).).).).).).).).).).).).).W.).).).).).).^.q g -XL.^.).).).",
").).).).).).).).).).).).).).).).).).).).).).).).).).).).W.).).).).).).D.z '.I.).).).",
").).).).).).).).).).).).).).).).).).).).).).).).).).).).).W.).).).).).).).9 6 ).).).",
").).).).).).).).).).).).W.).).).).).).).).).).W.).).).).(.).).).).).).W.W.).Y.W.).).",
").).).).).).).).).).).).).).).).).).).).).).).).).).).).).(.).).).(.).).).).).).).).",
").).).).).).).).).).).).).).).).).).).).).).).).).).).).).).).).).).).).).).).).).W.",
").).).).).).).).).).).).).).W.).).W.).).).).).).).).).).).).).).).).).).).).).).).)."
};
