/* XPM */
static char *_4857240ca974ccfc164f942998d0cf4zzorDphNjDt4YECw[] = {
/* columns rows colors chars-per-pixel */
"42 42 212 2 ",
"   c #1A0102",
".  c #280101",
"X  c #200401",
"o  c #360D05",
"O  c #231C00",
"+  c #3C1601",
"@  c #3C2506",
"#  c #51150B",
"$  c #7A140A",
"%  c #5A2A03",
"&  c #4C3905",
"*  c #5D3301",
"=  c #5C3B06",
"-  c #483B13",
";  c #543C17",
":  c #693402",
">  c #673C02",
",  c #703900",
"<  c #5D3B22",
"1  c #374835",
"2  c #5A440C",
"3  c #554417",
"4  c #6D4302",
"5  c #694906",
"6  c #754401",
"7  c #7A4401",
"8  c #7B4C02",
"9  c #7D4D0A",
"0  c #744D07",
"q  c #6D5107",
"w  c #795509",
"e  c #67431A",
"r  c #745917",
"t  c #4A5634",
"y  c #525129",
"u  c #655723",
"i  c #7A5D28",
"p  c #6C5834",
"a  c #705035",
"s  c #5A6537",
"d  c #70632E",
"f  c #357778",
"g  c #396F6A",
"h  c #52595F",
"j  c #496446",
"k  c #5A775B",
"l  c #50674B",
"z  c #4B5E6B",
"x  c #466964",
"c  c #4A7567",
"v  c #476B74",
"b  c #576B78",
"n  c #587274",
"m  c #4F6A71",
"M  c #787C77",
"N  c #6A7171",
"B  c #6D7453",
"V  c #8A2519",
"C  c #844D02",
"Z  c #8A4D01",
"A  c #854606",
"S  c #835304",
"D  c #8C5301",
"F  c #8C5A01",
"G  c #8A5B09",
"H  c #885607",
"J  c #935501",
"K  c #9A5501",
"L  c #945A03",
"P  c #9B5C03",
"I  c #975C0D",
"U  c #945913",
"Y  c #A25700",
"T  c #A35F02",
"R  c #956302",
"E  c #9B6302",
"W  c #9D6B03",
"Q  c #93610B",
"!  c #9C630D",
"~  c #856717",
"^  c #9B6414",
"/  c #9F6B16",
"(  c #A26301",
")  c #A56B03",
"_  c #A5650C",
"`  c #AA650F",
"'  c #A86A07",
"]  c #B16B05",
"[  c #B9740B",
"{  c #A26B13",
"}  c #AA6C14",
"|  c #A76816",
" . c #B16D17",
".. c #AD7314",
"X. c #AD7718",
"o. c #B47413",
"O. c #B6761A",
"+. c #BC7B1B",
"@. c #B87A17",
"#. c #AA7005",
"$. c #8F7734",
"%. c #AD7825",
"&. c #B67A23",
"*. c #C57C16",
"=. c #FA4122",
"-. c #C17C21",
";. c #86674A",
":. c #3D847D",
">. c #47817A",
",. c #BB821B",
"<. c #BC8426",
"1. c #C4831A",
"2. c #C48324",
"3. c #CC8A24",
"4. c #C1852B",
"5. c #CD8B2B",
"6. c #C98726",
"7. c #D38C26",
"8. c #D48D2B",
"9. c #D98F29",
"0. c #D58A24",
"q. c #D4912D",
"w. c #DB952E",
"e. c #DC9A2E",
"r. c #D99426",
"t. c #CD8C32",
"y. c #D18D32",
"u. c #D49531",
"i. c #DB9532",
"p. c #DC9934",
"a. c #DE973B",
"s. c #DE9B3A",
"d. c #D49636",
"f. c #CB9632",
"g. c #E29A2D",
"h. c #EA9B2D",
"j. c #E39B34",
"k. c #E29C3A",
"l. c #EB9B37",
"z. c #EF992D",
"x. c #DFA035",
"c. c #E6A22D",
"v. c #E6A133",
"b. c #EAA23B",
"n. c #E6A337",
"m. c #F3AB3E",
"M. c #F7A736",
"N. c #8F8E4E",
"B. c #9D8D40",
"V. c #B58E41",
"C. c #A58A75",
"Z. c #D99C43",
"A. c #E39C41",
"S. c #D4A347",
"D. c #EAA342",
"F. c #F2AA42",
"G. c #F8B749",
"H. c #EBB054",
"J. c #2B738B",
"K. c #387889",
"L. c #487C87",
"P. c #777983",
"I. c #877E88",
"U. c #837991",
"Y. c #378A9D",
"T. c #368589",
"R. c #388DA9",
"E. c #3C93A9",
"W. c #2C98BA",
"Q. c #3292B5",
"!. c #3A9BBD",
"~. c #3696B7",
"^. c #4A8883",
"/. c #458A92",
"(. c #5C8C94",
"). c #4D8E95",
"_. c #7B858A",
"`. c #778D92",
"'. c #5096AB",
"]. c #749CA4",
"[. c #329DC5",
"{. c #2C9ED2",
"}. c #2EA1CE",
"|. c #2FA5D5",
" X c #2DA6DB",
".X c #2DAADE",
"XX c #31A4D5",
"oX c #31A9DC",
"OX c #30A6D8",
"+X c #36A1C3",
"@X c #2DAAE2",
"#X c #2EA7E0",
"$X c #30A9E2",
"%X c #30A7E1",
"&X c #878686",
"*X c #97989B",
"=X c #868A95",
"-X c #9599AF",
";X c #9CA1A4",
":X c #A7A8A9",
">X c #ABAEB3",
",X c #B5ADB4",
"<X c #BABEBF",
"1X c #BBBAC2",
"2X c #BFC4C0",
"3X c #CBC7CB",
"4X c #C9CAD5",
"5X c #CBD2D9",
"6X c #D9D6DA",
"7X c #CDD3E3",
"8X c #E2DAE7",
"9X c #F0EEF4",
/* pixels */
"@X@X@X@X@X@X@X@X@X@X@X@X@X@X@X@X@X@X@X@X@X@X@X@X@X@X@X@X@X@X@X@X@X@X@X@X@X@X@X@X@X@X",
"@X@X@X@X@X@X@X@X@X@X@XoX@X@X@X@X@X@X@X@XoX@X@X@X@X@X@X@X@X@X@X@X@X@X@X@X@X@X@X@X@X@X",
"@X@X@X@X@X@X@X@X@X@X@X@X@X@X@X@X@X@X@X@X@X@X@X@X@X@X@X@X@X@X@X@X@X@X@X@X@X@X@X@X@X@X",
"@X@X@X@X@X@X@X@X@X@X@X@X@X@X@X@X@X@X@X@X@X@X@X@X@X@X@X@X@X@X@X@X@X@X@X@X@X@X@X@X{.@X",
"@X@X@X@X@X.X@X@X@X@X@X@X@X@X@X@X@X@X@X@X@X@X@X@X@X@X@X@X@X@X@X@X@X@X@X@X@X@X#X(.N  X",
"@X@X@X@X@X@X@X@X@X@X@X@X@X@X@X@X@X@X@X@X@X@X@X@X@X@X@X@X@X@X@X.X@X@X@X@X%XL.P.1Xn .X",
"@X@X@X@X@X@X@X@X@X@X@X@X@X@X@X@X@X@X@X.X@X@X@X@X@X@X@X@X@X@X@X@X@X@X@XR.`.1X3Xh .X@X",
"@X@X@X@X@X@X@X@X@X@X@X@X@X@X@X@X@X@X@X@X@X@X@X@X@X@X@X@X@X@X@X@X X[.v :X8X3XP.J.@X@X",
"@X@X@X@X@X@X@X.X@X@X@X@X@X@X@X@X@X@X@X$X$XOX^.>.:.:. X@X@X@X@Xf n >X5X6X:X=Xz Q.@X@X",
".X@X@X@X@X@X@X@X@X@X@X@X@X@X@X@X@X@X@XY.k N.$.$.B.B.y t d d 1 _.7X6X3X:X&XN J.@X@X@X",
"@X@X@X@X@X@X@X@X@X@X.X@X@X@X.XoX~.j B <.G.G.M.z.n.F.q.&.F.r.9 ;.3X7X;XM &Xg #X@X@X@X",
"@X@X@X@X@X@X@X@X$X@X@X@X@X@X@Xg i S.G.G.n.w.9.9.r.r.h.h.b.n.g.: p :X_.&XM {.@X@X@X@X",
"@X@X@X.X@X@X@X$X@X@X@X@X@X@Xg i H.G.*.L X.p.k.A.k.D.} D } q.b.o.: < =X-Xg @X@X@X@X@X",
"@X@X@X@X@X@X@X@X@X@X@X@X@X>.r g.b.5.` I 2.D.y.X...+.d.&.J o.b.g.] : a m |.@X@X@X@X@X",
"@X@X@X@X@X@X@X@X@X@X@X.X.Xd M.c.q.a.t.i.j.-.A 5 q > U D.f.f.d.5.[ P 6 g @X@X@X@X@X@X",
"@X@X@X@X@X@X@X@X@X@X@X@Xx %.M.g.1.7.h.j.y.D 8 w q * > %.x.x.G 8 J ! T l @X@X@X@X@X@X",
"@X@X@X@X@X@X@X@X.X@X.X|.2 9.v.{ C D 2.k.q.G 6 6 S 8 { 4.r.@.7 8 9 L C ^..X@X@X@X@X@X",
"@X@X@X@X@X@X@X@X@X@X@XK.8 m.+.8 0 = Q i.k.t.} I ! &.4.o.v.6.C , 8 L C E.@X@X@X@X@X@X",
"@X@X@X@X@X@X@X@X@X@XY.; _ ,.J S q 2 Q u.i.g.e.<.o.1.@.5.1.#.} ^ | ` K >.@X@X@X@X@X@X",
"@X@X@X@X@X@X@X@X@Xx i Z.k.o.8 5 8 G { 5.p.w.p.e.3.1.s.8.Z V 0.F.j.` Z s ).@X@X@X@X@X",
"@X@X@X@X@X@X|.~.f e 2.G.n.<.w > 8 / o.w.g.5.<.r.j.j.a.y.@.,.w.j.8.P K u ).@X@X@X@X@X",
"@X@X@X#X~.K.m b I.e  .r.q.u.+.U ^ O.q.7.[ ( K ) @.a.a.w.p.x.i.a.4.L Y u ).@X@X@X@X@X",
"@XT.x P.&X,X1X1X,Xa } c.r.e.l.d.2.q.3.Z % F [ 0 % I w.w.e.p.p.A.} J P s @X@X@X@X@X@X",
"@XW.g '.(.*X:X,X8XC./ c.r.3.` *.n.u.#.4   O 2 o . Z *.l.q.! ! %.} L K k @X@X@X@X@X@X",
"@X@X@X@X@X X[.R.'.(.~ z.m.,.7 _ n.X.R W @ o V # : W P 8.! 8 S C  .] Z s oX@X@X@X@X@X",
"@X@X@X@X@X@X@X$X@X@Xn S X.x.6.5.k.X.F ..% V =.$ 7 ) ! <.S S S 9 %.o.> k .X@X@X@X@X@X",
"@X@X@X@X@X@X@X@X@X@X@X[.- 8.M.w.x.X.R Q o   @ . % _ ( 8. .0 8 H 4.Q 3 oX@X@X@X@X@X.X",
"@X@X#X@X@X@X@X@X@X@X@X@X[.G M.j.n.5.#.*   2 r # . H *.p.<.| } 6.+.J r [.@X@X@X@X@X@X",
"@X@X@X@X@X@X@X@X@X@X@X@X@Xc ' 9.e.l.+.8 4 { [ P : I q.j...| +.} P ( S ~.@X@X@X.X@X@X",
"@X@X@X@X@X@X@X@X@X@X@X@X@XoXt Z [ 1.+.o.) R L ( #.} ` _ Q L K K _ C -  X@X@X@X@X@X@X",
"@X@X@X@X@X@X@X@X@X@X@X@X@X@XoXy A Y E W R R E P T L L J E P P ) 8 p :X+X@X@X@X@X@X@X",
"@X@X@X@X@X@X@X@X@X$X@X@X@X@X%XXXc q J P W ( ( ( ( ( ( T K T ] Z 3 :X9X]..X@X@X@X@X@X",
"@X@X@X@X@X@X@X@X@X@X@X@X@X@X@X@X@X[.d r w D F L F G w q q w 8 e &X-X4X1XE.@X.X@X@X@X",
"@X@X@X@X@X@X@X@X@X@X@X@X@X@X@X@X@X@X@X@XR.c c c k v |.@X@XoXY.v P.U.*X6X`.@X@X@X@X@X",
"@X@X@X@X@X@X@X@X@X@X@X@X@X@X@X@X@X@X@X@X@X@X$X.X.X.X@X@X@X@X@X@X{.K.N ,X4X|.@X@X@X@X",
"@X@X@X@X@X@X@X@X@X@X@X@X@X@X@X.X@X@X@X@X@X@X@X@X@X@X@X@X@X@X@X@X%X%X~.h >X].@X@X@X@X",
"@X@X@X@X@X@X@X@X@X@X@X@X@X@X@X@X@X@X@X@X@X@X@X@X@X@X@X@X@X@X@X@X%X@X$X@XL.*X'.@X@X@X",
"@X@X@X@X@X@X@X@X@X.X@X@X@X@X@X@X@X@X@X@X@X.X@X@X@X@X@X@X@X@X@X@X@X@X@X@X@X~.Q.@X@X@X",
"@X@X@X@X@X@X@X@X@X@X@X@X@X@X@X@X@X@X@X@X@X@X@X@X@X@X@X@X@X@X@X@X@X@X@X@X@X@X@X@X@X@X",
"@X@X@X@X@X@X@X@X@X@X@X@X@X@X@X@X@X@X@X@X@X@X@X.X@X@X@X@X@X@X@X@X@X@X@X@X.X$X@X@X@X@X",
"@X@X@X@X.X@X@X@X@X@X@X@X@X@X@X@X@X.X@X@X@X@X@X@X@X@X@X@X@X@X@X@X@X@X@X@X@X@X@X@X@X@X",
"@X@X@X@X@X@X@X@X@X@X@X@X@X@X@X@X@X@X@X@X@X@X@X@X@X@X@X@X@X@X@X@X@X@X@X@X@X@X@X@X@X@X"
};
