/* XPM */
static char *ZXhpdG8_[] = {
/* columns rows colors chars-per-pixel */
"42 42 244 2 ",
"   c #0A0202",
".  c #0D0C02",
"X  c #080409",
"o  c #140D02",
"O  c #1B0E02",
"+  c #180806",
"@  c #1C1202",
"#  c #1E140A",
"$  c #181606",
"%  c #160C13",
"&  c #1C1B19",
"*  c #0C0016",
"=  c #230D03",
"-  c #231402",
";  c #241B04",
":  c #2C1D03",
">  c #241D0B",
",  c #2C1D0D",
"<  c #261309",
"1  c #241D14",
"2  c #2A1B14",
"3  c #251C1B",
"4  c #231413",
"5  c #361A0D",
"6  c #1E231D",
"7  c #2C2103",
"8  c #25210C",
"9  c #2B220D",
"0  c #292706",
"q  c #322303",
"w  c #342A04",
"e  c #3C2C01",
"r  c #32240B",
"t  c #322B0D",
"y  c #3D2D0B",
"u  c #3A2407",
"i  c #3C3304",
"p  c #3B3609",
"a  c #252213",
"s  c #2A2314",
"d  c #25231C",
"f  c #2B241B",
"g  c #2D291C",
"h  c #2D2B14",
"j  c #362C1C",
"k  c #3C2C1C",
"l  c #372815",
"z  c #343213",
"x  c #3B3313",
"c  c #3C321C",
"v  c #383819",
"b  c #281D23",
"n  c #232124",
"m  c #2C2422",
"M  c #2C2923",
"N  c #28292B",
"B  c #382B25",
"V  c #343223",
"C  c #393626",
"Z  c #3B3535",
"A  c #412D02",
"S  c #4E2801",
"D  c #423202",
"F  c #433209",
"G  c #483A0B",
"H  c #443413",
"J  c #4B3D12",
"K  c #43341B",
"L  c #453A1B",
"P  c #463B17",
"I  c #563C18",
"U  c #513A08",
"Y  c #453A26",
"T  c #583A23",
"R  c #423533",
"E  c #463C34",
"W  c #432E29",
"Q  c #3E4018",
"!  c #584207",
"~  c #4D421B",
"^  c #454319",
"/  c #5D4A14",
"(  c #574716",
")  c #4F4009",
"_  c #665818",
"`  c #735D1E",
"'  c #654F15",
"]  c #7B6615",
"[  c #4B452B",
"{  c #554B2D",
"}  c #584A25",
"|  c #5A5427",
" . c #4A4735",
".. c #544A3A",
"X. c #585437",
"o. c #614C26",
"O. c #695728",
"+. c #735D28",
"@. c #675A38",
"#. c #735A32",
"$. c #69632A",
"%. c #7C6C26",
"&. c #77662B",
"*. c #6C6439",
"=. c #756435",
"-. c #746B32",
";. c #7A6B33",
":. c #74643A",
">. c #766939",
",. c #7B673A",
"<. c #7D7334",
"1. c #4D4744",
"2. c #555445",
"3. c #594C56",
"4. c #4F5347",
"5. c #655D4A",
"6. c #635D57",
"7. c #5D6354",
"8. c #6A6648",
"9. c #746A4D",
"0. c #766945",
"q. c #736D5B",
"w. c #6D6F51",
"e. c #5F5D6B",
"r. c #5E6965",
"t. c #636765",
"y. c #7B7B68",
"u. c #856A1E",
"i. c #826B27",
"p. c #867427",
"a. c #907D2B",
"s. c #856C38",
"d. c #857332",
"f. c #8A7639",
"g. c #987938",
"h. c #8C7B47",
"j. c #997F44",
"k. c #8C7C54",
"l. c #837B5B",
"z. c #907D5C",
"x. c #807768",
"c. c #96863C",
"v. c #9E8528",
"b. c #AA903B",
"n. c #E2C43F",
"m. c #F3D03C",
"M. c #F0D038",
"N. c #888146",
"B. c #93844D",
"V. c #998648",
"C. c #8B825B",
"Z. c #968555",
"A. c #9D934E",
"S. c #AC9846",
"D. c #AA9954",
"F. c #B59849",
"G. c #AEA55A",
"H. c #BCA859",
"J. c #BFB959",
"K. c #93896B",
"L. c #99926D",
"P. c #8D8C77",
"I. c #968E75",
"U. c #999477",
"Y. c #AD966E",
"T. c #BCAA63",
"R. c #B6A767",
"E. c #BFB76C",
"W. c #ACA674",
"Q. c #CDB74C",
"!. c #D5BA4E",
"~. c #C2AA56",
"^. c #CFBB5C",
"/. c #CBB656",
"(. c #D3BC5C",
"). c #D5B858",
"_. c #E6BC4E",
"`. c #C6B369",
"'. c #D5BC64",
"]. c #D2B765",
"[. c #C8AB71",
"{. c #C9BC75",
"}. c #C7AE6C",
"|. c #DDC342",
" X c #DAC656",
".X c #E5C64B",
"XX c #F2CE4C",
"oX c #EDD346",
"OX c #F2D244",
"+X c #F5D64C",
"@X c #E9CB59",
"#X c #EDD256",
"$X c #EAD45A",
"%X c #F4D554",
"&X c #FCD553",
"*X c #F4D55C",
"=X c #F5D95B",
"-X c #F7D957",
";X c #F6CF5A",
":X c #DBC362",
">X c #D3C166",
",X c #C9C777",
"<X c #D7C676",
"1X c #DFD179",
"2X c #EBCE64",
"3X c #E5C969",
"4X c #F5CE69",
"5X c #ECD46C",
"6X c #E9D665",
"7X c #F3D464",
"8X c #FCD563",
"9X c #F2DA62",
"0X c #F3DA6C",
"qX c #F7D86C",
"wX c #E4CC73",
"eX c #E5CA77",
"rX c #EAD47C",
"tX c #ECD875",
"yX c #F5DA73",
"uX c #F4D777",
"iX c #F0CA7F",
"pX c #F8E368",
"aX c #F9E376",
"sX c #9A9687",
"dX c #908D8C",
"fX c #A69C91",
"gX c #A8A499",
"hX c #BCBA94",
"jX c #A9A5A4",
"kX c #B4B1A8",
"lX c #C9BC8F",
"zX c #DACB80",
"xX c #D8C487",
"cX c #EED586",
"vX c #F3DA86",
"bX c #E8DA99",
"nX c #FAD891",
"mX c #EDE288",
"MX c #F7E587",
"NX c #F4E793",
"BX c #F3DCA8",
"VX c #F2E9AB",
"CX c #FDFDFD",
"ZX c #FCFDF7",
/* pixels */
"o : w D D w - @ < + : e A e K - @ o @ : A D A F , + $ . = e e e F , + < $ @ A ( l $ ",
"y S.(.Q.>Xc.G H K A F./.!.'.T.J L x e b.(.Q.(.T.~ L c i ] ^.Q.^.H.} c Y P _ ].{.-.# ",
"+..X+X-X/.v V Y U j.qX+X=X].O.W E p g.4X8X;X3X+.H Y F d.$X-X$XwX%.K W Y _  X&X@Xf.2 ",
"a..X+X).( v Z s ;.rX9X-X X' q B t $.5X%X%XpXu.e x 9 _ $X%X*XaXa.w x B u H.-XOX$X+.1 ",
"i..XyXV.W.P.dXP.bXMXMXaXD.X.8.X.$.,XaX6X0XS.G W Z Y `.8X-XuX~.i z v v Z.9XOX-X/.q 9 ",
"%.:XS.5.kX6 a Y :.#.#.5.# n % . k =._ +.O.7 * * * 3 #.` u.#.7     o F f._.&X/.' 7 8 ",
"h.D.H 3.fXo [ ( I T l X X X 6 1.T I I +   % 3  .~ o.T 5 + + X E Y @.#.S ).uX` L 2 d ",
"C.( g 3.dXc W.bX5XrX`.i ; ; v bXcX4XvXO.@ 3 Y {.tX6XcXD.- 3 % K.BXcXnXi.{.D.w E b b ",
" .j W [ hXL | zX7X+X5Xf.< # O G.uXXX%X~.+ 4 @ _ pXoX-X4X0.. @ | 1X7XyXp.N.D j E b & ",
"d C l | bX} - f.=XM.#XeXF # @ O.wXoXm.5Xo.< $ O ^.#XoX%X1X0 t w a.9XyXi.p t v C j f ",
"g Z t G.mX( = A .XOXXXaXd.O @ q S.#Xm.%X`.v $ = d.uXXXXX5X#.9 $ 0 1XvX%.l V i $.*.8 ",
"g K s.rXtX} + @ c.rXtXvX{.r @ + J 1X2XtXbXC.o @ l }.rX2XeXW.9 o . B.VX@.B k / `.;.> ",
"l $.3X0XcX^ 9 9 L 0.=.=.=.x 5 2 ; $.-.=.9.@.2 3 , { :.s.=.8.k b & v w.w l u ~.eXi.9 ",
"q /.$X#XmXO.gXgXfXU.U.L.U.gXjXjXfXU.K.U.I.sXgXjXgXI.U.L.K.U.fXjXjXsXU.~ w f.7X@X%.9 ",
"O..XoX6XT.X.CXCXCXCXZXCXCXCXCXCXCXCXCXCXCXCXCXCXCXCXCXCXCXCXCXCXCXCXCX@.&.eXoX.Xi.8 ",
"f.|.+X^.-.1.ZXCXCXCXCXCXCXCXCXCXCXCXCXZXCXCXZXCXCXCXCXCXCXCXCXCXCXCXCXO.~.7XoX@X_ > ",
"d. X0X` ..6.CXCXZXCXCXCXCXCXCXCXCXCXCXCXCXCXCXCXCXCXCXCXCXCXCXCXCXCXCX#.(.#X-XF.q 3 ",
"d.>Xa.H 3.e.CXZXCXCXCXCXCXCXCXCXCXCXCXCXCXCXCXCXCXCXCXCXCXCXCXZXCXCXCX=.^.6X~.( 2 3 ",
"k.B.e R 1.e.CXCXCXCXCXCXCXCXCXCXCXCXCXCXCXCXCXCXCXCXCXCXCXCXCXCXCXCXCX#.'.rX/ c b d ",
"q.E x v C t.CXCXCXCXCXCXCXCXCXCXCXCXCXCXCXCXCXCXCXCXCXCXCXCXCXCXCXCXCX:.`.d.t  .b a ",
"R B C p >.y.CXCXCXCXCXCXCXCXCXCXCXCXCXCXCXCXCXCXCXCXCXCXCXCXCXCXCXCXCX9.>.i V  .> 8 ",
"d R q _ {.Z.CXCXCXCXCXCXCXCXCXCXCXCXCXCXCXCXCXCXCXCXCXCXCXCXCXCXCXCXCX7.V g V | Q a ",
"B j i ~.eXh.ZXCXCXCXCXCXCXCXCXCXCXCXCXCXCXCXCXCXCXCXCXCXCXCXCXCXCXCXCX4.M B r N.-.1 ",
"B J c.0X:Xh.CXCXCXCXCXCXCXCXCXCXCXCXCXCXCXCXCXCXCXCXCXCXCXCXCXCXCXCXCX2.j l O.1X<.> ",
"s p.7X#X3Xj.CXCXCXCXCXCXCXCXCXCXCXCXCXCXCXCXCXCXCXCXCXCXCXCXCXCXCXCXCX..r e '.tX%., ",
"F !.OXOX'.k.CXCXCXCXCXCXCXCXCXCXCXCXCXCXCXCXCXCXCXCXCXCXCXCXCXCXCXCXCX5.D b.8X0X%., ",
";..XM.%Xf.9.CXCXCXCXCXCXCXCXCXCXCXCXCXCXCXCXCXCXCXCXCXCXCXCXCXCXCXCXCX@.f.uX@XyX%., ",
"f._.-XF.q 7.CXCXCXCXCXCXCXCXCXCXCXCXCXCXCXCXCXCXCXCXCXCXCXCXCXCXCXCXCX@.`.5X%XrX/ 2 ",
"s. X3X/ 9 t.ZXZXCXCXCXCXCXCXCXCXCXCXCXCXCXCXCXCXCXCXCXCXCXCXCXCXCXCXCX=. X3XtXT.q 3 ",
"s.].u.t N t.CXCXCXCXCXCXCXCXCXCXCXCXCXCXCXCXCXCXCXCXCXCXCXCXCXCXCXCXCX,.Q.pXF.h.> n ",
"z.f.i C n t.CXCXCXCXCXCXCXCXCXCXCXCXCXCXCXCXCXCXCXCXCXCXCXCXCXCXCXCXCX0.^.wXO.k.s & ",
"8.^ z V g q.CXCXCXCXCXCXCXCXCXCXCXCXCXCXCXCXCXCXCXCXCXCXCXCXCXCXCXCXCX9.[.=.E P.8 d ",
"V z z x l.y.ZXCXCXCXCXCXCXCXCXCXCXCXZXCXCXCXCXCXCXCXCXCXCXCXCXCXZXCXCXw.*.0 ..P.# M ",
"B C q &.xXC.ZXZXCXCXCXCXCXCXCXCXCXCXCXCXCXZXCXCXCXCXCXCXZXCXCXCXCXCXZX7.g V { L.[ d ",
"b K U (.^.B.ZXCXCXCXCXCXCXCXCXCXCXCXCXZXCXCXCXCXCXCXCXCXZXZXCXCXCXCXZX4.N V } lXw.a ",
"j I H.*X Xd.q.6.6.7.@.j.V.V.Z.y.6.6.8.@.B.c.V.h.8. .1.1.[ $.c.N.B.C.7.V V h f.VX0.8 ",
"; j.3XXX$XG.t 8 > < i.!.!.>X<XJ ; 2 - ` :X!. X<X^ > 1 < A /.>X XxXX.1 j l ) zXNX-.9 ",
"G ).#X#XtX| w x y ! uX8X-XrXc.q t y ! 3X7X=X6Xc.0 t r } ~.yX@X5XV.r d 8 p G.tXmX<.> ",
",..X+X2Xf.p z L / '.*X&X$Xc.p C K / ^.8X%XqXH.( { { $.[.nX4XaX].-.8.q.*.R.NXMXNX-.# ",
"V.|..Xv.i C v ~ D.@XXXXXb.(  .4.X.R.tX2X4X).;.2.7.w.R.vX7XtXeXh.0.y.y.W.mXcXrX>X) 1 ",
"{ >.;.y s h 9 C 0.$.;.&.H 1 h f C 9.>.;.:.} 8 g d j 0.,.:.:.{ > a a h X.0.=.>.{ > > ",
"s 3 3 d M h g j f s 1 2 d M M m f s 8 a a & M f g f a 1 1 a 1 M M g f f 1 1 3 3 m Z "
};
