/* XPM */
static char *ZXhpdGM_[] = {
/* columns rows colors chars-per-pixel */
"42 42 249 2 ",
"   c #000000",
".  c #0C0401",
"X  c #0B0B02",
"o  c #05080A",
"O  c #130301",
"+  c #140B00",
"@  c #1A0900",
"#  c #0D1006",
"$  c #141405",
"%  c #1D1301",
"&  c #1B1C0C",
"*  c #1C1709",
"=  c #100E11",
"-  c #1A1614",
";  c #070314",
":  c #200E02",
">  c #251B03",
",  c #2A1D01",
"<  c #211409",
"1  c #231B0C",
"2  c #2A1B0B",
"3  c #251601",
"4  c #341E01",
"5  c #301508",
"6  c #231C11",
"7  c #251B18",
"8  c #1E2200",
"9  c #1F2410",
"0  c #262202",
"q  c #2B2302",
"w  c #2B220C",
"e  c #292809",
"r  c #332503",
"t  c #342C04",
"y  c #3B2C01",
"u  c #3A2C0B",
"i  c #342609",
"p  c #2A3309",
"a  c #343202",
"s  c #3B320C",
"d  c #383309",
"f  c #2C2314",
"g  c #2D2B14",
"h  c #2B231D",
"j  c #2C2C1B",
"k  c #242416",
"l  c #322515",
"z  c #352D16",
"x  c #362E1B",
"c  c #3B2D1E",
"v  c #3D2614",
"b  c #283014",
"n  c #353214",
"m  c #3B3214",
"M  c #3B311D",
"N  c #36331A",
"B  c #1A1921",
"V  c #251F21",
"C  c #2E2A26",
"Z  c #292623",
"A  c #322A24",
"S  c #372A22",
"D  c #363325",
"F  c #34332B",
"G  c #3B3727",
"H  c #2D2B32",
"J  c #3D3436",
"K  c #2F3420",
"L  c #422E05",
"P  c #423402",
"I  c #45340B",
"U  c #4A3D0C",
"Y  c #4A3506",
"T  c #543D05",
"R  c #4A3D14",
"E  c #4B3D1B",
"W  c #463515",
"Q  c #55381A",
"!  c #423623",
"~  c #453926",
"^  c #4A3C36",
"/  c #444108",
"(  c #5B4C04",
")  c #57460A",
"_  c #4C4416",
"`  c #554213",
"'  c #594917",
"]  c #59541D",
"[  c #644905",
"{  c #66530A",
"}  c #6B5C1D",
"|  c #6A5617",
" . c #725D1A",
".. c #715916",
"X. c #694E17",
"o. c #73631B",
"O. c #776519",
"+. c #6D601C",
"@. c #4A4B24",
"#. c #4B4628",
"$. c #54452A",
"%. c #544923",
"&. c #49483C",
"*. c #51493B",
"=. c #4B5439",
"-. c #604F21",
";. c #645329",
":. c #675926",
">. c #745A23",
",. c #725C2D",
"<. c #675938",
"1. c #7A5C34",
"2. c #7D6D2D",
"3. c #766727",
"4. c #6C6239",
"5. c #766A33",
"6. c #7B6A35",
"7. c #7E723C",
"8. c #6F6025",
"9. c #4C4243",
"0. c #574B45",
"q. c #4E5148",
"w. c #685C47",
"e. c #715E40",
"r. c #665F57",
"t. c #726443",
"y. c #776B42",
"u. c #7C7458",
"i. c #68644E",
"p. c #776E64",
"a. c #76756E",
"s. c #846A1D",
"d. c #8F701E",
"f. c #8D7424",
"g. c #867828",
"h. c #927727",
"j. c #826E38",
"k. c #877636",
"l. c #927C39",
"z. c #8B6D25",
"x. c #A17B32",
"c. c #8C7B48",
"v. c #917D47",
"b. c #89714F",
"n. c #847D73",
"m. c #998638",
"M. c #9B8829",
"N. c #A6862A",
"B. c #AC932C",
"V. c #A38B34",
"C. c #A58133",
"Z. c #A89438",
"A. c #B89B31",
"S. c #B8A32F",
"D. c #C0AE3E",
"F. c #C9A92B",
"G. c #F7D43B",
"H. c #EFD42D",
"J. c #888348",
"K. c #96884A",
"L. c #888259",
"P. c #998A59",
"I. c #9F9254",
"U. c #A38D48",
"Y. c #A79446",
"T. c #B49A4A",
"R. c #A69856",
"E. c #B59E59",
"W. c #AF8B51",
"Q. c #BAA44A",
"!. c #B8A55A",
"~. c #ACA145",
"^. c #908C71",
"/. c #A99D62",
"(. c #B49D66",
"). c #A9A462",
"_. c #B7AD6B",
"`. c #C5AC45",
"'. c #CBB749",
"]. c #D1B84A",
"[. c #C5AC5B",
"{. c #C2A150",
"}. c #D0AF52",
"|. c #C6B557",
" X c #D4BD5D",
".X c #D4BB58",
"XX c #CDBA6E",
"oX c #C7B565",
"OX c #D7BA68",
"+X c #CCBE74",
"@X c #D3BE74",
"#X c #DBC359",
"$X c #DBC74C",
"%X c #EDD74B",
"&X c #F3D74B",
"*X c #F3DB4C",
"=X c #FDDA4B",
"-X c #F8D945",
";X c #E8C959",
":X c #ECD659",
">X c #FDDB55",
",X c #FCDC5D",
"<X c #F6D556",
"1X c #FDE14C",
"2X c #FEE05C",
"3X c #FFE95D",
"4X c #DCC469",
"5X c #DDC466",
"6X c #DBC878",
"7X c #D1C972",
"8X c #E6C966",
"9X c #F8CF64",
"0X c #E9D569",
"qX c #FCDB6C",
"wX c #F7D968",
"eX c #E5CB78",
"rX c #EBD974",
"tX c #ECD67B",
"yX c #E8D573",
"uX c #FDDB76",
"iX c #F5D877",
"pX c #FEE363",
"aX c #FDE46B",
"sX c #FBE666",
"dX c #FFF16C",
"fX c #FEE373",
"gX c #FFEB73",
"hX c #FEE57B",
"jX c #FCEA7B",
"kX c #F5E67F",
"lX c #938A85",
"zX c #A9A387",
"xX c #AFA3A3",
"cX c #C2AF8F",
"vX c #C9BD95",
"bX c #D6CA8B",
"nX c #D8D382",
"mX c #E6CB84",
"MX c #E7D588",
"NX c #E5CE92",
"BX c #F6D791",
"VX c #FDE483",
"CX c #FDEC84",
"ZX c #FCE88A",
"AX c #FFF386",
"SX c #FBE692",
"DX c #FDF590",
"FX c #DDD7AC",
"GX c #F1E3A6",
/* pixels */
"                .                                                                   ",
"  u (.XXXX7XL.*.0.^ ,.!.|.#X7Xb.0.0.#.5.[.'.$XoXy.9.9.I s.].'.|.!.] N S i g.'.].}   ",
"  j.SXVXZX7XL.^.u.L.mXfXaXjX!.<.r.<.6.yXwX,XfXm.~ 9.G ..;X=X=X0X3.y G l >.;X-X%Xo.  ",
"  U.VXCX_.W Z Z a ~.fX9XVX_.a b e y E.fX<XhXR.4 j k y |.aX>XfXm.q A 7 /  X1X1X7XU   ",
"  m.ZXyX) & H f J.jX2XuXOXR > b p U.SXqXqX[.I l x p R.SXuXuXQ.y w j m _.fXG.fXK.    ",
"  U.SX7.e F - w K.Z.B.B.{ , r q @.I.T.B.x.[ r y p ] R.Y.C.x.T , d m _ Z.$XpXOXI     ",
"  ).vXS A g %.5.P L y { f.d.l.b.E u y [ f.d.d.g.` s u T z.d.d.l.%.m a ( #XiX>.% .   ",
"  u.lXJ x q !.SXQ O X @.MXqX9XBX1.. . m eXuX:XAXJ.+ O 4 XXhX:XgXR.+ %  .6Xm.4 f     ",
"  f a.J w ( `.AXI.@ o $ E.fX<XuX[.3 . + K.gX%XpXmXv O + 5.hX*X<XtXQ O b.K.y z 7     ",
"  & a.j ;.A.F.pXyXR # X ) iX-X-XsX+.O O I 8X-XG.uXv.O # 8 OX2XH.2XW.5 ' s g F l 6   ",
"  9 i._ OX`.F.pXAXR.X + @ T.gX%XdX!., O @ m.aX=XpX4XI .   ,.gX1XwXBX>.q n F e 6.w.  ",
"  # e.!.aXS.S.rXMXNX%.& * -.MXtXrXMX<.< * _ 7XrX0XVXc.1 - x oXiXeXGX).p C q { 5Xt.  ",
"  . R.VXsXS.Y E _ $.F - 7 - ~ %._ #.J 7 - & W $.E $.~ 7 B - n ` Q ~ ~ k f Y '.wX;.  ",
"  _ 6XsXpX!.                                      o                     r R.gX$X:.  ",
"  v.iX*XgXj.      o                                                     5.uX<X;X}   ",
"  m.;XaXQ.r                                             o               oX,X>X5XL   ",
"  m.iXOX) >                                                             5X=XaXl.    ",
"  U.BX:.W #.                                                             XgX}.4     ",
"  /.P.q D G                                                             eXyX) * .   ",
"  4._ n F Z                                                             bX3.0 Z o   ",
"  $ F S G i.                                                            b.t N 7     ",
"  # A w c._.                                                            q.x z c j   ",
"  # 1 ' NXoX                                                            &.x 4 c.4.  ",
"  O y [.AXQ.                                                            0.2  .mX8.  ",
"  O m.sXsXQ.                                                            $.` OXuX|   ",
"  ` 8X*X3XQ.                                                            ;.Q.uX;X..  ",
"  m.:X1XaX>.                                                            E.gX:X8X|   ",
"  V.%XaXZ.,                                                             6X2X,X Xr   ",
"  N.sX`.Y 7                                                             NXpX2X3.    ",
"  Y.4X( g H                                                         o   NXjXB.0     ",
"  I.5.q G C                                                             GXXXP 1     ",
"  %.u N D F                                                             FXe.2 C     ",
"  @ l c ~ p.  o         o                                   X           xX&.C 7     ",
"  = l , P.cX  .                                                         lXq.1 W J   ",
"  = > } SX_.                                                            ^.q.> U.t.  ",
"  . / .XdXS.R .   ;   + W L W N X   o   1 W U _ l .   o   * d n N g   X ^.#.o.tX:.  ",
"  + T.pX&X0XK.g C h d Y.4XOX6XJ.e g > I !.6X@XbXP.#.9.&.e.XX6X6XFXzXp.n.zXy.8X:X{   ",
"  } 0X=X,X XR x D t Z.aX,XhXoX/ p s P {.fXqXSXE.#.&.E ' 6XAXsXDX).@.r.w.,.OXqX;X .  ",
"  V.<X,X9X..5 F q g.pX=X,X;X{ 0 N e v.hXG.2X X) w J t M.pX<XqX|.a 0 k , U.pX=X8XX.  ",
"  Y.iX0Xh.y ! W 8.4XsX:X8XO.y W m 6.mXwX%X;X..u G x j.rX:X:X.X{ d ~ M c.tX&XwX!.3   ",
"  ' 2.] 0 > 2 2 %.j.o.3.] > > w , -.6.o.O.' > 1 9 w ;.k.s.O./ > 2 2 2 <.3.O.3.R     ",
"                                                                                    "
};
