/* XPM */
static char *TmV3K1Byb2plY3QrJTI4MyUyOQ__[] = {
/* columns rows colors chars-per-pixel */
"42 42 245 2 ",
"   c #000001",
".  c #0C0301",
"X  c #0C0B01",
"o  c #05080B",
"O  c #130301",
"+  c #140B00",
"@  c #1A0B00",
"#  c #131406",
"$  c #1C1809",
"%  c #171311",
"&  c #0C0F0C",
"*  c #200E00",
"=  c #241701",
"-  c #251C03",
";  c #2B1C02",
":  c #211409",
">  c #241C0C",
",  c #2A1A0C",
"<  c #341E01",
"1  c #301508",
"2  c #231D12",
"3  c #281E18",
"4  c #291B10",
"5  c #1E2102",
"6  c #262103",
"7  c #2B2302",
"8  c #2C220C",
"9  c #292A06",
"0  c #332503",
"q  c #342C04",
"w  c #3B2B02",
"e  c #3B2D0A",
"r  c #382404",
"t  c #2A3309",
"y  c #343202",
"u  c #3B320C",
"i  c #393308",
"p  c #2C2314",
"a  c #2A221C",
"s  c #2C2C1B",
"d  c #292815",
"f  c #332415",
"g  c #342C15",
"h  c #362E1B",
"j  c #3A2A1A",
"k  c #283015",
"l  c #353314",
"z  c #3B3314",
"x  c #3B301D",
"c  c #363118",
"v  c #251F21",
"b  c #2E2A26",
"n  c #292522",
"m  c #332A24",
"M  c #362A22",
"N  c #2F3420",
"B  c #34332B",
"V  c #393527",
"C  c #2D2B32",
"Z  c #2D3236",
"A  c #2E3439",
"S  c #31363C",
"D  c #3D3437",
"F  c #423402",
"G  c #45340B",
"H  c #49370B",
"J  c #543D05",
"K  c #402F1F",
"L  c #4A3D14",
"P  c #47381A",
"I  c #4D330E",
"U  c #433724",
"Y  c #4A3B36",
"T  c #444108",
"R  c #5B4C04",
"E  c #57460A",
"W  c #4C4416",
"Q  c #554214",
"!  c #594917",
"~  c #5C541C",
"^  c #644904",
"/  c #655207",
"(  c #6C5B1D",
")  c #685517",
"_  c #725E19",
"`  c #715917",
"'  c #694E17",
"]  c #73631B",
"[  c #776519",
"{  c #6B611C",
"}  c #4A4B24",
"|  c #484628",
" . c #544924",
".. c #49483C",
"X. c #514A3A",
"o. c #50542D",
"O. c #665727",
"+. c #745A23",
"@. c #725C2D",
"#. c #675837",
"$. c #7A5C34",
"%. c #786929",
"&. c #6C6239",
"*. c #766B33",
"=. c #796937",
"-. c #7E723C",
";. c #6F6025",
":. c #483F40",
">. c #4D4443",
",. c #574A45",
"<. c #4E514A",
"1. c #695D48",
"2. c #715E40",
"3. c #665F57",
"4. c #65664C",
"5. c #756843",
"6. c #7C7459",
"7. c #6D6155",
"8. c #776E64",
"9. c #76756E",
"0. c #846A1D",
"q. c #8F701E",
"w. c #8D7424",
"e. c #867729",
"r. c #927727",
"t. c #836D39",
"y. c #887736",
"u. c #927C39",
"i. c #8B6D25",
"p. c #A17B32",
"a. c #8C7B49",
"s. c #917D46",
"d. c #88714F",
"f. c #847D73",
"g. c #998638",
"h. c #9C8A28",
"j. c #A6862A",
"k. c #AC932C",
"l. c #A48934",
"z. c #A89438",
"x. c #B99B21",
"c. c #B9A32F",
"v. c #C0AF3D",
"b. c #C9A92A",
"n. c #F7D43B",
"m. c #EFD42D",
"M. c #888348",
"N. c #96894A",
"B. c #9F914A",
"V. c #888259",
"C. c #9C8A56",
"Z. c #9F925B",
"A. c #A38C47",
"S. c #A79348",
"D. c #B49B46",
"F. c #A69856",
"G. c #B59D5A",
"H. c #AF8B51",
"J. c #BAA549",
"K. c #B7A55A",
"L. c #ACA145",
"P. c #82816F",
"I. c #988B61",
"U. c #91927A",
"Y. c #A99D62",
"T. c #B49D66",
"R. c #A9A462",
"E. c #B7AD6C",
"W. c #C5AA47",
"Q. c #CCB749",
"!. c #D1B94B",
"~. c #C5A856",
"^. c #C6B457",
"/. c #D5BD5E",
"(. c #D3BB58",
"). c #CDBA6E",
"_. c #C7B565",
"`. c #D4BA6A",
"'. c #D8B964",
"]. c #CCBE74",
"[. c #D3BE73",
"{. c #E0BF6E",
"}. c #DAC25D",
"|. c #DBC74C",
" X c #EDD74B",
".X c #F3DB4C",
"XX c #FCDA4B",
"oX c #F7D847",
"OX c #E7C958",
"+X c #EDD659",
"@X c #F5DB52",
"#X c #FDDB55",
"$X c #FCDC5C",
"%X c #F7D258",
"&X c #FDE14C",
"*X c #FEE05C",
"=X c #FFEA5D",
"-X c #DDC56A",
";X c #DCC466",
":X c #DBC878",
">X c #CBC372",
",X c #E6C966",
"<X c #EBD46A",
"1X c #E8D668",
"2X c #FDDB6D",
"3X c #F7D865",
"4X c #E5CB78",
"5X c #E3D474",
"6X c #EBD973",
"7X c #ECD67B",
"8X c #EFD672",
"9X c #F6D674",
"0X c #F9DB77",
"qX c #F8CE62",
"wX c #FEE363",
"eX c #FDE46B",
"rX c #FFEA6E",
"tX c #F9E563",
"yX c #FFF16C",
"uX c #FEE374",
"iX c #FFE974",
"pX c #FDE57B",
"aX c #FDEB7C",
"sX c #F5E67F",
"dX c #FFF073",
"fX c #938A85",
"gX c #A9A387",
"hX c #AFA3A3",
"jX c #C2AF8F",
"kX c #C9BD95",
"lX c #D6CA8B",
"zX c #D8D382",
"xX c #E6CC84",
"cX c #E7D789",
"vX c #FCD68A",
"bX c #E6CD92",
"nX c #F2D898",
"mX c #FCE483",
"MX c #FDEB84",
"NX c #FCE88B",
"BX c #FEF486",
"VX c #FBE692",
"CX c #FEF691",
"ZX c #DDD7AC",
"AX c #F1E3A6",
/* pixels */
"                                                                                    ",
"    L %.[ %.#., , 8 = T ] 0.t.O.8 2 > - ! [ _ t.' ; 8 , - ~ %.] =.! , 4 = 7 ) %.!   ",
"  = K.qX X7Xa.U V y ~ ^.+X+X6Xy.h V e _ OX X9XxX=.z P w [ ,X+X3X-X;.x x w w.<X8XD.  ",
"  ' ,XXXwXA.= 3 5 T J.eX%XwXh.q D , E (.#Xn.uXs.9 N 6 R OX$XoX*Xe.7 V , ` qX$XqXl.  ",
"  ` OXeX'.@.1.3.} R.CXeXaX:X! V X.} Y.NX2XiXJ.F u t T >XaX$XeXz.q c h W /.$XXX<X(   ",
"  ) 3X-X-.gXf.8.gXZX5X5X).2.X.>.| C.lX].:XK.G - k 9 M.:X;X;XS.i a b h N.3X XwXL.O   ",
"  O.7X[ | U.S A Z Z A S A Z Z S S Z Z Z S S A Z S S S A Z Z A S A Z S S c.dX(.H     ",
"  5.N.6 X.U.S A Z A S S Z Z Z S S A Z Z S S Z Z Z S A Z Z A S S A Z S S K.NX( - %   ",
"  V U , <.fXS A Z Z S S Z Z Z S S Z Z Z S S Z Z Z S S Z Z Z S S Z Z Z S jXI.; f %   ",
"    3 M Y hXS A Z Z S S Z Z Z A S Z Z Z S S Z Z Z S S Z Z Z S S Z Z Z S f.U h f +   ",
"    n , &.ZXS Z Z Z S S A Z Z S S Z Z Z S S Z Z Z S S Z Z Z S S Z Z Z S M N h e  .  ",
"    > F ).AXS A C Z S S Z Z Z S S Z Z Z S S Z Z Z S S Z Z Z S S Z Z A S s V 7 *.C.  ",
"    ; k.aXbXA A Z Z S S A Z Z S S Z Z Z S S Z Z Z S S Z Z Z S S Z Z Z S C 9 R -XS.  ",
"    %.*XwXbXA A Z Z S S Z Z Z S S Z A Z S S Z Z Z S S Z Z Z S S Z Z Z S n H W.wXj.  ",
"  q (.3X$X:XS A Z Z A S Z Z Z S S Z Z Z S S Z Z Z S S Z Z Z S S Z Z Z S = z.rX+Xl.  ",
"  ` ,X%XeXK.S A Z Z S S Z Z Z A S Z Z Z S S Z Z Z S S Z Z Z S S Z Z Z S +.eX.X@Xg.  ",
"  ` OX0XJ.O.S A Z Z S S Z Z Z S S Z Z Z S S Z Z Z S S S Z Z S S Z Z Z S J.=X@X,XQ   ",
"  ' 9X{.Q | S Z Z Z S S Z Z Z S S Z Z Z S S Z Z Z S S Z Z Z S S Z Z Z S J.tX2Xg.O   ",
"  %.xX_ , ,.S A Z Z S S Z Z Z S S Z Z Z S S Z Z Z S S Z Z Z S S A Z Z S J.BX^.w .   ",
"  #.a.< j ..S A Z Z S S Z Z Z S S Z Z Z S S Z Z Z S S Z Z Z S S Z Z Z S _.bX! > #   ",
"  h c c h ..A A C Z A S Z Z Z S S Z Z Z S S Z Z Z S S Z Z Z Z S Z Z Z S E.a.f b &   ",
"    a c t V.A A Z Z S S Z Z Z S S Z Z Z S S Z Z Z S S Z Z Z S S Z Z Z A 7.c j V #   ",
"  o v 6 %.lXA A C A S S Z Z Z S S Z Z Z S S Z Z Z S S Z Z Z S S Z Z A S b N e P #.  ",
"    : E 5XxXS Z Z A S S Z Z Z S S Z Z Z S S Z Z Z S S Z Z Z S S A Z A S B V 0 C.F.  ",
"    0 Q.iX/.S Z Z Z S A A Z Z S S Z Z Z S S Z Z Z S S Z Z Z Z S Z Z Z S | u O.cXA.  ",
"  . u.wXXX}.S S Z Z S S Z Z Z S S Z Z A S S Z Z S S S Z Z Z S S Z Z Z S 6 E ;XsXl.  ",
"  G /.#X$X_.S Z Z Z S S Z Z Z S S Z Z Z S S Z Z A S S A Z Z S S Z Z Z S 0 J.eXOXg.  ",
"  ( OX@X0X%.S Z Z Z S S Z Z Z S S S Z Z S S Z Z Z S S Z Z Z S S Z Z Z S t.rX.X6Xs.  ",
"  ) OXiXH.0 S S A Z S S Z Z Z S S Z C Z S S Z Z Z S S Z Z Z S S Z Z Z S J.=XtX:XW   ",
"  O.3XQ.G p S Z C Z S A A Z Z S S Z Z Z S Z Z Z Z S S Z Z Z S S Z Z Z S c.2XMXZ.O   ",
"  5.,X^ ; m k R.nX4X9X_.g % : a.mX1X8X:XW % $ &.cX5X6XcX .$ > } bXcX6Xx.x.mXK.5.#   ",
"  1.=.8 Z l 7 +.vXwXXXuX=.  X G ,XtXXXtXg.@ O - ^.yX.XiXD.= + + F.BXeXb.W.[.W 4.%   ",
"  2 f B k T  .1 H.*Xm.*X'.6 X + s.2Xn.oX,XH O . { tX XoX<XE X o W 5X3Xb.D.O.s 9.#   ",
"    p h i N.d.O L 7X@X@XpX*.+ O f xXeX.XuXN.+ + - ~.2X%XeXG.$ & + A.BXW.R ; D 9.p   ",
"    p < g.:X{ $ @ F.pX+XpX_.0 O + M.MX+XuX4Xz   O t.vX9X2XcX} X O Q VXK.7 M S fX6.  ",
"    @ +.0X}.R y z  .u.q.q.i.E e z ! e.r.q.w.^ w r P d.u.q.w.) w F F *. .f M M kXR.  ",
"    u ;XeX|.z.T z u = J p.p.S.F.~ 9 q < ^ p.j.D.Z. .6 9 < / z.k.D.M.8 % B 7 -.VXS.  ",
"    N.iXn.uXE.l s 8 w ~.0X2XVXF.q d p I ~.2X2XNXB.9 k 5 L `.2XwXaXs.a C > E 5XBXg.  ",
"  H -X.XXX'.L p m 7 g.uX#XeX^.i 8 n r F.pX%X0X~.w 9 k 9 E.mXqXeXL.e b b P E.aXsXB.  ",
"  [  XoXOX_ f V w %.<XXXXXOX] U >.U g.rX3X$X<X-.#.3.#.K.aX2XuXxXM.6.f.V.>XMXMXVXt.  ",
"  ( !.Q.%.e M c ~ R.^.Q.!.0.G >.:.5.>XQ.Q._.%.| ,.,.d.>X!.}.K.@.X.,.X.V.:X_.).T.u   ",
"                                                                          o   o     "
};
