/* XPM */
static char *_25e28fd0dd144a8dd31e78e5550468eVQBvm48WK9Klqzx9[] = {
/* columns rows colors chars-per-pixel */
"40 37 164 2 ",
"   c None",
".  c #000001",
"X  c #0A0601",
"o  c #0C0903",
"O  c #030B0D",
"+  c #080B0C",
"@  c #120A00",
"#  c #0F100E",
"$  c #191106",
"%  c #0C1315",
"&  c #001219",
"*  c #1F1F15",
"=  c #261C0D",
"-  c #261909",
";  c #311D06",
":  c #3F2609",
">  c #252118",
",  c #001721",
"<  c #001E2B",
"1  c #121E21",
"2  c #002C3D",
"3  c #032836",
"4  c #1B2C32",
"5  c #1A373D",
"6  c #292A2A",
"7  c #262929",
"8  c #353434",
"9  c #3C3E3E",
"0  c #4C2E0B",
"q  c #432808",
"w  c #5D370C",
"e  c #62390A",
"r  c #73430B",
"t  c #704A1D",
"y  c #5D472E",
"u  c #6B4A22",
"i  c #002F42",
"p  c #003042",
"a  c #0D3341",
"s  c #00394E",
"d  c #0A3D4D",
"f  c #1D3842",
"g  c #003C54",
"h  c #0C4A5F",
"j  c #194352",
"k  c #2A4548",
"l  c #3D4345",
"z  c #2F4E57",
"x  c #344950",
"c  c #32515B",
"v  c #014A65",
"b  c #004D6A",
"n  c #00506E",
"m  c #17546C",
"M  c #005473",
"N  c #005B7E",
"B  c #0C5F7F",
"V  c #005778",
"C  c #205468",
"Z  c #295D70",
"A  c #2E6072",
"S  c #3B6473",
"D  c #464646",
"F  c #4B4B4B",
"G  c #404B4F",
"H  c #49575C",
"J  c #575858",
"K  c #4E5C61",
"L  c #636667",
"P  c #777676",
"I  c #895111",
"U  c #965912",
"Y  c #935712",
"T  c #A05D11",
"R  c #A56214",
"E  c #B86D16",
"W  c #BB7A2E",
"Q  c #A67439",
"!  c #A77841",
"~  c #E38519",
"^  c #F6921E",
"/  c #FC951F",
"(  c #D78D36",
")  c #FCA137",
"_  c #E19D4F",
"`  c #E4A052",
"'  c #FFB157",
"]  c #036382",
"[  c #00658B",
"{  c #026B8E",
"}  c #006B92",
"|  c #006F99",
" . c #00719C",
".. c #267C9D",
"X. c #0076A3",
"o. c #007DAC",
"O. c #057AA6",
"+. c #7C7F81",
"@. c #1482AB",
"#. c #0184B3",
"$. c #0289B9",
"%. c #0491BE",
"&. c #438298",
"*. c #528798",
"=. c #609DB0",
"-. c #65A7BB",
";. c #008DC2",
":. c #0090C7",
">. c #0094CB",
",. c #019CD6",
"<. c #009FDA",
"1. c #00A1DE",
"2. c #3BB2DF",
"3. c #01A7E4",
"4. c #00ADEE",
"5. c #06AAE7",
"6. c #08B0EF",
"7. c #00AFF0",
"8. c #00B0F2",
"9. c #0BB3F2",
"0. c #2ABBF0",
"q. c #23BAF2",
"w. c #32BDF0",
"e. c #6FB6CD",
"r. c #70B8CF",
"t. c #45BAE4",
"y. c #3FC1F2",
"u. c #44C4F1",
"i. c #56C9F4",
"p. c #60C7EF",
"a. c #7FCFE8",
"s. c #60CFF6",
"d. c #75D3F2",
"f. c #8C8A8A",
"g. c #838585",
"h. c #939393",
"j. c gray62",
"k. c #9DA2A4",
"l. c #A6A6A5",
"z. c #AEAEAE",
"x. c #B0AEAD",
"c. c #BCBAB9",
"v. c #E7BA87",
"b. c #C1BEBD",
"n. c #FCCD97",
"m. c #A6C9D7",
"M. c #9FD1E4",
"N. c #84DBF6",
"B. c #87DEF9",
"V. c #B3E9FE",
"C. c #CDCECE",
"Z. c #C9C7C6",
"A. c #D7D5D5",
"S. c #DEDDDD",
"D. c #E8D9C7",
"F. c #E0DEDE",
"G. c #E1E0DF",
"H. c #DBF4FE",
"J. c #E5E5E5",
"K. c #ECEBEB",
"L. c #E4F8FF",
"P. c #F2F2F3",
"I. c #FDFDFD",
"U. c #F7FAFB",
/* pixels */
"                                                  . .                           ",
"                                          . . .   . .                           ",
"                                          . . . . . . .                         ",
"                                            . . . . .                           ",
"                      . . . . . . . . . . . . . . . .                           ",
"                  . + % % % % % % % % % % % % % % % + .                         ",
"                . z -.r.r.r.r.r.r.r.r.r.r.r.r.r.r.e.*.% .                       ",
"              . k N.B.N.N.N.N.N.N.N.N.N.N.N.N.N.N.N.B.=.%                       ",
"              + -.s.w.0.0.0.0.0.0.0.0.0.0.0.0.0.0.0.u.d.c .                     ",
"              4 t.6.4.4.4.4.4.4.4.4.4.4.4.4.4.4.4.4.7.q.&..                     ",
"              a 5.4.4.4.4.4.4.4.4.4.4.4.4.4.7.4.4.4.7.8.@..                     ",
". . .         p 4.4.4.4.4.7.4.4.4.4.7.4.4.4.7.7.4.4.4.7.o.O                     ",
". . . .       p 4.4.4.4.4.7.4.4.4.4.4.4.4.4.7.7.7.7.7.7.o.O                     ",
". . . . .     p 3.4.4.4.4.4.7.4.4.4.4.7.7.7.,.[ ] o.4.7.o.o @                   ",
". . . . . . . i 3.4.4.4.4.7.4.4.4.4.4.4.7.;.j P f.x [ 7.o.> Q q .               ",
"  . . . . . . p 4.4.4.4.4.4.4.4.4.4.7.4.3.h l.I.I.K.K $.o.7 D.v.t @             ",
"    . . . . . i 4.4.4.4.4.4.4.4.7.4.4.7.#.H K.I.I.I.b.B O.= ` n.n.! - .         ",
"      . . . . p 3.4.7.4.7.4.4.4.4.4.7.7.{ g.U.U.h.A.K.A X.= ~ / ) ' ( w o       ",
"  . . . . . . p 4.4.4.4.4.4.4.4.4.4.4.7.] h.K.S.6 j.J.S X.$ I U U U U I ; .     ",
"  . . . . . . p 4.4.7.4.4.4.4.4.4.4.4.4.} +.J.K.9 F A.Z X.. . . . . . . . . .   ",
"  . . . .     i 3.4.4.4.4.4.4.>.3.7.1.4.o.H C.K.F.J.x.] o..                     ",
"              f p.i.w.q.6.4.} o.7.4.>.3.,.v P C.K.Z.x ;.#.O                     ",
"              F U.I.I.L.M.m V 3.7.4.o.4.4.$.d D J 5 } 8.#..                     ",
"              D U.I.I.F.F v ,.4.4.<.X.>.} #.%.{ N #.3.7.o.# y u 0 X .           ",
"              D U.I.U.L g X.o.:.,.O.O. .. & | 3.1.4.4.8.#.> _ W : .             ",
"              D U.I.F.f M b O.V ,.C m.2.s . s 4.4.4.4.8.o.- r $                 ",
"              6 K.I.S.4 3 o.g ;. .L I.H.t.o.;.4.4.4.4.8.[ . .                   ",
"              + z.I.K.8 N n V <.a b.I.I.H.w.7.7.4.4.4.5.p .                     ",
"              . 8 G.U.9 ] i >.] F U.I.I.I.V.9.8.8.7.4.[ O                       ",
"                . 8 f.6 < g :.& J z.l.l.l.k... . .| v O .                       ",
"                  . . . . V N . X . . . . . . . . . . .                         ",
"                      Y @ n 3 e k , .                                           ",
"                    /   . i > U f &                                             ",
"                ^ ^ ^     . 0 R . .                                             ",
"                ^ ^ ^     0 e ^ . .                                             ",
"                    ^       E                                                   ",
"                                                                                "
};
