/* XPM */
static char *_0282cbfa40e48b492df132455963c26gMJ9pHdLW8z0zz3Y[] = {
/* columns rows colors chars-per-pixel */
"42 42 150 2 ",
"   c #005C47",
".  c #005B48",
"X  c #005B49",
"o  c #025B49",
"O  c #015D48",
"+  c #005C49",
"@  c #035C48",
"#  c #015E49",
"$  c #025E49",
"%  c #015C4A",
"&  c #005D4A",
"*  c #035C4A",
"=  c #025D4B",
"-  c #015E4B",
";  c #035F4A",
":  c #055C49",
">  c #045D49",
",  c #045D4B",
"<  c #065D4A",
"1  c #055E4A",
"2  c #075E4B",
"3  c #065F4B",
"4  c #035E4C",
"5  c #025F4C",
"6  c #055E4C",
"7  c #045F4D",
"8  c #065F4D",
"9  c #095E49",
"0  c #095C4A",
"q  c #0B5C4B",
"w  c #0A5F4A",
"e  c #0C5F4B",
"r  c #085F4C",
"t  c #0B5E4C",
"y  c #0A5F4C",
"u  c #085F4E",
"i  c #0C5D4C",
"p  c #0D5E4D",
"a  c #0C5F4D",
"s  c #0E5F4E",
"d  c #03604B",
"f  c #04604B",
"g  c #01604C",
"h  c #03604D",
"j  c #02614D",
"k  c #04614C",
"l  c #05614C",
"z  c #07604C",
"x  c #05624D",
"c  c #06624D",
"v  c #05604E",
"b  c #04614E",
"n  c #07604E",
"m  c #06614F",
"M  c #05624F",
"N  c #07634E",
"B  c #09614B",
"V  c #0B604B",
"C  c #09604D",
"Z  c #08614D",
"A  c #0B604D",
"S  c #0A624C",
"D  c #0B634D",
"F  c #08614F",
"G  c #0A614E",
"H  c #09624E",
"J  c #0B624F",
"K  c #0A634F",
"L  c #0C614C",
"P  c #0E614D",
"I  c #0D624D",
"U  c #0D604E",
"Y  c #0C614E",
"T  c #0E614F",
"R  c #0D624F",
"E  c #0F624E",
"W  c #0E634E",
"Q  c #08644F",
"!  c #0C644E",
"~  c #0D654F",
"^  c #0F644F",
"/  c #10614E",
"(  c #11624F",
")  c #10634F",
"_  c #076250",
"`  c #066350",
"'  c #076451",
"]  c #0A6150",
"[  c #096250",
"{  c #086351",
"}  c #0B6251",
"|  c #0A6351",
" . c #0C6350",
".. c #0F6250",
"X. c #0E6350",
"o. c #0C6352",
"O. c #096550",
"+. c #0B6450",
"@. c #0A6651",
"#. c #096452",
"$. c #086552",
"%. c #0B6452",
"&. c #0D6451",
"*. c #0C6551",
"=. c #0F6451",
"-. c #0E6650",
";. c #0F6751",
":. c #0D6453",
">. c #0C6553",
",. c #0E6552",
"<. c #0D6652",
"1. c #0F6653",
"2. c #0E6753",
"3. c #0B6654",
"4. c #0E6554",
"5. c #0D6654",
"6. c #0F6854",
"7. c #106150",
"8. c #116251",
"9. c #106351",
"0. c #126350",
"q. c #126352",
"w. c #116450",
"e. c #106550",
"r. c #126551",
"t. c #116651",
"y. c #116452",
"u. c #106552",
"i. c #136453",
"p. c #126553",
"a. c #116653",
"s. c #136652",
"d. c #126752",
"f. c #146753",
"g. c #106754",
"h. c #126754",
"j. c #156655",
"k. c #146755",
"l. c #106852",
"z. c #116953",
"x. c #136853",
"c. c #116855",
"v. c #136855",
"b. c #126956",
"n. c #156854",
"m. c #146954",
"M. c #166955",
"N. c #156A55",
"B. c #146956",
"V. c #176C57",
/* pixels */
"K K K K +.3 3 y ] y [ #.[ ] v 8 8 ` ` 7 % % 8 8 8 % , 8 7 = = 7 -   - n j - 7 % 7 d ",
"K K +.*.K 3 K *.[ ] [ #.[ v v 7 ` ` ` ` 7 7 8 8 % % = 8 = = = 7 %   % 7 j 7 8 8 n d ",
"K *.*.6.3 K y +.[ ] v ] v v v 7 7 7 ` ` 7 % [ v : 8 y 8 7 % = = % -   - 7 - % 7 d d ",
"3 +.*.*.z n 3 n 8 , 8 8 8 8 v v 7 % 7 ` 7 = [ [ ] [ [ 8 = 7 = % - - - - 7 - % 7 n z ",
"n +.*.D K 3 3 3 8 7 v v 8 7 7 7 7 - j ` 8 7 [ 4.[ [ 8 % = 7 7 = % - % - 8 7 - n D n ",
"D D +.n K 3 z K [ ` ` ` ` 7 7 - 7 - j ` 8 - v 4.:.` 7 % 7 8 7 =   - - 7 n 7 - 7 z z ",
"[ K z B z z z n [ ` 7 7 7 7 7 7 - n j j ` 7 = ` 3.` 7 7 8 7 7 % - % 7 7 7 7 3 3 z z ",
"K y z K z   d x ` 7 - - 7 7 7 7 - j 7 - ` 8 % 8 [ 8 7 7 ` 7 7 - - % 7 n 7 - K n x K ",
"  3 3 3 d d d z d j j j % = 7 = 7 7 7 7 8 #.v 7 ` v 7 7 7 ` ` 7 d d d z     z D *.U ",
"K 3 3 3 x k d   x x j - = % % = j 7 % 7 = ` v 7 v ` 8 7 7 ` 7 -   d z x z z K *.*.*.",
"K n 3 3 x z x z ` j 8 n v 7 , 7 ` j = = = v v v v v v = 7 7 7 - d z n D z z B D } U ",
"K B K 8 k z x x j n j n v ` ] [ ` ` = = 7 v 7 v ` 8 = = - 7 j j x d z z > z K U *.*.",
"3 3 +.@.+.x x d 7 ` v v [ 4.:.[ v 7 7 % v = = 7 ` % % 7 - - j ` x z z z 3 K [ U u.*.",
"3 3 x x x x x d 7 ` v 7 ` 4.:.] 7 ` 7 7 v 7 7 v 8 - % 8 j 7 j ` x n z n y y K y U U ",
"B n z d x z k x = v 8 , y :.:.8 8 ` ` = [ ` v ` 8 8 7 j 7 - 7 j [ K K K y y y K *.u.",
"3 K *.+.x d d   8 7 8 = v } ] , = v v % [ ` v ` 8 ` j - - 7 j j 3 3 3 K : 3 } *.h.n.",
"3 K n D D d d z z   3 8 K 3 : K = v v 7 - n x @.` z     d   d z B 3 r U *.K U *.*.*.",
"3 K n B z z d d z - 3 3 K r 3 3 8 8 7 7 n n +.` x x d d d     z } } } u.u.} K s U [ ",
"K K z z z z x z d z K y 3 3 K ! 8 8 8 [ K K z 3 D n n z z d z D *.u.*.U K K K r K K ",
"! K K z   3 x z   d K K 3 3 K *.8 ] v [ 3 3 3 K D +.n z z n D -.*.u.*.} U *.} *.U *.",
"K K 3 3 : : z   d   z z 3 3 K 3 = 8 K K K 3 n +.D K n 8 z z z *.r K } u.4.h.h.4.-.6.",
"K K 3 3 :   d -   d n D z z K 3 , 8 K [ *.[ K y D K z 3 z z K ! r K 9.*.*.} *.h.*.*.",
"r K 3 3 3   3 3   3 D +.3 z *.*.} [ y 3 K K K K K K y y r K K U U u.u.U } u.B.c.4.u.",
"K K   3 K B K K K   z K 3 n *.K y y K y K U U r y K K y K n K U s 9.h.) u.n.n.} c.*.",
"K K 3   K K K *.K % K 3 K 3 y K : : K h.K *.*.K [ } U U ! u.} u.0 8.8.i i.k.s s U ) ",
"K K K z K 3 [ -.*.3 3 r K 3 K *.} r : K y y K U c.} U K u.n.u.*.s 9.8.i 8.j.9.s U ) ",
"K K y B r r } u.h.: 3 y *.K K K U y 3 r } y 3 U n.u.*.U u.c.) ) s i / r i 9.8./ u.u.",
"*.K n n r r K *.y r K K K K 3   : K } U K K K } u.h.k.U U ! L ) 9.e ) ) s 9.i.9.u.u.",
"U K } [ r 3 U U U K K ! *.*.K 3 y y K *.3 U } *.9.u.x.! L L r ) ) I x.x.) x.x.) ( ) ",
"D K K y U *.u.*.u.U K U U U r r *.3 : h.: K K U } ! u.u.) ! L ) ! B ) x.! ) ) I f.) ",
"*.K 3 r h.h.u.u.u.} U U 8 K r r } y : } K K r K ) U ) t.x.) L ) -.-.-.z.! x.! D ) f.",
"} } y K 9.! U u.U ! U K 3 U K K [ [ y y U } U *.U B ! ) x.I L t.V.-.-.-.-.x.-.B ) u.",
"! u.*.! *.U U U U *.*.U U } U K K y K U } ! u.u.) ) ) s / 9.i.i.f.) U ) I t.x./ ) t.",
"B B r K U u.u.! h.n.h.! u.! K r B B } u.u.u.u.u.9.u.i.9.i.i.i.9.) e L ! ! ) ! L I ) ",
"D B r K } u.9.u.U U U U U U L ) 9 L x.x.u.x.) ) ) f.f.) ( ( ) ) ) ) ! ) x.t.) L I ! ",
"B U K U K K U } U *.*.U ! U L U B I t.x.) u.x.f.) ) 9.) ) ) ( ) ! ) ) ) x.) ! ) t.t.",
"K U *.} } r 3 K u.u.u.u.U U B L L ! ) ) ) f.x.) 9.f.) ) ) f.f.f.) ) ) ) ( ) ) f.) ) ",
"K D K U *.U y K U U u.*.! U L ! ) ) t.x.) ( ( L ) ( f.f.f.) ) f.M.x.x.f.) ) ) ) ) ) ",
"3 y 8 : r U K y ! *.) u.x.) U ! ( ) f.M.x.( ) ) ) ) f.f.f.f.) ) x.f.f.( ) ) L e ) ) ",
"y [ K 3 r U D [ K K K ! ) ) L ) ) ) ) x.x.f.) f.f.f.) ) ) f.f.f.) ) ) f.) x.f./ ) ) ",
"*.U U U U } y K y K U U x.x.) ! ) ) ) x.M.x.f.( x.) ) ) x.) ) x.) L / ) V.( ) x.s.) ",
"K K [ K K K : 3 } U U u.n.V.n.x.x.( ( x.n.f.( ( f.u.x.) n.u.! ) ) ) / ) M.) ) x.) ) "
};
