/* XPM */
static char *_a743be28fe74509d9ab5dfa8195d550H44ObKHLcHLHRtsy[] = {
/* columns rows colors chars-per-pixel */
"42 42 182 2 ",
"   c #703509",
".  c #763C14",
"X  c #7B4100",
"o  c #7D4214",
"O  c #7E451A",
"+  c #7F4520",
"@  c #844C09",
"#  c #8A520C",
"$  c #834917",
"%  c #8C4F16",
"&  c #834A1F",
"*  c #8E5015",
"=  c #8B5B13",
"-  c #92551D",
";  c #955B1D",
":  c #995D1C",
">  c #95611F",
",  c #9E631D",
"<  c #A1621E",
"1  c #814722",
"2  c #844B24",
"3  c #894F2A",
"4  c #8A5124",
"5  c #8C522B",
"6  c #925524",
"7  c #955923",
"8  c #9B5D23",
"9  c #91562C",
"0  c #955B2C",
"q  c #9B5E28",
"w  c #905631",
"e  c #945A33",
"r  c #9B5F30",
"t  c #995F3A",
"y  c #8F6322",
"u  c #9D6224",
"i  c #9E6927",
"p  c #9E6129",
"a  c #9D6335",
"s  c #9C623A",
"d  c #9F793A",
"f  c #A36424",
"g  c #A56925",
"h  c #AA6E25",
"j  c #A3652C",
"k  c #A66B2C",
"l  c #AA6D2C",
"z  c #AF7126",
"x  c #A1702D",
"c  c #AC712C",
"v  c #AC782F",
"b  c #B2752E",
"n  c #A36732",
"m  c #A66A33",
"M  c #AA6D33",
"N  c #A06539",
"B  c #A36A3A",
"V  c #AA6E3B",
"C  c #AE7234",
"Z  c #AD7834",
"A  c #AE7239",
"S  c #A3723A",
"D  c #B37534",
"F  c #B57A34",
"G  c #B97D36",
"H  c #B3753A",
"J  c #BC7638",
"K  c #B57A3A",
"L  c #BA7D3C",
"P  c #BB7635",
"I  c #C27F3D",
"U  c #A66C44",
"Y  c #A77341",
"T  c #AB7243",
"R  c #A37843",
"E  c #B37541",
"W  c #B67942",
"Q  c #BB7D42",
"!  c #B37A4A",
"~  c #BB7E4C",
"^  c #C27F41",
"/  c #BC8136",
"(  c #BD823C",
")  c #C08237",
"_  c #C1853D",
"`  c #C9853E",
"'  c #C4893D",
"]  c #CC883F",
"[  c #AF804A",
"{  c #B68240",
"}  c #BE8242",
"|  c #BF8846",
" . c #B48049",
".. c #BC814A",
"X. c #BF8848",
"o. c #B48555",
"O. c #BE8452",
"+. c #B78B5A",
"@. c #BD9267",
"#. c #C28544",
"$. c #C88646",
"%. c #C58A44",
"&. c #CA8C45",
"*. c #C3864A",
"=. c #CA8749",
"-. c #C6894A",
";. c #C58A4A",
":. c #CA8E49",
">. c #CA8D4E",
",. c #CB8C4B",
"<. c #D08B40",
"1. c #D28C4D",
"2. c #CC9146",
"3. c #C6914D",
"4. c #CD914D",
"5. c #CC924C",
"6. c #CF994F",
"7. c #D09046",
"8. c #D2944D",
"9. c #D8944B",
"0. c #D3984E",
"q. c #D89A4F",
"w. c #C28654",
"e. c #C58954",
"r. c #CA8C52",
"t. c #CC8E51",
"y. c #C78D5B",
"u. c #D28E51",
"i. c #C69452",
"p. c #CE9352",
"a. c #CD9855",
"s. c #C3915D",
"d. c #CF9159",
"f. c #CB955A",
"g. c #C89D59",
"h. c #D49454",
"j. c #D99456",
"k. c #D49A54",
"l. c #DC9B55",
"z. c #D39559",
"x. c #D9975A",
"c. c #D49B5B",
"v. c #DA9D5C",
"b. c #E09957",
"n. c #DAA056",
"m. c #D4A05E",
"M. c #DCA25C",
"N. c #E5A45D",
"B. c #CF9766",
"V. c #C09669",
"C. c #C49463",
"Z. c #D59660",
"A. c #D49C61",
"S. c #DB9E62",
"D. c #D7A060",
"F. c #DBA362",
"G. c #DEA966",
"H. c #DDA56A",
"J. c #DEAA69",
"K. c #DCA878",
"L. c #E2A565",
"P. c #E4AA65",
"I. c #E5A768",
"U. c #E8A669",
"Y. c #E3AC6C",
"T. c #EDA96C",
"R. c #E7B06D",
"E. c #E9B26F",
"W. c #E5AD73",
"Q. c #E7B270",
"!. c #EAB374",
"~. c #EFBC7A",
"^. c #F3BB7B",
"/. c #D0AE81",
"(. c #D5B086",
"). c #DCB58A",
"_. c #E3AE82",
"`. c #F8C583",
"'. c #FCC988",
"]. c #FFC990",
"[. c #FECFA3",
"{. c #F6D4AE",
/* pixels */
"G F F c < h G F ( F z c D H D H h.} L *.Q M k D M H W Q ^ ~ M - 8 * f p o a o 1 2 9 ",
"G G _ ( b F G b 2.( F G } #.#.*.-.Q L } #.Q L #.Q r.d.*.H V H H f p M M 6 a 9 3 2 3 ",
"c b ( %.( ( ( c 8.#.G ( :.>.>.r.*.} Q L } #.#.#.~ >.r.Q M m A W 8 k M j m 9 a 2 1 2 ",
"( _ 4.k.&.:.:.G &.( G #.>.>.;.-.Q #.} L L #.L H Q ~ ~ L Q Q W J j D j 8 E 5 a $ 2 2 ",
":.%.%._ F F G h ( G / %.,.>.*.#.K L Q L } } L M m j j m M M V A J ~ j 6 ~ r s O e w ",
") F b c f c F h G / #.4.h.,.*.*.-.,.*.#.L D l j ^ ~ ^ Q H A ^ j.Q ^ j 6 ! B 0 O t t ",
"#.( L ( F %.8.%.G / #.,.$.} #.;.p.#.Q L K k f g p 8 8 p 8 8 n A l H j 8 T T o O w 5 ",
"%.( ) ( F ( _ b b F ( ( K C L *.L k f M D k M L M p 8 M Q ~ H M : M n j B !   4 1 1 ",
"J #.P G K F 3.p.G.J.3.F ( >.#.L C H K K C - 6 W ^ ~ d.Z.Q E e.^ l : r.- 8 w.O 0 & . ",
"L $.L *.#.#.M.F.Y.M.| k C %.} f F Q C u p p 7 p q m W W M M J ~ $.C =.6 q y.r 4 s t ",
"h.j.$.-.;.*.n.m.!.k.( Z F p.p.f p.( K >.p.p % m j ^ w.Q W *.w.d.^ A Q j 7 O.~ s 5 N ",
"j.h.K ( #.#.k.3.m.x c | #.x.L.$.#.H } L.F.M k S.j =.*.A Q ~ ^ u.M k H E 6 q O.! 3 U ",
"#.L l K ,.8.a.( ( # u 5.3.:.x.h.5.P.P.3.-.-.-.d.k #.L M H K D Q D j A e.q $ T T e U ",
"P J D ,.x.,.| k a.x Z n.3.C c P / %.#.#.3.-.H l *.>.Q L *.$.L L I p j ^ A 0 B B e 9 ",
"L =.#.1.p.L K g G.3.3.m.4.c u f # X @ b 3.D u ( >.M M L $.L H M D k C H H V N B N 9 ",
"#.,.#.#.K c } ( 3.3.;.;.p.#.D D n.6.' / D f k >.$.: , L } K H g M } t.A a B 6 a t e ",
"l.( _ &.G ) %.F %.%.F g ( _ v ( | ( { X.3.| ;.3.C F #.( K D D D Q ;.*.m p V H m 9 9 ",
"/ l F #.G L _ F / ( F c / / c ( 5.3.| Z v c v Z D G } #.#.( #.,.Q | } M n M V m r r ",
"k.#.2.k.4.4.k.2.K %.} / } ' %.k.2.0.2./ b ) %.' H F L K F K } #.| } Q Z m n j n V V ",
"n.%._ ( G ( _ _ F ( / / K G k.P.z ) ) v z / ' / } #.#.#.#.#.*.:.*.L H H C j q n V M ",
"%.F g < c c h c , v c F c g %.%.] n.N.q.2.q.2./ F K ( #.#.$.#.-.%./ H W H j u n j j ",
"F b c b %.( F ( g / F 5.( z %.c z G ' _ #.&.' F #.} #.} L L K K 3.( K ( K M j k p p ",
"c / F G :.#.F 5.( :.( M.4.( l.c ( / Z F ( | 3.2.h.h.p.>.-.,.-.%.%.#.( K K F C M j j ",
"( 4.&._ %./ G l.5.2.F k.3.( N.G J.3.x y > > > i D D D D G #.>.4.5.%.} K K K F S l l ",
"2.2.0.2.M.n.v 2.%.6.2.2.5.0.1.) c.F.G.k.*.K Z C d y = , h z / %.v I ] ] ` G K W C m ",
"K F %.( k.k.F 2.5.5.#.' &.2.,.I ( ;.3.5.3.5.5.5.g.i.%./ F z > # c Z G G G I } } H l ",
"( ( ( v ( 6.%.k.5.%.#._ %.8.8.%._ %.2.2.2.5.2.2.3.q.0.2.2.m.g.[ R S k k z P G L *.~ ",
"a.k.6.3.3.M.M.M.2.3.#.%.k.x.l.j.0.0.2.2.' ' ' / ) &.2.&.%.d.+.+.(.@.[ A l h l l M f ",
"a.G.R.Q.R.R.R.a.v.p.4.h.x.b.j.z.0.0.2.&.' 2.] ' ) ] 9.b.p.! o.@.{.).C...J l f < : % ",
"F.J.J.Q.J.G.~.J.Y.v.c.c.S.z.>.=.0.9.9.2.&.1.2.&.<.` ] 1.,.e.K.[./.V. .~ ^ P P P M g ",
"Q.J.m.J.m.m.`.~.!.L.c.x.c.h.>.=.l.b.M.j.1.,.,.=.u.%.I P D ! A._.o.T m J $.I I ^ D M ",
"J.G.J.'.Q.m.~.G.^.L.z.z.z.z.u.u.z.v.L.x.>.1.r.u.J >.j.1.u.z.w.! s.~ Q 1.1.I J J A m ",
"H.K.J.H.f.f.W.].W.I.c.F.L.z.u.T.F.t.p.S.z.$.} p.>.$.L #.=.I I 1.%.%.&.#.%.*.*.*.A M ",
"A.H.W.W.I.H.W.W.G.S.>.t.z.1.1.L.v.z.h.c.p.#.#.>.%.-.} } =.$.^ 1.$.%._ #.#.} L L H D ",
"f.H.Q.W.W.!.W.A.S.F.p.*.z.x.x.U.h.v.c.h.#.Q } -.#.>.$.L $.=.$.1.&.%.&.:.-.| L H A M ",
"S.H.Y.H.H.Q.W.g.c.v.p.X.z.L.U.U.t.S.F.,.Q L #.*.( ,.-.L =.u.=.1.:.:.%.%.-.$.Q H M k ",
"D.Y.Y.D.D.Y.Y.c.i.c.;.{ h.F.z.h.*.v.L.t.Q L #.#.L 4.,.L =.h.1.1.&.%.( ( ( Q G L H H ",
"F.J.G.D.G.Y.G.i.a.g.i.X.c.F.h.;.#.k.L.z.-.| *.#.#.3.-.#.1.u.1.1.2.&.( ( ( } #.~ Q J ",
"G.a.i.p.c.D.a.X.i.3.( { a.F.d.p.#.t.F.S.h.;.*.-.%.>.%.>.h.1.$.j.8.8.,.#.$.#.#.*.H H ",
"Y.;.Z F 3.p.*.( S x > i | ;.*.>.Q >.v.I.S.p.$.,.;.>.$.,.x.1.$.j.2.2.%.$.#.} K H H A ",
"X.i c 3.a.6.3.5.M.k.k.M.P.n.%.F Z F 2.l.l.1.$.&.8.9.%.k.#.6.#.5.5.F #.~ E ~ W } W A ",
"{ k Z a.6.| 2.6.k.0.k.M.N.n.k.4.5.4.l.N.b.1.&.1.8.j.&.k.' 2.%.3.8.K } Q A W Q -.J A "
};
