/* XPM */
static char *b3b65372c238479ae98654e8a4467ad1XnBLUtcnUIh8sQpD[] = {
/* columns rows colors chars-per-pixel */
"42 42 244 2 ",
"   c None",
".  c black",
"X  c #180606",
"o  c #4E1315",
"O  c #501316",
"+  c #581316",
"@  c #7A0000",
"#  c #7B0000",
"$  c #7B0001",
"%  c #7A0200",
"&  c #7C0101",
"*  c #7D0302",
"=  c #7E0202",
"-  c #7F0303",
";  c #7B0500",
":  c #7C0600",
">  c #7D0D00",
",  c #7C0E00",
"<  c #7D0F00",
"1  c #7E1900",
"2  c #7F1900",
"3  c #7D1D21",
"4  c #21655E",
"5  c #664C4B",
"6  c #635652",
"7  c #627052",
"8  c #841305",
"9  c #8C110A",
"0  c #981113",
"q  c #A5191B",
"w  c #802100",
"e  c #831E22",
"r  c #962428",
"t  c #B22123",
"y  c #B52125",
"u  c #B62125",
"i  c #B82127",
"p  c #BB2529",
"a  c #B12A2F",
"s  c #AC3237",
"d  c #AF3938",
"f  c #B03135",
"g  c #B03935",
"h  c #B43339",
"j  c #B53339",
"k  c #B63339",
"l  c #B73339",
"z  c #B83339",
"x  c #B93339",
"c  c #BA3339",
"v  c #BB3339",
"b  c #BC3339",
"n  c #BD3339",
"m  c #BE3339",
"M  c #BF3339",
"N  c #C5242E",
"B  c #C1292C",
"V  c #C2292D",
"C  c #C42B2E",
"Z  c #C92D31",
"A  c #CD2F34",
"S  c #CC3033",
"D  c #C03339",
"F  c #C13339",
"G  c #C23339",
"H  c #C33339",
"J  c #C43339",
"K  c #C53339",
"L  c #C63339",
"P  c #C73339",
"I  c #C3363A",
"U  c #C83339",
"Y  c #C93339",
"T  c #CA3339",
"R  c #CB3339",
"E  c #C8333A",
"W  c #CC3339",
"Q  c #CD3339",
"!  c #CE3339",
"~  c #CF3339",
"^  c #CD333A",
"/  c #CD333B",
"(  c #CF333A",
")  c #D43036",
"_  c #D43137",
"`  c #D53137",
"'  c #D63236",
"]  c #D63337",
"[  c #D83137",
"{  c #D93737",
"}  c #D03339",
"|  c #D13339",
" . c #D33238",
".. c #D23339",
"X. c #D33339",
"o. c #D1333B",
"O. c #D2333A",
"+. c #D73138",
"@. c #D53238",
"#. c #D53338",
"$. c #D53239",
"%. c #D43339",
"&. c #D53339",
"*. c #D63339",
"=. c #D5333A",
"-. c #D6333A",
";. c #D7333A",
":. c #D7333B",
">. c #D0363B",
",. c #D53439",
"<. c #D63439",
"1. c #D63539",
"2. c #D73739",
"3. c #D5343A",
"4. c #D6343A",
"5. c #D7343A",
"6. c #D6353A",
"7. c #D6353B",
"8. c #D6363A",
"9. c #D7363A",
"0. c #D7373A",
"q. c #D7333C",
"w. c #D6373D",
"e. c #D8333A",
"r. c #D8333B",
"t. c #D9333B",
"y. c #DA333B",
"u. c #D8343A",
"i. c #D8373A",
"p. c #D8373B",
"a. c #D9333C",
"s. c #DB333C",
"d. c #DC333C",
"f. c #DC333D",
"g. c #DD333D",
"h. c #DC333E",
"j. c #DF333E",
"k. c #DF333F",
"l. c #DA343C",
"z. c #D6393F",
"x. c #D8383A",
"c. c #D8393A",
"v. c #D9393A",
"b. c #D9393B",
"n. c #D93A3B",
"m. c #DA3B3B",
"M. c #DA3C3B",
"N. c #DB3C3B",
"B. c #DB3D3B",
"V. c #DD3E3A",
"C. c #DC3E3B",
"Z. c #DB3D3C",
"A. c #DB3E3C",
"S. c #D93C3E",
"D. c #D93D3F",
"F. c #DC3D3C",
"G. c #DC3E3C",
"H. c #DC3F3C",
"J. c #E0333E",
"K. c #E0333F",
"L. c #E1333F",
"P. c #E2333F",
"I. c #B2473F",
"U. c #AE543C",
"Y. c #DF433B",
"T. c #DD413C",
"R. c #DD423D",
"E. c #DE423C",
"W. c #DE423D",
"Q. c #DF433D",
"!. c #DF443D",
"~. c #E1473D",
"^. c #E0463E",
"/. c #E44C3F",
"(. c #E44D3F",
"). c #933C40",
"_. c #9C3D40",
"`. c #DB3F40",
"'. c #D83F45",
"]. c #E33340",
"[. c #E43340",
"{. c #E33440",
"}. c #E43440",
"|. c #E53440",
" X c #E53441",
".X c #E63441",
"XX c #E73442",
"oX c #E83442",
"OX c #E93443",
"+X c #844244",
"@X c #814B4B",
"#X c #AB4043",
"$X c #A54F40",
"%X c #AB5B4B",
"&X c #B25E4E",
"*X c #A17F49",
"=X c #B06551",
"-X c #C84C41",
";X c #DD4745",
":X c #D84349",
">X c #D9444A",
",X c #DF4D49",
"<X c #D25754",
"1X c #DC5258",
"2X c #DC5458",
"3X c #E44D40",
"4X c #E54F40",
"5X c #E1504A",
"6X c #E25D59",
"7X c #DE5D62",
"8X c #DE5F64",
"9X c #DC6E68",
"0X c #E46864",
"qX c #E16A6F",
"wX c #E87069",
"eX c #E87B76",
"rX c #E3787C",
"tX c #B7885A",
"yX c #BD8D63",
"uX c #BAA56D",
"iX c #C29D80",
"pX c #E58185",
"aX c #E68287",
"sX c #EA989B",
"dX c #D0BE91",
"fX c #D4B19F",
"gX c #ECA2A5",
"hX c #ECA5A7",
"jX c #E8AAA3",
"kX c #EEAAAD",
"lX c #F5B6AE",
"zX c #F0B9B9",
"xX c #F1B9BB",
"cX c #C7CB8C",
"vX c #D5C1AA",
"bX c #D4DDA8",
"nX c #DFD4C1",
"mX c #E6CDC0",
"MX c #F5D7D6",
"NX c #F8D4D2",
"BX c #E5EBC9",
"VX c #ECF4DB",
"CX c #FBE4E1",
"ZX c #FCEDEC",
/* pixels */
"                                                                                    ",
"                        . .                                                         ",
"            . .     . X o                                                           ",
"            r e + O 3 a +.+.                                                        ",
"          +.>.#X%X=X6 @XI <X                                                        ",
"          -X_.4 7 *X5 +Xd fXqX{                                                     ",
"        9XyXs ).$XuXI.f &XmX2X~.~.x.                                                ",
"      ] 2XdXU.g tXVXvXiXnXhXw.,.A.+.+.                                              ",
"    M.M.A.jXbXcXBXkXzXMXgX:X+.x.G.,.,.                                              ",
"  A.G.m.m.>XsXxXaX`.o.'.+.>.,.4XG.m.w.,.                                            ",
"  ,.m.m.,.] +.>.+.>.+.+.,.+.+.,.,.m.A.m.                                            ",
"  ,.x.,.,.>.+.+.+.+.+.O._ _ _ ] M.A.,.+.,.                                          ",
"  A.M.T.E.x.+.,.,.!.T.;XpXrX7X7X5Xm.m.] ,.                                          ",
"  m.M.z.x.!.M.,.T.z.] 5XlXNXZXCXwXT./.m.                                            ",
"  ,.m.,.+.,.E.!.E.+.,.>.m.6XeX0X`.~./.A.                                            ",
"    +.+.>.+.,.,.,.,.,.+.+.O.] N.+.,.i.,.                                            ",
"      ,.+.>.+.,.i.,.,.,.,.,.x./.,.+.,.                                              ",
"        ,.+.x.m.i.,.m.,.+.,.#.,.O.A                                                 ",
"          ,.,.A.i.i.m.A.,.,.>.S q                                                   ",
"                A V C V p t 0 9 8                                                   ",
"                  = = = $ ; $ 1 2                                                   ",
"                  $ $ $ @ @ , 1 <                                   XXP.K.XX        ",
"                  $ $ $ $ $ $ > : $                               XXw.,.,.+.{.      ",
"                  u u t u u u y u N                               s.+.+.,.,.+.      ",
"                  l.,.,.l.,.r.i.,.XX                            XX,.>.+.^ ^ ,.XX    ",
"                  s.+.,.+.,.>.+.r.XX                            XX+._ n n G Y {.    ",
"                  k.+.] ,.,.+.! o.                                k.U L X.,.O.l.OX  ",
"                  s.H U Y ^ I c ! XX                              XXs.,.#.,.] +.l.  ",
"                  k.R m l l n Y +.r.XX                              k.,.+.O.+.O.,.[.",
"                  k.#.>._ O.>.+.>.U +.].                            r.+.>.O.+.+.+.`.",
"                  {.+.+.>.] +.,.^ c >.r.XX                          s.L c l H O.+.L.",
"                    k.] O.O.>.Y k n +.+./ +.i.K.                    q.! ! U l L +.[.",
"                      ]./ n l l c O.+.+.n ^ ,.,.s.].k.P.XX        k.O.] ,.,.! D l.  ",
"                        k.O.! U >.+.>.+.c Y +.,.+.I O.O.+.k.s.r.r.! H U O.+.+.O.XX  ",
"                        XXr.+.>.,.,.+.! k ^ ,.+.+.I U ] >.L ! >.,.+.L l ! +.,.,.{.  ",
"                          P.i.+.+.,.Y c n ,.+.>.O.c Y +.+.! c +.+.>.+.c I ,.+.+.XX  ",
"                              ].].k.H I >.+.+.,.U l ! +.,.! l ! ,.,.+.n H +.,.l.    ",
"                                    r.+.+.,.,.^ c H >.+.+.! c O.>.+.O.H U ,.+.].    ",
"                                      k.,.q.,.Y L >.+.,.,.L n O.+.>.+.! s.k.XX      ",
"                                        XXXXOXK.+.,.+.,.>.H ! +.,.+.i.XX            ",
"                                                XXk.k.K.K.k.,.+.+.l.XX              ",
"                                                            XXXXXX                  "
};
